<svg width="745" height="247" viewBox="0 0 745 247" fill="none" xmlns="http://www.w3.org/2000/svg">
<path d="M283.762 137.823H328.593V158.238H283.762V137.823ZM285.693 175.895H336.18V197H258.656V100.44H334.387V121.545H285.693V175.895ZM345.607 167.756V147.617H385.887V167.756H345.607ZM402.122 197V100.44H429.434V175.343H475.507V197H402.122ZM486.315 197V100.44H508.8L548.803 166.101H536.94L575.84 100.44H598.325L598.601 197H573.495L573.219 138.65H577.495L548.389 187.482H536.251L506.317 138.65H511.559V197H486.315ZM617.927 197V100.44H645.239V197H617.927ZM698.605 198.931C690.696 198.931 683.063 197.966 675.706 196.034C668.441 194.011 662.51 191.436 657.912 188.31L666.878 168.17C671.2 170.929 676.166 173.228 681.776 175.067C687.477 176.814 693.133 177.688 698.743 177.688C702.513 177.688 705.548 177.366 707.847 176.722C710.146 175.987 711.801 175.067 712.813 173.964C713.916 172.768 714.468 171.389 714.468 169.825C714.468 167.618 713.457 165.871 711.433 164.583C709.41 163.296 706.789 162.238 703.571 161.411C700.352 160.583 696.766 159.755 692.811 158.928C688.949 158.1 685.04 157.043 681.086 155.755C677.224 154.468 673.683 152.812 670.464 150.789C667.246 148.674 664.625 145.961 662.602 142.651C660.579 139.248 659.567 134.972 659.567 129.822C659.567 124.028 661.13 118.787 664.257 114.096C667.476 109.406 672.258 105.636 678.603 102.785C684.948 99.9343 692.857 98.5089 702.329 98.5089C708.675 98.5089 714.882 99.2446 720.951 100.716C727.113 102.095 732.585 104.165 737.367 106.923L728.952 127.201C724.354 124.718 719.802 122.879 715.296 121.683C710.79 120.396 706.421 119.752 702.191 119.752C698.421 119.752 695.386 120.166 693.087 120.994C690.788 121.729 689.133 122.741 688.121 124.028C687.11 125.316 686.604 126.787 686.604 128.442C686.604 130.558 687.569 132.259 689.501 133.546C691.524 134.742 694.145 135.753 697.363 136.581C700.674 137.317 704.26 138.098 708.123 138.926C712.077 139.754 715.986 140.811 719.848 142.099C723.802 143.294 727.389 144.95 730.607 147.065C733.826 149.088 736.401 151.801 738.332 155.203C740.355 158.514 741.367 162.698 741.367 167.756C741.367 173.366 739.758 178.562 736.539 183.344C733.412 188.034 728.676 191.804 722.331 194.655C716.077 197.506 708.169 198.931 698.605 198.931Z" fill="#3170B5"/>
<mask id="mask0_1735_3533" style="mask-type:alpha" maskUnits="userSpaceOnUse" x="0" y="0" width="191" height="207">
<path d="M92.16 194.37C93.32 191.07 95.18 188.43 95.18 184.94C95.18 179.4 98.46 176.38 99.88 172.34C105.61 155.96 111.35 139.59 117.08 123.21C126.01 107.97 134.94 92.73 143.87 77.48L177.4 80.29L179.82 75.91L181.83 72.23L181.25 71.71L190.02 57.95L125.86 0L0 113.39L80.76 206.42L92.16 194.38V194.37Z" fill="white"/>
</mask>
<g mask="url(#mask0_1735_3533)">
<path d="M147.75 200.14L158.32 198.19L158 188.16L157.9 184.87L160.99 183.71C162.6 183.11 164.17 182.44 165.67 181.73C167.3 180.96 168.82 180.16 170.2 179.35L173.01 177.71L175.48 179.85L183.07 186.43L191.27 179.44L185.96 170.88L184.23 168.1L186.31 165.57C187.33 164.32 188.36 162.96 189.37 161.48H189.39C190.34 160.09 191.25 158.65 192.1 157.16L193.72 154.32L196.93 154.94L206.82 156.85L210.43 146.7L201.57 141.95L198.68 140.4L199.22 137.17C199.49 135.55 199.69 133.86 199.83 132.11C199.96 130.47 200.02 128.76 200.01 127L199.99 123.72L203.1 122.64L212.59 119.36L210.64 108.79L200.61 109.11L197.32 109.21L196.16 106.12C195.56 104.51 194.89 102.94 194.18 101.44C193.4 99.81 192.6 98.29 191.8 96.91L190.16 94.1L192.3 91.63L198.89 84.03L191.9 75.83L183.33 81.14L180.55 82.87L178.02 80.79C176.7 79.71 175.34 78.69 173.95 77.73L173.93 77.71C172.54 76.75 171.09 75.85 169.61 75L166.77 73.38L167.39 70.17L169.3 60.27L159.15 56.66L154.4 65.52L152.85 68.41L149.64 67.88C148.06 67.62 146.36 67.41 144.56 67.27C142.9 67.14 141.2 67.07 139.48 67.08L136.18 67.1L135.1 63.99L131.82 54.5L121.25 56.45L121.57 66.48L121.67 69.77L118.58 70.93C116.97 71.53 115.41 72.2 113.9 72.91C112.26 73.69 110.75 74.48 109.36 75.29L106.55 76.93L104.08 74.79L96.49 68.2L88.29 75.19L93.6 83.75L95.32 86.53L93.24 89.06C92.15 90.39 91.13 91.75 90.17 93.13V93.15C89.16 94.62 88.25 96.07 87.45 97.47L85.83 100.31L82.62 99.69L72.73 97.78L69.12 107.93L77.98 112.68L80.87 114.23L80.33 117.45C80.06 119.07 79.86 120.76 79.72 122.51C79.59 124.17 79.52 125.87 79.54 127.59L79.56 130.89L76.45 131.96L66.96 135.24L68.91 145.81L78.94 145.49L82.23 145.39L83.39 148.48C83.99 150.09 84.66 151.66 85.37 153.16C86.14 154.79 86.94 156.31 87.75 157.69L89.39 160.5L87.25 162.97L80.66 170.57L87.65 178.77L95.15 174.12V184.89C96.4 185.91 104.14 175.86 105.6 176.87C107.08 177.89 108.52 178.8 109.93 179.6L112.77 181.23L112.15 184.44L110.24 194.34L120.39 197.95L125.14 189.09L126.68 186.21L129.89 186.74C131.47 187 133.17 187.21 134.98 187.35C136.64 187.48 138.34 187.55 140.06 187.54L143.36 187.52L144.44 190.63L147.72 200.12L147.75 200.14ZM163.86 206.5L141.66 210.59L140.37 206.86L136.85 196.67C136 196.63 135.14 196.58 134.29 196.51C133.44 196.44 132.58 196.35 131.7 196.25L126.61 205.76L124.75 209.22L121.06 207.91L103.51 201.68L99.79 200.36L100.53 196.51L102.58 185.9C101.83 185.43 101.11 184.95 100.42 184.48C99.73 184.01 99.04 183.51 98.34 182.98L89.16 188.68L85.83 190.74L83.27 187.74L71.19 173.56L68.65 170.58L71.22 167.61L78.29 159.46C77.88 158.68 77.49 157.9 77.13 157.14C76.76 156.37 76.41 155.59 76.07 154.8L65.29 155.14L61.34 155.27L56.54 129.2L70.46 124.39C70.5 123.54 70.55 122.68 70.62 121.83C70.69 120.98 70.77 120.12 70.88 119.25L61.38 114.16L57.91 112.3L59.23 108.6L65.47 91.05L66.78 87.35L70.64 88.09L81.25 90.14C81.72 89.4 82.19 88.68 82.67 87.99H82.68C83.17 87.29 83.67 86.59 84.17 85.91L78.47 76.72L76.4 73.38L79.39 70.83L93.57 58.75L96.56 56.2L99.53 58.78L107.68 65.85C108.46 65.44 109.24 65.05 110.01 64.68C110.78 64.31 111.56 63.96 112.34 63.62L112 52.84L111.87 48.89L137.94 44.09L139.23 47.82L142.75 58.01C143.6 58.05 144.46 58.1 145.31 58.17C146.16 58.24 147.02 58.33 147.9 58.43L152.99 48.92L154.84 45.46L176.08 53L179.8 54.32L179.06 58.17L177.01 68.79C177.73 69.25 178.44 69.72 179.15 70.2H179.17C179.87 70.7 180.56 71.19 181.24 71.7L190.43 66L193.76 63.94L196.32 66.94L208.4 81.12L210.94 84.1L208.37 87.06L201.3 95.21C201.71 95.99 202.1 96.77 202.47 97.54C202.84 98.31 203.19 99.09 203.53 99.87L218.25 99.4L223.05 125.47L219.32 126.76L209.13 130.28C209.09 131.13 209.04 131.99 208.97 132.85C208.9 133.7 208.82 134.56 208.71 135.43L218.22 140.52L221.69 142.38L220.38 146.08L214.14 163.63L212.82 167.33L208.96 166.59L198.34 164.54C197.88 165.26 197.41 165.98 196.92 166.68H196.93C196.45 167.38 195.95 168.08 195.43 168.78L201.13 177.96L203.2 181.3L200.21 183.85L183.05 198.48L180.08 195.9L171.93 188.83C171.15 189.24 170.37 189.63 169.61 189.99C168.84 190.36 168.06 190.71 167.27 191.05L167.61 201.83L167.73 205.78L163.86 206.49V206.5Z" fill="#3170B5"/>
</g>
<path opacity="0.65" d="M113.879 148.01C109.909 148.01 106.699 151.37 106.699 155.19C106.699 159.16 109.909 162.37 113.879 162.37C117.849 162.37 121.059 159.16 121.059 155.19C121.059 151.22 117.849 148.01 113.879 148.01Z" fill="#F26769"/>
<path opacity="0.53" d="M113.88 168.49C106.54 168.49 100.43 162.68 100.43 155.35C100.43 148.01 106.39 142.05 113.73 142.05C116.79 142.05 119.54 143.12 121.83 144.8L124.93 142.28V107.06L95.1797 101.6V206.02L124.93 195.09V162.59C122.54 166.15 118.48 168.49 113.89 168.49H113.88Z" fill="#3170B5"/>
<path opacity="0.65" d="M148.58 134.26C152.55 134.26 155.76 130.9 155.76 126.92C155.76 122.95 152.55 119.74 148.58 119.74C147.73 119.74 146.93 119.92 146.18 120.2V133.82C146.93 134.09 147.73 134.26 148.58 134.26Z" fill="#EED116"/>
<path opacity="0.53" d="M161.87 126.92C161.87 129.06 161.41 131.05 160.49 132.73L175.47 144.65C177.67 143.04 180.3 142 183.2 141.91V95.52L146.17 82.77V113.85C146.95 113.71 147.75 113.62 148.57 113.62C155.91 113.62 161.87 119.58 161.87 126.92Z" fill="#3170B5"/>
<path opacity="0.65" d="M176.239 155.19C176.239 159.09 179.339 162.24 183.209 162.35V148.03C179.339 148.15 176.239 151.44 176.239 155.19Z" fill="#EED116"/>
<path opacity="0.53" d="M170.279 155.19C170.279 153.05 170.739 151.06 171.659 149.38L156.839 137.31C154.549 138.99 151.799 140.06 148.739 140.06C147.859 140.06 147.009 139.96 146.189 139.8V224.23L183.219 206.02V168.48C176.049 168.28 170.289 162.41 170.289 155.2L170.279 155.19Z" fill="#3170B5"/>
<path opacity="0.53" d="M204.46 68.81V134.24L206.5 132.58C205.58 130.75 205.12 128.91 205.12 126.77C205.12 119.43 211.08 113.47 218.42 113.47C225.76 113.47 231.72 119.43 231.72 126.77C231.72 134.11 225.76 140.07 218.42 140.07C215.36 140.07 212.61 139 210.32 137.32L204.46 142.09V246.08L249.38 209.65V94.91L204.46 68.81Z" fill="#3170B5"/>
<path opacity="0.65" d="M218.11 134.26C222.08 134.26 225.29 130.9 225.29 126.92C225.29 122.95 222.08 119.74 218.11 119.74C214.14 119.74 210.93 123.1 210.93 127.08C210.93 131.06 214.14 134.26 218.11 134.26Z" fill="#32A583"/>
<path opacity="0.53" d="M191.68 144.65C189.39 142.97 186.64 141.9 183.58 141.9C183.46 141.9 183.34 141.91 183.21 141.92V148.04C183.28 148.04 183.35 148.02 183.42 148.02C187.39 148.02 190.6 151.23 190.6 155.2C190.6 159.17 187.39 162.38 183.42 162.38C183.35 162.38 183.28 162.36 183.21 162.36V168.48C183.33 168.48 183.45 168.5 183.58 168.5C190.92 168.5 196.88 162.54 196.88 155.2C196.88 153.06 196.42 151.23 195.5 149.39L204.46 142.09V134.24L191.68 144.65Z" fill="#3170B5"/>
<path opacity="0.53" d="M141.39 127.07C141.39 123.94 143.39 121.22 146.17 120.19V113.85C139.98 114.98 135.27 120.4 135.27 126.92C135.27 129.06 135.73 130.89 136.65 132.73L124.92 142.28V162.59C126.34 160.47 127.17 157.93 127.17 155.19C127.17 153.05 126.71 151.22 125.79 149.38L140.61 137.31C142.24 138.51 144.11 139.39 146.16 139.8V133.82C143.38 132.83 141.38 130.2 141.38 127.08L141.39 127.07Z" fill="#3170B5"/>
</svg>
