<svg width="24" height="24" viewBox="0 0 24 24" fill="none" xmlns="http://www.w3.org/2000/svg">
<path fill-rule="evenodd" clip-rule="evenodd" d="M4.66666 5.88889C4.66666 3.58424 4.66666 2.43192 5.38263 1.71596C6.09859 1 7.25091 1 9.55555 1H14.4444C16.7491 1 17.9014 1 18.6174 1.71596C19.3333 2.43192 19.3333 3.58424 19.3333 5.88889V18.1111C19.3333 20.4158 19.3333 21.5681 18.6174 22.284C17.9014 23 16.7491 23 14.4444 23H9.55555C7.25091 23 6.09859 23 5.38263 22.284C4.66666 21.5681 4.66666 20.4158 4.66666 18.1111V5.88889ZM7.11111 6.62222C7.11111 5.70036 7.11111 5.23944 7.39749 4.95305C7.68388 4.66667 8.14481 4.66667 9.06666 4.66667H14.9333C15.8552 4.66667 16.3161 4.66667 16.6025 4.95305C16.8889 5.23944 16.8889 5.70036 16.8889 6.62222V13.7111C16.8889 14.633 16.8889 15.0939 16.6025 15.3803C16.3161 15.6667 15.8552 15.6667 14.9333 15.6667H9.06666C8.14481 15.6667 7.68388 15.6667 7.39749 15.3803C7.11111 15.0939 7.11111 14.633 7.11111 13.7111V6.62222ZM11.9999 20.5555C12.6749 20.5555 13.2221 20.0083 13.2221 19.3332C13.2221 18.6582 12.6749 18.111 11.9999 18.111C11.3249 18.111 10.7777 18.6582 10.7777 19.3332C10.7777 20.0083 11.3249 20.5555 11.9999 20.5555Z" fill="#5D6066"/>
</svg>
