<svg width="24" height="24" viewBox="0 0 24 24" fill="none" xmlns="http://www.w3.org/2000/svg">
<path d="M17.8333 9.6129C17.3667 9.6129 16.925 9.70516 16.5083 9.84774L14.05 5H11.7957C11.4483 5 11.1667 5.28163 11.1667 5.62903C11.1667 5.97644 11.4483 6.25806 11.7957 6.25806H13.2833L14.0167 7.70064L12 12.2381L10.525 8.73226C10.75 8.64839 10.95 8.42194 10.95 8.14516C10.95 7.80129 10.675 7.51613 10.3333 7.51613H8.66667C8.31667 7.51613 8.03333 7.80129 8.03333 8.14516C8.03333 8.48903 8.31667 8.77419 8.66667 8.77419H9.175L11.05 13.1774H10.2667C9.96667 11.1645 8.25 9.6129 6.16667 9.6129C3.86667 9.6129 2 11.4916 2 13.8065C2 16.1213 3.86667 18 6.16667 18C8.25 18 9.96667 16.4484 10.2667 14.4355H12.4167L14.7417 9.13484L15.4 10.4181C14.8645 10.8038 14.428 11.3123 14.1266 11.9015C13.8252 12.4907 13.6675 13.1437 13.6667 13.8065C13.6667 16.1213 15.5333 18 17.8333 18C20.1333 18 22 16.1213 22 13.8065C22 11.4916 20.1333 9.6129 17.8333 9.6129ZM6.16667 16.7419C4.55833 16.7419 3.25 15.4252 3.25 13.8065C3.25 12.1877 4.55833 10.871 6.16667 10.871C7.55833 10.871 8.725 11.8606 9.00833 13.1774H5.96236C5.61496 13.1774 5.33333 13.459 5.33333 13.8065C5.33333 14.1539 5.61496 14.4355 5.96237 14.4355H9.00833C8.86681 15.0883 8.50791 15.6729 7.9911 16.0924C7.47429 16.5119 6.83059 16.741 6.16667 16.7419ZM17.8333 16.7419C16.225 16.7419 14.9167 15.4252 14.9167 13.8065C14.9167 12.9006 15.3333 12.1039 15.975 11.5671L17.1817 13.9421C17.3422 14.2579 17.7321 14.3782 18.0426 14.2078C18.3393 14.0449 18.4532 13.6758 18.2998 13.374L17.0833 10.98C17.325 10.9213 17.575 10.871 17.8333 10.871C19.4417 10.871 20.75 12.1877 20.75 13.8065C20.75 15.4252 19.4417 16.7419 17.8333 16.7419Z" fill="#5D6066"/>
</svg>
