<svg width="24" height="24" viewBox="0 0 24 24" fill="none" xmlns="http://www.w3.org/2000/svg">
<path fill-rule="evenodd" clip-rule="evenodd" d="M20.21 7.81994L12.51 12.2799C12.2 12.4599 11.81 12.4599 11.49 12.2799L3.79 7.81994C3.24 7.49994 3.1 6.74994 3.52 6.27994C3.81 5.94994 4.14 5.67994 4.49 5.48994L9.91 2.48994C11.07 1.83994 12.95 1.83994 14.11 2.48994L19.53 5.48994C19.88 5.67994 20.21 5.95994 20.5 6.27994C20.9 6.74994 20.76 7.49994 20.21 7.81994ZM11.43 14.1399V20.9599C11.43 21.7199 10.66 22.2199 9.98001 21.8899C7.92001 20.8799 4.45001 18.9899 4.45001 18.9899C3.23001 18.2999 2.23001 16.5599 2.23001 15.1299V9.96988C2.23001 9.17988 3.06001 8.67988 3.74001 9.06988L10.93 13.2399C11.23 13.4299 11.43 13.7699 11.43 14.1399ZM12.57 20.9599V14.1399C12.57 13.7699 12.77 13.4299 13.07 13.2399L20.26 9.06988C20.94 8.67988 21.77 9.17988 21.77 9.96988V15.1299C21.77 16.5599 20.77 18.2999 19.55 18.9899C19.55 18.9899 16.08 20.8799 14.02 21.8899C13.34 22.2199 12.57 21.7199 12.57 20.9599Z" fill="#5D6066"/>
</svg>
