<svg width="24" height="24" viewBox="0 0 24 24" fill="none" xmlns="http://www.w3.org/2000/svg">
<g clip-path="url(#clip0_1_238893)">
<path d="M2.44224 4.79436C2.03172 3.5501 2.70995 2.20368 3.95435 1.79309C5.19875 1.3825 6.54509 2.06094 6.95562 3.30519L11.6251 17.4576C11.19 17.3427 10.7272 17.3217 10.2652 17.4062L5.7445 3.70482C5.55427 3.12822 4.93054 2.814 4.35398 3.00424C3.77738 3.19447 3.46316 3.8182 3.65339 4.39477C3.76372 4.72919 3.58207 5.08981 3.24762 5.20014C2.9132 5.31046 2.5526 5.12878 2.44224 4.79436ZM20.84 15.8964L13.1893 18.4207C13.4608 18.729 13.676 19.0955 13.8127 19.5095C13.8176 19.5243 13.8203 19.5392 13.8249 19.554L21.2396 17.1076C21.574 16.9973 21.7557 16.6366 21.6454 16.3022C21.535 15.9678 21.1744 15.7861 20.84 15.8964ZM13.2072 19.7095C13.6407 21.0233 12.927 22.4397 11.6132 22.8732C10.2995 23.3066 8.88306 22.593 8.44957 21.2792C8.01607 19.9654 8.72974 18.549 10.0435 18.1156C11.3573 17.682 12.7737 18.3957 13.2072 19.7095ZM12.0178 20.1019C11.801 19.445 11.0929 19.0882 10.4359 19.305C9.77905 19.5216 9.42224 20.2299 9.63897 20.8868C9.85569 21.5436 10.5639 21.9004 11.2208 21.6838C11.8777 21.467 12.2345 20.7587 12.0178 20.1019ZM18.9065 6.29668L21.5039 14.1691C21.5591 14.3363 21.4683 14.5166 21.301 14.5718L13.1258 17.2691C12.9586 17.3243 12.7783 17.2335 12.7232 17.0662L10.1257 9.19381C10.0706 9.02659 10.1614 8.84631 10.3286 8.79113L18.5038 6.09376C18.671 6.03865 18.8513 6.12946 18.9065 6.29668ZM17.8251 10.8697L15.0414 9.33818L13.7162 12.2255L14.5936 12.6293L15.1665 11.3802L16.2011 14.516L17.1913 14.1893L16.1569 11.054L17.3603 11.7164L17.8251 10.8697ZM15.396 6.17313L13.7354 1.14003C13.7001 1.03312 13.5848 0.97503 13.4779 1.01033L12.054 1.48013L12.047 1.49293L12.0351 1.48639L11.2838 1.73428L11.9025 3.60927L11.0551 3.88888L10.4365 2.01388L9.68494 2.26185L9.67926 2.27421L9.66596 2.2681L8.25128 2.73488C8.14433 2.77015 8.08631 2.88543 8.12158 2.99234L9.78225 8.02548C9.81752 8.13239 9.9328 8.19048 10.0397 8.15518L15.2664 6.43063C15.3732 6.39533 15.4313 6.28004 15.396 6.17313Z" fill="#5D6066"/>
</g>
<defs>
<clipPath id="clip0_1_238893">
<rect width="22" height="22" fill="white" transform="translate(1 1)"/>
</clipPath>
</defs>
</svg>
