<svg width="24" height="24" viewBox="0 0 24 24" fill="none" xmlns="http://www.w3.org/2000/svg">
<path fill-rule="evenodd" clip-rule="evenodd" d="M16.75 2V3.56C19.45 3.81 20.76 5.42 20.96 7.81C20.99 8.09 20.75 8.34 20.46 8.34H3.53999C3.25998 8.34 3.01998 8.1 3.03998 7.81C3.23998 5.42 4.54998 3.81 7.24999 3.56V2C7.24999 1.59 7.58999 1.25 7.99999 1.25C8.40999 1.25 8.74998 1.59 8.74998 2V3.5H15.25V2C15.25 1.59 15.59 1.25 16 1.25C16.41 1.25 16.75 1.59 16.75 2ZM4 9.84003H20C20.55 9.84003 21 10.29 21 10.84V17C21 20 19.5 22 16 22H8C4.5 22 3 20 3 17V10.84C3 10.29 3.45 9.84003 4 9.84003ZM7 13.75C7 13.3358 7.33579 13 7.75 13H16.25C16.6642 13 17 13.3358 17 13.75C17 14.1642 16.6642 14.5 16.25 14.5H7.75C7.33579 14.5 7 14.1642 7 13.75ZM7.75 16.5C7.33579 16.5 7 16.8358 7 17.25C7 17.6642 7.33579 18 7.75 18H16.25C16.6642 18 17 17.6642 17 17.25C17 16.8358 16.6642 16.5 16.25 16.5H7.75Z" fill="#5D6066"/>
</svg>
