<svg width="24" height="24" viewBox="0 0 24 24" fill="none" xmlns="http://www.w3.org/2000/svg">
<path fill-rule="evenodd" clip-rule="evenodd" d="M13.8848 4.00634C13.7063 3.98076 13.527 4.03353 13.3844 4.14705C13.2378 4.26217 13.1462 4.42845 13.1263 4.61473C13.0841 4.99127 13.3557 5.33183 13.7318 5.3742C16.3251 5.66361 18.3408 7.68382 18.6324 10.2852C18.6714 10.6338 18.9638 10.8968 19.3127 10.8968C19.339 10.8968 19.3645 10.8952 19.3908 10.892C19.5733 10.872 19.7358 10.7817 19.8505 10.6378C19.9645 10.4939 20.0162 10.3148 19.9955 10.1317C19.6322 6.88597 17.1202 4.3669 13.8848 4.00634ZM13.9345 6.79181C13.5537 6.72146 13.2039 6.96449 13.1314 7.33623C13.0589 7.70798 13.3027 8.07093 13.6732 8.14368C14.7886 8.36113 15.6498 9.22454 15.8681 10.3438V10.3446C15.9303 10.6667 16.2139 10.901 16.5405 10.901C16.5844 10.901 16.6282 10.897 16.6728 10.889C17.0433 10.8146 17.2871 10.4525 17.2146 10.0799C16.8887 8.4083 15.602 7.11718 13.9345 6.79181ZM14.9101 13.8834C14.0121 14.1981 13.0004 14.5525 11.2253 12.7779C9.45037 11.0034 9.80393 9.99123 10.1178 9.09278C10.3682 8.37587 10.5933 7.73138 9.69152 6.82986C9.44752 6.58593 9.22793 6.35481 9.02565 6.1419C7.60397 4.64557 7.03716 4.049 4.85917 6.22716C4.84288 6.24742 4.81488 6.27476 4.77871 6.31009C4.25989 6.81681 2.05778 8.96761 8.54763 15.4557C15.0356 21.942 17.185 19.7399 17.6921 19.2205C17.7275 19.1842 17.7549 19.1561 17.7752 19.1398C19.952 16.9635 19.3535 16.3942 17.8518 14.9658C17.6413 14.7656 17.4131 14.5486 17.1724 14.3078C16.2707 13.4068 15.6266 13.6324 14.9101 13.8834Z" fill="#5D6066"/>
</svg>
