<svg width="24" height="24" viewBox="0 0 24 24" fill="none" xmlns="http://www.w3.org/2000/svg">
<path fill-rule="evenodd" clip-rule="evenodd" d="M14.3561 2.00793C14.133 1.97595 13.9089 2.04191 13.7307 2.18381C13.5474 2.32771 13.4329 2.53557 13.408 2.76841C13.3552 3.23908 13.6948 3.66479 14.1649 3.71776C17.4065 4.07951 19.9262 6.60477 20.2907 9.85654C20.3395 10.2922 20.705 10.621 21.1412 10.621C21.174 10.621 21.2059 10.619 21.2388 10.615C21.4668 10.59 21.67 10.4771 21.8134 10.2972C21.9558 10.1174 22.0206 9.89351 21.9947 9.66467C21.5405 5.60746 18.4005 2.45862 14.3561 2.00793ZM14.4183 5.48976C13.9422 5.40182 13.505 5.70561 13.4144 6.17029C13.3238 6.63497 13.6285 7.08866 14.0916 7.1796C15.4859 7.45141 16.5624 8.53067 16.8353 9.92971V9.93071C16.913 10.3334 17.2675 10.6262 17.6759 10.6262C17.7306 10.6262 17.7854 10.6212 17.8412 10.6112C18.3043 10.5183 18.609 10.0656 18.5184 9.59994C18.1111 7.51037 16.5027 5.89648 14.4183 5.48976ZM15.6378 14.3543C14.5152 14.7476 13.2506 15.1906 11.0317 12.9724C8.81304 10.7543 9.255 9.48904 9.64729 8.36597C9.96031 7.46983 10.2417 6.66423 9.11449 5.53733C8.80949 5.23241 8.535 4.94351 8.28214 4.67738C6.50501 2.80696 5.79649 2.06124 3.07397 4.78395C3.05361 4.80927 3.01862 4.84345 2.9734 4.88761C2.32487 5.52102 -0.427806 8.20951 7.6846 16.3197C15.7947 24.4275 18.4815 21.6749 19.1153 21.0256C19.1596 20.9802 19.1938 20.9451 19.2192 20.9247C21.9403 18.2044 21.1921 17.4928 19.3149 15.7072C19.0519 15.457 18.7666 15.1857 18.4656 14.8848C17.3385 13.7585 16.5334 14.0406 15.6378 14.3543Z" fill="#5D6066"/>
</svg>
