<svg width="24" height="24" viewBox="0 0 24 24" fill="none" xmlns="http://www.w3.org/2000/svg">
<path d="M12 3C10.22 3 8.47991 3.52784 6.99987 4.51677C5.51983 5.50571 4.36628 6.91131 3.68509 8.55585C3.0039 10.2004 2.82567 12.01 3.17294 13.7558C3.5202 15.5016 4.37737 17.1053 5.63604 18.364C6.89471 19.6226 8.49836 20.4798 10.2442 20.8271C11.99 21.1743 13.7996 20.9961 15.4442 20.3149C17.0887 19.6337 18.4943 18.4802 19.4832 17.0001C20.4722 15.5201 21 13.78 21 12C20.9972 9.6139 20.0481 7.32631 18.3609 5.63908C16.6737 3.95185 14.3861 3.00276 12 3ZM15.2587 14.2797C15.3231 14.344 15.3742 14.4203 15.4091 14.5043C15.444 14.5883 15.4619 14.6784 15.462 14.7694C15.462 14.8603 15.4442 14.9504 15.4094 15.0345C15.3746 15.1185 15.3236 15.1949 15.2592 15.2592C15.1949 15.3236 15.1185 15.3746 15.0345 15.4094C14.9504 15.4442 14.8604 15.462 14.7694 15.462C14.6784 15.4619 14.5884 15.444 14.5043 15.4091C14.4203 15.3742 14.344 15.3231 14.2797 15.2587L12 12.979L9.72025 15.2587C9.59039 15.3883 9.41439 15.461 9.23092 15.4609C9.04746 15.4608 8.87154 15.3879 8.74181 15.2582C8.61208 15.1285 8.53916 14.9525 8.53906 14.7691C8.53896 14.5856 8.6117 14.4096 8.74129 14.2797L11.021 12L8.74129 9.72025C8.6117 9.59038 8.53896 9.41438 8.53906 9.23092C8.53916 9.04746 8.61208 8.87153 8.74181 8.74181C8.87154 8.61208 9.04746 8.53915 9.23092 8.53906C9.41439 8.53896 9.59039 8.61169 9.72025 8.74128L12 11.021L14.2797 8.74128C14.4096 8.61169 14.5856 8.53896 14.7691 8.53906C14.9525 8.53915 15.1285 8.61208 15.2582 8.74181C15.3879 8.87153 15.4608 9.04746 15.4609 9.23092C15.461 9.41438 15.3883 9.59038 15.2587 9.72025L12.979 12L15.2587 14.2797Z" fill="#5D6066"/>
</svg>
