<svg width="24" height="24" viewBox="0 0 24 24" fill="none" xmlns="http://www.w3.org/2000/svg">
<path d="M12 2C10.0222 2 8.08879 2.58649 6.4443 3.6853C4.79981 4.78412 3.51809 6.3459 2.76121 8.17316C2.00433 10.0004 1.8063 12.0111 2.19215 13.9509C2.578 15.8907 3.53041 17.6725 4.92894 19.0711C6.32746 20.4696 8.10929 21.422 10.0491 21.8078C11.9889 22.1937 13.9996 21.9957 15.8268 21.2388C17.6541 20.4819 19.2159 19.2002 20.3147 17.5557C21.4135 15.9112 22 13.9778 22 12C21.9969 9.34877 20.9424 6.80702 19.0677 4.93232C17.193 3.05762 14.6512 2.00306 12 2ZM15.6208 14.5331C15.6923 14.6044 15.7491 14.6892 15.7879 14.7826C15.8266 14.8759 15.8466 14.976 15.8467 15.0771C15.8467 15.1782 15.8268 15.2783 15.7882 15.3717C15.7495 15.465 15.6928 15.5499 15.6214 15.6214C15.5499 15.6928 15.465 15.7495 15.3717 15.7882C15.2783 15.8268 15.1782 15.8467 15.0771 15.8466C14.976 15.8466 14.8759 15.8266 14.7826 15.7879C14.6892 15.7491 14.6044 15.6923 14.5331 15.6208L12 13.0877L9.46695 15.6208C9.32265 15.7648 9.1271 15.8456 8.92325 15.8455C8.7194 15.8454 8.52393 15.7644 8.37979 15.6202C8.23565 15.4761 8.15462 15.2806 8.15451 15.0767C8.1544 14.8729 8.23522 14.6773 8.37921 14.5331L10.9123 12L8.37921 9.46695C8.23522 9.32265 8.1544 9.12709 8.15451 8.92324C8.15462 8.7194 8.23565 8.52393 8.37979 8.37978C8.52393 8.23564 8.7194 8.15461 8.92325 8.15451C9.1271 8.1544 9.32265 8.23522 9.46695 8.37921L12 10.9123L14.5331 8.37921C14.6774 8.23522 14.8729 8.1544 15.0768 8.15451C15.2806 8.15461 15.4761 8.23564 15.6202 8.37978C15.7644 8.52393 15.8454 8.7194 15.8455 8.92324C15.8456 9.12709 15.7648 9.32265 15.6208 9.46695L13.0877 12L15.6208 14.5331Z" fill="#5D6066"/>
</svg>
