<svg width="24" height="24" viewBox="0 0 24 24" fill="none" xmlns="http://www.w3.org/2000/svg">
<path d="M12 6C10.8133 6 9.65328 6.35189 8.66658 7.01118C7.67989 7.67047 6.91085 8.60754 6.45673 9.7039C6.0026 10.8003 5.88378 12.0067 6.11529 13.1705C6.3468 14.3344 6.91825 15.4035 7.75736 16.2426C8.59648 17.0818 9.66557 17.6532 10.8295 17.8847C11.9933 18.1162 13.1997 17.9974 14.2961 17.5433C15.3925 17.0891 16.3295 16.3201 16.9888 15.3334C17.6481 14.3467 18 13.1867 18 12C17.9982 10.4093 17.3654 8.88421 16.2406 7.75939C15.1158 6.63457 13.5907 6.00184 12 6ZM14.1725 13.5198C14.2154 13.5627 14.2495 13.6135 14.2727 13.6696C14.296 13.7256 14.308 13.7856 14.308 13.8463C14.308 13.9069 14.2961 13.967 14.2729 14.023C14.2497 14.079 14.2157 14.1299 14.1728 14.1728C14.1299 14.2157 14.079 14.2497 14.023 14.2729C13.967 14.2961 13.9069 14.308 13.8463 14.308C13.7856 14.308 13.7256 14.296 13.6696 14.2727C13.6135 14.2495 13.5627 14.2154 13.5198 14.1725L12 12.6526L10.4802 14.1725C10.3936 14.2589 10.2763 14.3074 10.1539 14.3073C10.0316 14.3072 9.91436 14.2586 9.82787 14.1721C9.74139 14.0856 9.69277 13.9684 9.69271 13.8461C9.69264 13.7237 9.74113 13.6064 9.82753 13.5198L11.3474 12L9.82753 10.4802C9.74113 10.3936 9.69264 10.2763 9.69271 10.1539C9.69277 10.0316 9.74139 9.91436 9.82787 9.82787C9.91436 9.74138 10.0316 9.69277 10.1539 9.6927C10.2763 9.69264 10.3936 9.74113 10.4802 9.82752L12 11.3474L13.5198 9.82752C13.6064 9.74113 13.7237 9.69264 13.8461 9.6927C13.9684 9.69277 14.0856 9.74138 14.1721 9.82787C14.2586 9.91436 14.3072 10.0316 14.3073 10.1539C14.3074 10.2763 14.2589 10.3936 14.1725 10.4802L12.6526 12L14.1725 13.5198Z" fill="#5D6066"/>
</svg>
