<svg width="24" height="24" viewBox="0 0 24 24" fill="none" xmlns="http://www.w3.org/2000/svg">
<path fill-rule="evenodd" clip-rule="evenodd" d="M13.1335 3.84755C12.0154 3.30706 10.7339 3 9.37163 3C5.01683 3 1.48657 6.13801 1.48657 10.0089C1.48657 11.3709 1.92358 12.6421 2.67977 13.7178L1.91981 16.3777C1.73098 17.0386 2.34201 17.6496 3.0029 17.4608L6.38008 16.4959C6.80237 16.6499 7.24301 16.7723 7.6983 16.8597C8.23761 16.9633 8.79745 17.0179 9.37163 17.0179C9.50772 17.0179 9.643 17.0148 9.77739 17.0088C13.9436 16.821 17.2567 13.7589 17.2567 10.0089C17.2567 9.98763 17.2566 9.96634 17.2564 9.94508C14.8476 9.58592 13 7.50873 13 5C13 4.60337 13.0462 4.21753 13.1335 3.84755ZM19.4442 9.78825C19.4461 9.86154 19.447 9.9351 19.447 10.0089C19.447 15.1137 15.0572 18.8973 10.0022 19.1899C11.3016 20.0281 12.9 20.5223 14.6283 20.5223C15.6872 20.5223 16.6974 20.3368 17.6199 20.0004L20.9971 20.9652C21.6579 21.154 22.269 20.543 22.0802 19.8822L21.3202 17.2223C22.0764 16.1466 22.5134 14.8753 22.5134 13.5134C22.5134 11.8619 21.8708 10.3438 20.7958 9.14593C20.3847 9.4237 19.93 9.64193 19.4442 9.78825Z" fill="#5D6066"/>
<path d="M21 5C21 6.65685 19.6569 8 18 8C16.3431 8 15 6.65685 15 5C15 3.34315 16.3431 2 18 2C19.6569 2 21 3.34315 21 5Z" fill="#E76565"/>
</svg>
