<svg width="24" height="24" viewBox="0 0 24 24" fill="none" xmlns="http://www.w3.org/2000/svg">
<path fill-rule="evenodd" clip-rule="evenodd" d="M10.6415 18.2302H10.1967C6.62842 18.2302 3.59808 15.9273 2.51089 12.7266C2.37673 12.8054 2.22046 12.8506 2.05363 12.8506C1.55424 12.8506 1.14941 12.4458 1.14941 11.9464V8.32951C1.14941 7.83012 1.55424 7.42529 2.05363 7.42529C2.21515 7.42529 2.36678 7.46765 2.49801 7.54185C3.57399 4.32132 6.61424 2 10.1967 2H13.8034C17.3858 2 20.426 4.32127 21.502 7.54175C21.6332 7.46761 21.7848 7.42529 21.9462 7.42529C22.4456 7.42529 22.8504 7.83012 22.8504 8.32951V11.9464C22.8504 12.4458 22.4456 12.8506 21.9462 12.8506C21.7795 12.8506 21.6232 12.8054 21.4891 12.7267C21.2118 13.5431 20.8081 14.301 20.3013 14.9773C18.6402 17.7663 15.9109 20.1022 13.3652 21.8458C12.7793 22.2471 12.0001 21.8175 12.0001 21.1073L12.0001 18.2302H10.6438C10.6438 17.8952 10.7679 17.5738 10.9883 17.3269L10.983 17.3264C10.7455 17.5861 10.638 17.9097 10.6415 18.2302ZM9.28727 9.23372C9.78666 9.23372 10.1915 8.82889 10.1915 8.32951C10.1915 7.83012 9.78666 7.42529 9.28727 7.42529C8.78789 7.42529 8.38306 7.83012 8.38306 8.32951C8.38306 8.82889 8.78789 9.23372 9.28727 9.23372ZM14.7128 9.23372C15.2122 9.23372 15.617 8.82889 15.617 8.32951C15.617 7.83012 15.2122 7.42529 14.7128 7.42529C14.2134 7.42529 13.8086 7.83012 13.8086 8.32951C13.8086 8.82889 14.2134 9.23372 14.7128 9.23372ZM8.7861 11.4894C9.0384 11.2126 9.46733 11.1927 9.74413 11.445C10.1912 11.8526 11.0055 12.1723 11.9999 12.1723C12.9944 12.1723 13.8086 11.8526 14.2557 11.445C14.5326 11.1927 14.9615 11.2126 15.2138 11.4894C15.4661 11.7662 15.4462 12.1951 15.1694 12.4474C14.4165 13.1337 13.2481 13.5286 11.9999 13.5286C10.7518 13.5286 9.58339 13.1337 8.83046 12.4474C8.55365 12.1951 8.53379 11.7662 8.7861 11.4894Z" fill="#5D6066"/>
</svg>
