<svg width="24" height="24" viewBox="0 0 24 24" fill="none" xmlns="http://www.w3.org/2000/svg">
<path fill-rule="evenodd" clip-rule="evenodd" d="M7.18306 6.19526C7.42714 5.93491 7.82286 5.93491 8.06694 6.19526L12 10.3905L15.9331 6.19526C16.1771 5.93491 16.5729 5.93491 16.8169 6.19526C17.061 6.45561 17.061 6.87772 16.8169 7.13807L12.4419 11.8047C12.1979 12.0651 11.8021 12.0651 11.5581 11.8047L7.18306 7.13807C6.93898 6.87772 6.93898 6.45561 7.18306 6.19526Z" fill="#5D6066"/>
<path fill-rule="evenodd" clip-rule="evenodd" d="M7.18306 12.1953C7.42714 11.9349 7.82286 11.9349 8.06694 12.1953L12 16.3905L15.9331 12.1953C16.1771 11.9349 16.5729 11.9349 16.8169 12.1953C17.061 12.4556 17.061 12.8777 16.8169 13.1381L12.4419 17.8047C12.1979 18.0651 11.8021 18.0651 11.5581 17.8047L7.18306 13.1381C6.93898 12.8777 6.93898 12.4556 7.18306 12.1953Z" fill="#5D6066"/>
</svg>
