<svg width="24" height="24" viewBox="0 0 24 24" fill="none" xmlns="http://www.w3.org/2000/svg">
<path fill-rule="evenodd" clip-rule="evenodd" d="M16.8169 11.8047C16.5729 12.0651 16.1771 12.0651 15.9331 11.8047L12 7.60948L8.06694 11.8047C7.82286 12.0651 7.42714 12.0651 7.18306 11.8047C6.93898 11.5444 6.93898 11.1223 7.18306 10.8619L11.5581 6.19526C11.8021 5.93491 12.1979 5.93491 12.4419 6.19526L16.8169 10.8619C17.061 11.1223 17.061 11.5444 16.8169 11.8047Z" fill="#5D6066"/>
<path fill-rule="evenodd" clip-rule="evenodd" d="M16.8169 17.8047C16.5729 18.0651 16.1771 18.0651 15.9331 17.8047L12 13.6095L8.06694 17.8047C7.82286 18.0651 7.42714 18.0651 7.18306 17.8047C6.93898 17.5444 6.93898 17.1223 7.18306 16.8619L11.5581 12.1953C11.8021 11.9349 12.1979 11.9349 12.4419 12.1953L16.8169 16.8619C17.061 17.1223 17.061 17.5444 16.8169 17.8047Z" fill="#5D6066"/>
</svg>
