<svg width="24" height="24" viewBox="0 0 24 24" fill="none" xmlns="http://www.w3.org/2000/svg">
<path fill-rule="evenodd" clip-rule="evenodd" d="M15.9598 8.88852C16.1941 8.65421 16.1941 8.27431 15.9598 8.03999C15.7255 7.80568 15.3456 7.80568 15.1113 8.03999L11.9998 11.1514L8.88871 8.04032C8.65439 7.806 8.27449 7.806 8.04018 8.04032C7.80586 8.27463 7.80586 8.65453 8.04018 8.88885L11.1513 12L8.04019 15.1111C7.80588 15.3454 7.80588 15.7253 8.04019 15.9596C8.27451 16.1939 8.65441 16.1939 8.88872 15.9596L11.9998 12.8485L15.1112 15.9599C15.3456 16.1942 15.7255 16.1942 15.9598 15.9599C16.1941 15.7256 16.1941 15.3457 15.9598 15.1114L12.8483 12L15.9598 8.88852Z" fill="#5D6066"/>
</svg>
