<svg width="24" height="24" viewBox="0 0 24 24" fill="none" xmlns="http://www.w3.org/2000/svg">
<path fill-rule="evenodd" clip-rule="evenodd" d="M6.884 5.11612C6.39584 4.62796 5.60439 4.62796 5.11623 5.11612C4.62807 5.60427 4.62807 6.39573 5.11623 6.88388L10.6194 12.3871L5.11612 17.8904C4.62796 18.3786 4.62796 19.17 5.11612 19.6582C5.60427 20.1463 6.39573 20.1463 6.88388 19.6582L12.3872 14.1549L17.8904 19.6581C18.3786 20.1462 19.17 20.1462 19.6582 19.6581C20.1463 19.1699 20.1463 18.3785 19.6582 17.8903L14.155 12.3871L19.6581 6.88399C20.1462 6.39584 20.1462 5.60438 19.6581 5.11622C19.1699 4.62807 18.3785 4.62807 17.8903 5.11622L12.3872 10.6193L6.884 5.11612Z" fill="#5D6066"/>
</svg>
