<svg width="24" height="24" viewBox="0 0 24 24" fill="none" xmlns="http://www.w3.org/2000/svg">
<path fill-rule="evenodd" clip-rule="evenodd" d="M7.31625 5.8116C6.90078 5.39613 6.22717 5.39613 5.8117 5.8116C5.39623 6.22707 5.39623 6.90068 5.8117 7.31615L10.4955 12L5.8116 16.6838C5.39613 17.0993 5.39613 17.7729 5.8116 18.1884C6.22707 18.6039 6.90068 18.6039 7.31615 18.1884L12 13.5045L16.6838 18.1883C17.0993 18.6038 17.7729 18.6038 18.1884 18.1883C18.6039 17.7728 18.6039 17.0992 18.1884 16.6838L13.5046 12L18.1883 7.31624C18.6038 6.90078 18.6038 6.22716 18.1883 5.81169C17.7728 5.39622 17.0992 5.39622 16.6838 5.81169L12 10.4954L7.31625 5.8116Z" fill="#5D6066"/>
</svg>
