<svg width="24" height="24" viewBox="0 0 24 24" fill="none" xmlns="http://www.w3.org/2000/svg">
<path d="M20.2495 2.99939H8.24948C8.05057 2.9994 7.85981 3.07842 7.71916 3.21907C7.57851 3.35972 7.49949 3.55048 7.49948 3.74939V7.49948H3.74939C3.55048 7.49949 3.35972 7.57851 3.21907 7.71916C3.07842 7.85981 2.9994 8.05057 2.99939 8.24948V20.2495C2.9994 20.4484 3.07842 20.6392 3.21907 20.7798C3.35972 20.9205 3.55048 20.9995 3.74939 20.9995H15.7494C15.9483 20.9995 16.1391 20.9205 16.2797 20.7798C16.4204 20.6392 16.4994 20.4484 16.4994 20.2495V16.4994H20.2495C20.4484 16.4994 20.6392 16.4204 20.7798 16.2797C20.9205 16.1391 20.9995 15.9483 20.9995 15.7494V3.74939C20.9995 3.55048 20.9205 3.35972 20.7798 3.21907C20.6392 3.07842 20.4484 2.9994 20.2495 2.99939ZM19.4995 14.9994H16.4994V8.24948C16.4994 8.05057 16.4204 7.85981 16.2797 7.71916C16.1391 7.57851 15.9483 7.49949 15.7494 7.49948H8.99948V4.49939H19.4995V14.9994Z" fill="#5D6066"/>
</svg>
