<svg width="24" height="24" viewBox="0 0 24 24" fill="none" xmlns="http://www.w3.org/2000/svg">
<path fill-rule="evenodd" clip-rule="evenodd" d="M6 20.9333C3.79086 20.9333 2 19.1425 2 16.9333V15.9333C2 15.3811 2.46 14.9497 2.98189 14.769C4.15653 14.3623 5 13.2463 5 11.9333C5 10.6204 4.15653 9.5044 2.98189 9.09772C2.46 8.91703 2 8.48563 2 7.93335V6.93335C2 4.72421 3.79086 2.93335 6 2.93335H18C20.2091 2.93335 22 4.72421 22 6.93335V7.93335C22 8.48563 21.54 8.91703 21.0181 9.09772C19.8435 9.5044 19 10.6204 19 11.9333C19 13.2463 19.8435 14.3623 21.0181 14.769C21.54 14.9497 22 15.3811 22 15.9333V16.9333C22 19.1425 20.2091 20.9333 18 20.9333H6ZM13 13C13 12.4477 13.4477 12 14 12C14.5523 12 15 12.4477 15 13V18C15 18.5523 14.5523 19 14 19C13.4477 19 13 18.5523 13 18V13ZM14 5.00003C13.4477 5.00003 13 5.44775 13 6.00003V9.00003C13 9.55232 13.4477 10 14 10C14.5523 10 15 9.55232 15 9.00003V6.00003C15 5.44775 14.5523 5.00003 14 5.00003Z" fill="#5D6066"/>
</svg>
