<svg width="24" height="24" viewBox="0 0 24 24" fill="none" xmlns="http://www.w3.org/2000/svg">
<path d="M21 8.00002C21.5304 8.00002 22.0391 8.21074 22.4142 8.58581C22.7893 8.96088 23 9.46959 23 10V14C23 14.5305 22.7893 15.0392 22.4142 15.4142C22.0391 15.7893 21.5304 16 21 16H19.938C19.6942 17.9333 18.7533 19.7112 17.2917 21C16.0815 22.0672 14.5833 22.7383 12.9975 22.9376C12.4495 23.0065 12 22.5523 12 22C12 21.4477 12.4508 21.0085 12.9954 20.9169C14.2175 20.7113 15.3548 20.1305 16.2426 19.2427C17.3679 18.1174 18 16.5913 18 15V9.00002C18 7.40872 17.3679 5.8826 16.2426 4.75738C15.1174 3.63216 13.5913 3.00002 12 3.00002C10.4087 3.00002 8.88258 3.63216 7.75736 4.75738C6.63214 5.8826 6 7.40872 6 9.00002V16H3C2.46957 16 1.96086 15.7893 1.58579 15.4142C1.21071 15.0392 1 14.5305 1 14V10C1 9.46959 1.21071 8.96088 1.58579 8.58581C1.96086 8.21074 2.46957 8.00002 3 8.00002H4.062C4.30603 6.06692 5.24708 4.2893 6.70857 3.0007C8.17007 1.7121 10.0516 1.0011 12 1.0011C13.9484 1.0011 15.8299 1.7121 17.2914 3.0007C18.7529 4.2893 19.694 6.06692 19.938 8.00002H21ZM8.63754 16.261C8.13688 16.0288 7.99694 15.4059 8.28944 14.9379C8.58237 14.4692 9.19806 14.3359 9.70884 14.547C10.4323 14.8461 11.2107 15.0013 12 15C12.7893 15.0013 13.5677 14.8461 14.2912 14.547C14.8019 14.3359 15.4176 14.4692 15.7106 14.9379C16.0031 15.4059 15.8631 16.0288 15.3625 16.261C14.3126 16.7479 13.1653 17.0018 12 17C10.8347 17.0018 9.68743 16.7479 8.63754 16.261Z" fill="#5D6066"/>
</svg>
