<svg width="17" height="16" viewBox="0 0 17 16" fill="none" xmlns="http://www.w3.org/2000/svg">
<path d="M3.85938 10.5069C3.85938 9.79978 4.42601 9.22656 5.125 9.22656C5.82399 9.22656 6.39062 9.79978 6.39062 10.5069V13.9211C6.39062 14.6282 5.82399 15.2014 5.125 15.2014C4.42601 15.2014 3.85938 14.6282 3.85938 13.9211V10.5069Z" fill="#BCBEC2"/>
<path d="M10.6094 10.5069C10.6094 9.79978 11.176 9.22656 11.875 9.22656C12.574 9.22656 13.1406 9.79978 13.1406 10.5069V13.9211C13.1406 14.6282 12.574 15.2014 11.875 15.2014C11.176 15.2014 10.6094 14.6282 10.6094 13.9211V10.5069Z" fill="#BCBEC2"/>
<path fill-rule="evenodd" clip-rule="evenodd" d="M0.850586 8.23884C0.850586 3.9648 4.27561 0.5 8.50059 0.5C12.7256 0.5 16.1506 3.9648 16.1506 8.23884V12.9334C16.1506 13.4362 15.7476 13.8438 15.2506 13.8438C14.7535 13.8438 14.3506 13.4362 14.3506 12.9334V8.23884C14.3506 4.97045 11.7315 2.3209 8.50059 2.3209C5.26972 2.3209 2.65059 4.97045 2.65059 8.23884V12.9334C2.65059 13.4362 2.24764 13.8438 1.75059 13.8438C1.25353 13.8438 0.850586 13.4362 0.850586 12.9334V8.23884Z" fill="#D2D2D2"/>
</svg>
