<svg width="24" height="24" viewBox="0 0 24 24" fill="none" xmlns="http://www.w3.org/2000/svg">
<path fill-rule="evenodd" clip-rule="evenodd" d="M20.2871 5.24297C20.6761 5.24297 21 5.56596 21 5.97696V6.35696C21 6.75795 20.6761 7.09095 20.2871 7.09095H3.71385C3.32386 7.09095 3 6.75795 3 6.35696V5.97696C3 5.56596 3.32386 5.24297 3.71385 5.24297H6.62957C7.22185 5.24297 7.7373 4.82197 7.87054 4.22798L8.02323 3.54598C8.26054 2.61699 9.0415 2 9.93527 2H14.0647C14.9488 2 15.7385 2.61699 15.967 3.49699L16.1304 4.22698C16.2627 4.82197 16.7781 5.24297 17.3714 5.24297H20.2871ZM18.8059 19.1342C19.1103 16.2972 19.6432 9.55726 19.6432 9.48926C19.6627 9.28326 19.5956 9.08826 19.4623 8.93126C19.3194 8.78426 19.1385 8.69727 18.9391 8.69727H5.06855C4.8682 8.69727 4.67758 8.78426 4.54532 8.93126C4.41111 9.08826 4.34497 9.28326 4.3547 9.48926C4.35648 9.50175 4.37561 9.73916 4.40758 10.1361C4.54961 11.8993 4.9452 16.8103 5.20082 19.1342C5.38171 20.8461 6.50501 21.9221 8.13209 21.9611C9.38766 21.9901 10.6812 22.0001 12.0038 22.0001C13.2497 22.0001 14.515 21.9901 15.8094 21.9611C17.4929 21.9321 18.6152 20.8751 18.8059 19.1342ZM8.86095 16.879C8.51298 17.227 8.51298 17.7912 8.86095 18.1391C9.20891 18.4871 9.77308 18.4871 10.121 18.1391L12 16.2602L13.8789 18.1391C14.2269 18.487 14.791 18.487 15.139 18.1391C15.487 17.7911 15.487 17.227 15.139 16.879L13.2601 15.0001L15.139 13.1212C15.4869 12.7732 15.4869 12.2091 15.139 11.8611C14.791 11.5131 14.2268 11.5131 13.8789 11.8611L12 13.74L10.1211 11.8611C9.77312 11.5131 9.20896 11.5131 8.86099 11.8611C8.51303 12.209 8.51303 12.7732 8.86099 13.1212L10.7399 15.0001L8.86095 16.879Z" fill="#5D6066"/>
</svg>
