<svg width="24" height="24" viewBox="0 0 24 24" fill="none" xmlns="http://www.w3.org/2000/svg">
<path fill-rule="evenodd" clip-rule="evenodd" d="M15.5924 12.1814L21.2792 8.88743C21.6854 8.6511 21.7888 8.09718 21.4934 7.75006C21.2792 7.51372 21.0355 7.30692 20.777 7.1666L16.774 4.95093C15.9173 4.47087 14.5288 4.47087 13.6721 4.95093L9.66913 7.1666C9.41064 7.30692 9.16691 7.50633 8.95273 7.75006C8.64254 8.09718 8.74593 8.6511 9.15214 8.88743L14.839 12.1814C15.0754 12.3143 15.3634 12.3143 15.5924 12.1814ZM14.7947 18.592V13.5551C14.7947 13.2818 14.647 13.0307 14.4254 12.8904L9.11522 9.81059C8.613 9.52255 8 9.89183 8 10.4753V14.2862C8 15.3424 8.73856 16.6275 9.6396 17.1371C9.6396 17.1371 12.2024 18.5329 13.7238 19.2789C14.226 19.5226 14.7947 19.1533 14.7947 18.592ZM15.6367 13.5551V18.592C15.6367 19.1533 16.2054 19.5226 16.7076 19.2789C18.229 18.5329 20.7918 17.1371 20.7918 17.1371C21.6928 16.6275 22.4314 15.3424 22.4314 14.2862V10.4753C22.4314 9.89183 21.8184 9.52255 21.3162 9.81059L16.006 12.8904C15.7844 13.0307 15.6367 13.2818 15.6367 13.5551ZM3.94453 9.00002C3.42288 9.00002 3 9.4229 3 9.94454C3 10.4662 3.42288 10.8891 3.94453 10.8891H6.09295C6.61459 10.8891 7.03747 10.4662 7.03747 9.94454C7.03747 9.4229 6.61459 9.00002 6.09295 9.00002H3.94453ZM3.94453 15C3.42288 15 3 15.4229 3 15.9445C3 16.4662 3.42288 16.8891 3.94453 16.8891H6.09295C6.61459 16.8891 7.03747 16.4662 7.03747 15.9445C7.03747 15.4229 6.61459 15 6.09295 15H3.94453ZM1 12.9445C1 12.4229 1.42288 12 1.94453 12H5.09295C5.61459 12 6.03747 12.4229 6.03747 12.9445C6.03747 13.4662 5.61459 13.8891 5.09295 13.8891H1.94453C1.42288 13.8891 1 13.4662 1 12.9445Z" fill="#5D6066"/>
</svg>
