<svg width="24" height="24" viewBox="0 0 24 24" fill="none" xmlns="http://www.w3.org/2000/svg">
<path fill-rule="evenodd" clip-rule="evenodd" d="M17.0035 7.85446L10.5782 11.5761C10.3195 11.7263 9.9941 11.7263 9.72707 11.5761L3.30175 7.85446C2.84279 7.58743 2.72597 6.96159 3.07644 6.56939C3.31843 6.29402 3.59381 6.06872 3.88587 5.91017L8.40863 3.4068C9.3766 2.8644 10.9454 2.8644 11.9134 3.4068L16.4361 5.91017C16.7282 6.06872 17.0035 6.30237 17.2455 6.56939C17.5793 6.96159 17.4625 7.58743 17.0035 7.85446ZM9.67701 13.1282V18.8192C9.67701 19.4534 9.03448 19.8706 8.46705 19.5952C6.74806 18.7524 3.8525 17.1753 3.8525 17.1753C2.83446 16.5995 2 15.1476 2 13.9543V9.64849C2 8.98927 2.6926 8.57204 3.26003 8.89748L9.25978 12.3772C9.51012 12.5357 9.67701 12.8194 9.67701 13.1282ZM10.6283 18.8192V13.1282C10.6283 12.8194 10.7952 12.5357 11.0455 12.3772L17.0453 8.89748C17.6127 8.57204 18.3053 8.98927 18.3053 9.64849V11.7716C15.4383 11.8243 13.1304 14.1649 13.1304 17.0446C13.1304 17.6556 13.2343 18.2425 13.4254 18.7883C12.8639 19.0806 12.3073 19.3653 11.8383 19.5952C11.2708 19.8706 10.6283 19.4534 10.6283 18.8192ZM22.3598 17.0446C22.3598 19.2291 20.5889 21 18.4044 21C16.2199 21 14.449 19.2291 14.449 17.0446C14.449 14.86 16.2199 13.0891 18.4044 13.0891C20.5889 13.0891 22.3598 14.86 22.3598 17.0446ZM20.0693 15.645C20.2738 15.8086 20.3069 16.1069 20.1433 16.3114L18.5612 18.2891C18.375 18.5218 18.0279 18.541 17.8172 18.3303L16.7506 17.2637C16.5654 17.0785 16.5654 16.7784 16.7506 16.5932C16.9357 16.4081 17.2359 16.4081 17.421 16.5932L18.1336 17.3057L19.4029 15.719C19.5665 15.5146 19.8648 15.4814 20.0693 15.645Z" fill="#5D6066"/>
</svg>
