<svg width="24" height="24" viewBox="0 0 24 24" fill="none" xmlns="http://www.w3.org/2000/svg">
<circle cx="12" cy="12" r="8" fill="#FFCE8B"/>
<path d="M8.11111 14H14.2222C14.3696 14 14.5109 13.9473 14.6151 13.8536C14.7192 13.7598 14.7778 13.6326 14.7778 13.5C14.7778 13.3674 14.7192 13.2402 14.6151 13.1464C14.5109 13.0527 14.3696 13 14.2222 13H9.77778C9.04107 13 8.33453 12.7366 7.81359 12.2678C7.29266 11.7989 7 11.163 7 10.5C7 9.83696 7.29266 9.20107 7.81359 8.73223C8.33453 8.26339 9.04107 8 9.77778 8H10.8889V6H13.1111V8H15.8889V10H9.77778C9.63044 10 9.48913 10.0527 9.38494 10.1464C9.28075 10.2402 9.22222 10.3674 9.22222 10.5C9.22222 10.6326 9.28075 10.7598 9.38494 10.8536C9.48913 10.9473 9.63044 11 9.77778 11H14.2222C14.9589 11 15.6655 11.2634 16.1864 11.7322C16.7073 12.2011 17 12.837 17 13.5C17 14.163 16.7073 14.7989 16.1864 15.2678C15.6655 15.7366 14.9589 16 14.2222 16H13.1111V18H10.8889V16H8.11111V14Z" fill="#F3971A"/>
<path d="M12 22C6.477 22 2 17.523 2 12C2 6.477 6.477 2 12 2C17.523 2 22 6.477 22 12C22 17.523 17.523 22 12 22ZM12 20C14.1217 20 16.1566 19.1571 17.6569 17.6569C19.1571 16.1566 20 14.1217 20 12C20 9.87827 19.1571 7.84344 17.6569 6.34315C16.1566 4.84285 14.1217 4 12 4C9.87827 4 7.84344 4.84285 6.34315 6.34315C4.84285 7.84344 4 9.87827 4 12C4 14.1217 4.84285 16.1566 6.34315 17.6569C7.84344 19.1571 9.87827 20 12 20Z" fill="#FFCE8B"/>
</svg>
