<svg width="24" height="24" viewBox="0 0 24 24" fill="none" xmlns="http://www.w3.org/2000/svg">
<path fill-rule="evenodd" clip-rule="evenodd" d="M13.564 9.02088L13.5839 9.43633H16.6643L16.6458 8.98222C16.5723 7.17491 15.5082 5.49973 13.4362 4.85801V2.5636H9.56345V4.81744C7.66733 5.3336 6.06345 6.67384 6.06345 8.76996C6.06345 10.0686 6.61015 11.0552 7.53122 11.7909C8.43165 12.5102 9.68017 12.9838 11.098 13.3243C12.3189 13.6173 12.9822 13.9643 13.3384 14.2992C13.6707 14.6115 13.7635 14.939 13.7635 15.31C13.7635 15.555 13.6771 15.8762 13.3856 16.1403C13.0922 16.4061 12.5361 16.6636 11.4998 16.6636C10.5294 16.6636 9.92105 16.4465 9.5505 16.1512C9.18834 15.8626 9.00072 15.4575 8.9543 14.9595L8.91739 14.5636H5.85889L5.88411 15.0238C6.01106 17.3407 7.66893 18.666 9.56345 19.1737V21.4363H13.4362V19.2023C14.329 18.9868 15.1512 18.6056 15.7777 18.025C16.4969 17.3585 16.9362 16.4479 16.9362 15.3C16.9362 13.7287 16.2524 12.6524 15.2636 11.9076C14.2994 11.1815 13.0524 10.7747 11.9096 10.4776C10.7849 10.1853 10.1036 9.90185 9.70812 9.60919C9.51683 9.46764 9.40386 9.33206 9.33657 9.20254C9.26997 9.07434 9.23618 8.9292 9.23618 8.74996C9.23618 8.35716 9.41099 8.02366 9.76714 7.77311C10.1357 7.51381 10.714 7.33633 11.4998 7.33633C12.3259 7.33633 12.8115 7.5336 13.097 7.80018C13.3807 8.06499 13.5372 8.46387 13.564 9.02088ZM14.0002 8.99996C13.9449 7.84754 13.3795 7.03511 11.8967 6.91531C13.3793 7.03522 13.9445 7.84762 13.9998 8.99996H14.0002ZM10.0002 21V18.83C8.08018 18.42 6.44018 17.19 6.32018 15H8.51982C8.51982 15 8.51982 15 8.51982 15H6.31982C6.32803 15.1499 6.34337 15.2953 6.36544 15.4363C6.66569 17.3545 8.21127 18.448 9.99981 18.83V21H10.0002ZM11.0343 17.083C11.1819 17.0942 11.3369 17.1 11.4998 17.1C13.7098 17.1 14.1998 16 14.1998 15.31C14.1998 14.38 13.6998 13.5 11.1998 12.9C8.40981 12.23 6.49982 11.08 6.49982 8.76996C6.49982 6.83996 8.05981 5.57996 9.99981 5.15996V2.99996H12.9998V2.99999H10.0002V5.15999C8.06018 5.57999 6.50018 6.83999 6.50018 8.76999C6.50018 11.08 8.41018 12.23 11.2002 12.9C13.7002 13.5 14.2002 14.38 14.2002 15.31C14.2002 16 13.7102 17.1 11.5002 17.1C11.3372 17.1 11.182 17.0942 11.0343 17.083Z" fill="#5D6066"/>
</svg>
