<svg width="24" height="24" viewBox="0 0 24 24" fill="none" xmlns="http://www.w3.org/2000/svg">
<path fill-rule="evenodd" clip-rule="evenodd" d="M2 12C2 6.48 6.47 2 12 2C17.52 2 22 6.48 22 12C22 17.52 17.52 22 12 22C6.47 22 2 17.52 2 12ZM16.9609 9.35258C17.3002 8.97566 17.2756 8.39103 16.9048 8.04501C16.532 7.69706 15.9517 7.72308 15.6105 8.10208L10.3928 13.8976L8.38945 11.6723C8.04824 11.2933 7.46795 11.2673 7.09515 11.6153C6.72442 11.9613 6.69976 12.5459 7.0391 12.9228L9.71767 15.898C9.89046 16.09 10.1353 16.2001 10.3928 16.2001C10.6504 16.2001 10.8952 16.09 11.068 15.898L16.9609 9.35258Z" fill="#5D6066"/>
</svg>
