<svg width="24" height="24" viewBox="0 0 24 24" fill="none" xmlns="http://www.w3.org/2000/svg">
<path d="M12.0001 2C12.4205 2 12.7679 2.3078 12.8229 2.70716L12.8304 2.81818V17.2012L18.0813 12.0047C18.4049 11.6845 18.9306 11.6834 19.2555 12.0023C19.551 12.2921 19.5787 12.7466 19.3383 13.0674L19.2581 13.1593L12.5889 19.7593C12.3001 20.0452 11.8502 20.0766 11.526 19.8536C11.4806 19.8224 11.4386 19.787 11.4005 19.7478L4.74198 13.1594C4.41839 12.8392 4.41948 12.3212 4.74441 12.0023C5.0398 11.7124 5.50114 11.687 5.8257 11.9253L5.91866 12.0047L11.1698 17.1999V2.81818C11.1698 2.36631 11.5415 2 12.0001 2Z" fill="#5D6066"/>
<path d="M3 21.8303C3 21.41 3.3078 21.0626 3.70716 21.0076L3.81818 21L20.1818 21C20.6337 21 21 21.3718 21 21.8303C21 22.2507 20.6922 22.5981 20.2928 22.6531L20.1818 22.6606H3.81818C3.36631 22.6606 3 22.2889 3 21.8303Z" fill="#5D6066"/>
</svg>
