<svg width="24" height="24" viewBox="0 0 24 24" fill="none" xmlns="http://www.w3.org/2000/svg">
<g clip-path="url(#clip0_1_239580)">
<path d="M14.4719 12.6726C13.8105 12.6726 13.3391 13.0203 13.3391 13.5246V13.5472C13.3391 14.0179 13.7426 14.4328 14.4719 14.4328C15.2012 14.4328 15.6047 14.0179 15.6047 13.5472V13.5234C15.6043 13.0203 15.1336 12.6726 14.4719 12.6726Z" fill="#5D6066"/>
<path d="M14.4719 11.2602C15.0551 11.2602 15.4363 10.9012 15.4363 10.4083V10.3856C15.4363 9.94849 15.066 9.55591 14.4719 9.55591C13.8777 9.55591 13.5078 9.93716 13.5078 10.3743V10.3985C13.5078 10.8903 13.8891 11.2602 14.4719 11.2602Z" fill="#5D6066"/>
<path d="M12 2C6.47734 2 2 6.47734 2 12C2 17.5227 6.47734 22 12 22C17.5227 22 22 17.5227 22 12C22 6.47734 17.5227 2 12 2ZM10.1781 15.9238H8.03711V10.0492L6.71406 10.352L6.29922 8.67031L8.59766 8.01992H10.1781V15.9238ZM17.7008 13.7488C17.7008 15.1504 16.3555 16.0586 14.4719 16.0586C12.5883 16.0586 11.2434 15.1277 11.2434 13.7602V13.7379C11.2434 12.7848 11.7477 12.2145 12.5887 11.8543C11.9832 11.518 11.5121 11.0023 11.5121 10.15V10.1277C11.5121 8.87227 12.7117 7.94023 14.4719 7.94023C16.232 7.94023 17.4316 8.87109 17.4316 10.1277V10.15C17.4316 11.0023 16.9609 11.5172 16.3555 11.8543C17.1516 12.2242 17.7008 12.7527 17.7008 13.7266V13.7488Z" fill="#5D6066"/>
</g>
<defs>
<clipPath id="clip0_1_239580">
<rect width="20" height="20" fill="white" transform="translate(2 2)"/>
</clipPath>
</defs>
</svg>
