<svg width="24" height="24" viewBox="0 0 24 24" fill="none" xmlns="http://www.w3.org/2000/svg">
<path d="M7.45454 7.45633V16.5461C7.45454 16.7872 7.55032 17.0184 7.7208 17.1889C7.89129 17.3593 8.12252 17.4551 8.36363 17.4551C8.60473 17.4551 8.83596 17.3593 9.00645 17.1889C9.17694 17.0184 9.27272 16.7872 9.27272 16.5461V7.45633C9.27272 7.21526 9.17694 6.98406 9.00645 6.81359C8.83596 6.64312 8.60473 6.54736 8.36363 6.54736C8.12252 6.54736 7.89129 6.64312 7.7208 6.81359C7.55032 6.98406 7.45454 7.21526 7.45454 7.45633ZM20.7272 9.27429C20.6102 9.29814 20.4991 9.34481 20.4001 9.41163C20.3011 9.47845 20.2163 9.5641 20.1505 9.66371C20.0846 9.76331 20.039 9.87492 20.0163 9.99214C19.9936 10.1094 19.9942 10.2299 20.0181 10.3469C20.3731 12.0705 20.1627 13.8626 19.4183 15.4572C18.6738 17.0518 17.4349 18.3638 15.8856 19.1986C14.3362 20.0333 12.5589 20.3463 10.8175 20.091C9.07617 19.8357 7.46355 19.0258 6.21905 17.7815C4.97456 16.5371 4.16453 14.9247 3.90921 13.1835C3.65389 11.4424 3.96689 9.66531 4.80175 8.11613C5.63661 6.56695 6.94882 5.32823 8.5436 4.58386C10.1384 3.83948 11.9307 3.62913 13.6545 3.98404C13.8956 4.03225 14.146 3.98272 14.3506 3.84635C14.5552 3.70998 14.6972 3.49793 14.7454 3.25685C14.7937 3.01578 14.7441 2.76542 14.6077 2.56086C14.4713 2.3563 14.2593 2.21429 14.0182 2.16608C13.3529 2.04214 12.6765 1.98731 12 2.00246C10.0222 2.00246 8.08878 2.58888 6.44429 3.68756C4.7998 4.78624 3.51808 6.34783 2.76121 8.17487C2.00433 10.0019 1.8063 12.0123 2.19215 13.9519C2.578 15.8915 3.53041 17.6731 4.92893 19.0714C6.32745 20.4698 8.10928 21.4221 10.0491 21.8079C11.9889 22.1937 13.9996 21.9957 15.8268 21.2389C17.6541 20.4821 19.2158 19.2005 20.3147 17.5562C21.4135 15.912 22 13.9788 22 12.0012C22.0019 11.3296 21.9349 10.6595 21.8 10.0015C21.7782 9.88285 21.733 9.76974 21.6671 9.66874C21.6012 9.56774 21.5158 9.48087 21.4159 9.41319C21.3161 9.34551 21.2038 9.29838 21.0856 9.27453C20.9673 9.25068 20.8455 9.2506 20.7272 9.27429ZM11.0909 9.27429V10.1833C11.0949 10.856 11.3474 11.5034 11.8 12.0012C11.3474 12.499 11.0949 13.1465 11.0909 13.8192V14.7282C11.0909 15.4514 11.3782 16.145 11.8897 16.6564C12.4012 17.1678 13.0948 17.4551 13.8182 17.4551H14.7272C15.4506 17.4551 16.1443 17.1678 16.6557 16.6564C17.1672 16.145 17.4545 15.4514 17.4545 14.7282V13.8192C17.4505 13.1465 17.198 12.499 16.7454 12.0012C17.198 11.5034 17.4505 10.856 17.4545 10.1833V9.27429C17.4545 8.55106 17.1672 7.85746 16.6557 7.34606C16.1443 6.83466 15.4506 6.54736 14.7272 6.54736H13.8182C13.0948 6.54736 12.4012 6.83466 11.8897 7.34606C11.3782 7.85746 11.0909 8.55106 11.0909 9.27429ZM15.6363 14.7282C15.6363 14.9692 15.5406 15.2004 15.3701 15.3709C15.1996 15.5414 14.9684 15.6371 14.7272 15.6371H13.8182C13.5771 15.6371 13.3458 15.5414 13.1753 15.3709C13.0048 15.2004 12.9091 14.9692 12.9091 14.7282V13.8192C12.9091 13.5781 13.0048 13.3469 13.1753 13.1764C13.3458 13.006 13.5771 12.9102 13.8182 12.9102H14.7272C14.9684 12.9102 15.1996 13.006 15.3701 13.1764C15.5406 13.3469 15.6363 13.5781 15.6363 13.8192V14.7282ZM15.6363 9.27429V10.1833C15.6363 10.4243 15.5406 10.6556 15.3701 10.826C15.1996 10.9965 14.9684 11.0922 14.7272 11.0922H13.8182C13.5771 11.0922 13.3458 10.9965 13.1753 10.826C13.0048 10.6556 12.9091 10.4243 12.9091 10.1833V9.27429C12.9091 9.03322 13.0048 8.80201 13.1753 8.63155C13.3458 8.46108 13.5771 8.36531 13.8182 8.36531H14.7272C14.9684 8.36531 15.1996 8.46108 15.3701 8.63155C15.5406 8.80201 15.6363 9.03322 15.6363 9.27429Z" fill="#5D6066"/>
<path fill-rule="evenodd" clip-rule="evenodd" d="M23.7071 2.29288C24.0976 2.68339 24.0977 3.31656 23.7071 3.70709L20.2073 7.20709C19.8168 7.59763 19.1836 7.59764 18.7931 7.20711L16.2931 4.70711C15.9026 4.31658 15.9026 3.68342 16.2931 3.29289C16.6836 2.90237 17.3168 2.90237 17.7073 3.29289L19.5002 5.08577L22.2929 2.29291C22.6834 1.90238 23.3166 1.90236 23.7071 2.29288Z" fill="#5D6066"/>
</svg>
