<svg width="24" height="24" viewBox="0 0 24 24" fill="none" xmlns="http://www.w3.org/2000/svg">
<path fill-rule="evenodd" clip-rule="evenodd" d="M3.76786 3.00003C3.27971 2.51187 2.48825 2.51187 2.00009 3.00003C1.51194 3.48818 1.51194 4.27964 2.00009 4.76779L4.4496 7.2173C2.91432 8.68249 1.90453 10.2935 1.39435 11.2219C1.12571 11.7108 1.12571 12.2893 1.39435 12.7782C2.49915 14.7886 5.94677 20 12.0001 20C13.6109 20 15.0371 19.631 16.2838 19.0515L19.2323 22C19.7205 22.4882 20.5119 22.4882 21.0001 22C21.4883 21.5119 21.4883 20.7204 21.0001 20.2323L3.76786 3.00003ZM12.6686 15.4363L8.56386 11.3316C8.52201 11.5479 8.5001 11.7714 8.5001 12C8.5001 13.933 10.0671 15.5 12.0001 15.5C12.2287 15.5 12.4522 15.4781 12.6686 15.4363Z" fill="#5D6066"/>
<path d="M12.9276 8.62424C14.1151 8.94975 15.0504 9.88507 15.3759 11.0725L20.3082 16.0049C21.4239 14.7748 22.1849 13.5442 22.6058 12.7782C22.8745 12.2893 22.8745 11.7108 22.6058 11.2219C21.501 9.21144 18.0534 4.00003 12.0001 4.00003C10.844 4.00003 9.7829 4.19012 8.81505 4.51171L12.9276 8.62424Z" fill="#5D6066"/>
</svg>
