<svg width="114" height="23" viewBox="0 0 114 23" fill="none" xmlns="http://www.w3.org/2000/svg">
<path d="M0.00852269 22V1.63636H13.054V4.72869H3.69744V10.2571H12.1591V13.3494H3.69744V22H0.00852269ZM16.0877 22V6.72727H19.6871V22H16.0877ZM17.8973 4.55966C17.3273 4.55966 16.8367 4.37074 16.4258 3.9929C16.0148 3.60843 15.8093 3.14773 15.8093 2.61079C15.8093 2.06723 16.0148 1.60653 16.4258 1.22869C16.8367 0.844223 17.3273 0.651988 17.8973 0.651988C18.474 0.651988 18.9646 0.844223 19.3689 1.22869C19.7799 1.60653 19.9854 2.06723 19.9854 2.61079C19.9854 3.14773 19.7799 3.60843 19.3689 3.9929C18.9646 4.37074 18.474 4.55966 17.8973 4.55966ZM26.8199 1.63636V22H23.2205V1.63636H26.8199ZM33.9527 1.63636V22H30.3532V1.63636H33.9527ZM48.1113 1.63636V22H44.4224V1.63636H48.1113ZM58.4409 22.2983C56.9162 22.2983 55.6071 21.9635 54.5133 21.294C53.4262 20.6245 52.5876 19.6998 51.9977 18.5199C51.4143 17.3333 51.1227 15.9678 51.1227 14.4233C51.1227 12.8722 51.421 11.5033 52.0176 10.3168C52.6142 9.12358 53.456 8.19555 54.5431 7.53267C55.6369 6.86316 56.9295 6.52841 58.421 6.52841C59.6606 6.52841 60.7576 6.7571 61.7122 7.21449C62.6733 7.66525 63.439 8.30492 64.009 9.13352C64.5791 9.95549 64.9039 10.9167 64.9835 12.017H61.5431C61.4039 11.2812 61.0725 10.6681 60.5488 10.1776C60.0318 9.6804 59.3391 9.43182 58.4707 9.43182C57.7349 9.43182 57.0886 9.63068 56.5318 10.0284C55.975 10.4195 55.5408 10.983 55.2292 11.7188C54.9243 12.4545 54.7718 13.3362 54.7718 14.3636C54.7718 15.4044 54.9243 16.2992 55.2292 17.0483C55.5341 17.7907 55.9617 18.3641 56.5119 18.7685C57.0687 19.1662 57.7216 19.3651 58.4707 19.3651C59.001 19.3651 59.475 19.2656 59.8926 19.0668C60.3168 18.8613 60.6715 18.5663 60.9565 18.1818C61.2415 17.7973 61.4371 17.33 61.5431 16.7798H64.9835C64.8973 17.8603 64.5791 18.8182 64.0289 19.6534C63.4787 20.482 62.7297 21.1316 61.7818 21.6023C60.8339 22.0663 59.7202 22.2983 58.4409 22.2983ZM74.433 22.2983C72.9415 22.2983 71.6489 21.9702 70.5552 21.3139C69.4614 20.6577 68.6129 19.7396 68.0097 18.5597C67.4131 17.3797 67.1148 16.0009 67.1148 14.4233C67.1148 12.8456 67.4131 11.4635 68.0097 10.277C68.6129 9.09043 69.4614 8.16903 70.5552 7.51278C71.6489 6.85653 72.9415 6.52841 74.433 6.52841C75.9245 6.52841 77.2171 6.85653 78.3109 7.51278C79.4046 8.16903 80.2498 9.09043 80.8464 10.277C81.4496 11.4635 81.7512 12.8456 81.7512 14.4233C81.7512 16.0009 81.4496 17.3797 80.8464 18.5597C80.2498 19.7396 79.4046 20.6577 78.3109 21.3139C77.2171 21.9702 75.9245 22.2983 74.433 22.2983ZM74.4529 19.4148C75.2616 19.4148 75.9378 19.1927 76.4813 18.7486C77.0249 18.2978 77.4292 17.6946 77.6944 16.9389C77.9662 16.1832 78.1021 15.3414 78.1021 14.4134C78.1021 13.4787 77.9662 12.6335 77.6944 11.8778C77.4292 11.1155 77.0249 10.509 76.4813 10.0582C75.9378 9.60748 75.2616 9.3821 74.4529 9.3821C73.6243 9.3821 72.9349 9.60748 72.3847 10.0582C71.8412 10.509 71.4335 11.1155 71.1617 11.8778C70.8966 12.6335 70.764 13.4787 70.764 14.4134C70.764 15.3414 70.8966 16.1832 71.1617 16.9389C71.4335 17.6946 71.8412 18.2978 72.3847 18.7486C72.9349 19.1927 73.6243 19.4148 74.4529 19.4148ZM88.2377 13.0511V22H84.6382V6.72727H88.0786V9.32244H88.2576C88.6089 8.46733 89.169 7.78788 89.938 7.28409C90.7135 6.7803 91.6714 6.52841 92.8115 6.52841C93.8655 6.52841 94.7836 6.75379 95.5658 7.20454C96.3546 7.6553 96.9645 8.30824 97.3953 9.16335C97.8328 10.0185 98.0483 11.0559 98.0417 12.2756V22H94.4422V12.8324C94.4422 11.8116 94.1771 11.0128 93.6468 10.4361C93.1231 9.85937 92.3972 9.57102 91.4692 9.57102C90.8395 9.57102 90.2793 9.71023 89.7888 9.98864C89.3049 10.2604 88.9238 10.6548 88.6453 11.1719C88.3736 11.6889 88.2377 12.3153 88.2377 13.0511ZM113.604 10.7642L110.323 11.1222C110.23 10.7907 110.067 10.4792 109.835 10.1875C109.61 9.89583 109.305 9.66051 108.921 9.48153C108.536 9.30256 108.065 9.21307 107.509 9.21307C106.76 9.21307 106.13 9.37547 105.619 9.70028C105.116 10.0251 104.867 10.446 104.874 10.9631C104.867 11.4072 105.029 11.7685 105.361 12.0469C105.699 12.3253 106.256 12.554 107.031 12.733L109.636 13.2898C111.082 13.6013 112.155 14.0952 112.858 14.7713C113.567 15.4474 113.925 16.3324 113.932 17.4261C113.925 18.3873 113.644 19.2358 113.087 19.9716C112.537 20.7008 111.771 21.2708 110.79 21.6818C109.809 22.0928 108.682 22.2983 107.409 22.2983C105.54 22.2983 104.035 21.9072 102.895 21.125C101.755 20.3362 101.075 19.2391 100.857 17.8338L104.367 17.4957C104.526 18.1851 104.864 18.7055 105.381 19.0568C105.898 19.4081 106.571 19.5838 107.399 19.5838C108.254 19.5838 108.94 19.4081 109.457 19.0568C109.981 18.7055 110.243 18.2713 110.243 17.7543C110.243 17.3168 110.074 16.9555 109.736 16.6705C109.404 16.3854 108.887 16.1667 108.185 16.0142L105.58 15.4673C104.115 15.1624 103.031 14.6487 102.328 13.9261C101.626 13.197 101.278 12.2756 101.284 11.1619C101.278 10.2206 101.533 9.4053 102.05 8.71591C102.573 8.01989 103.299 7.48295 104.227 7.10511C105.162 6.72064 106.239 6.52841 107.459 6.52841C109.249 6.52841 110.657 6.90956 111.685 7.67188C112.719 8.43419 113.359 9.46496 113.604 10.7642Z" fill="black"/>
</svg>
