<svg width="24" height="24" viewBox="0 0 24 24" fill="none" xmlns="http://www.w3.org/2000/svg">
<path d="M20.4796 11.0991C20.4505 10.9817 20.3914 10.8729 20.3075 10.7824C20.2237 10.6918 20.1175 10.6223 19.9986 10.58L14.432 8.59896L15.8486 1.87713C15.8816 1.72068 15.8599 1.55829 15.7868 1.4146C15.7137 1.27091 15.5933 1.15375 15.4437 1.0809C15.2941 1.00805 15.1236 0.983487 14.958 1.01093C14.7924 1.03837 14.6407 1.11632 14.526 1.23296L3.70782 12.2329C3.62114 12.3211 3.55869 12.4281 3.52601 12.5447C3.49333 12.6612 3.49142 12.7835 3.52045 12.9009C3.54948 13.0183 3.60856 13.127 3.69245 13.2176C3.77634 13.3081 3.88246 13.3776 4.00142 13.42L9.56797 15.401L8.15137 22.1228C8.11839 22.2793 8.14008 22.4417 8.21315 22.5854C8.28622 22.7291 8.40668 22.8462 8.55627 22.9191C8.70585 22.992 8.87639 23.0165 9.04202 22.9891C9.20765 22.9616 9.35932 22.8836 9.47403 22.767L20.2922 11.767C20.3789 11.6789 20.4413 11.5718 20.474 11.4553C20.5067 11.3388 20.5086 11.2164 20.4796 11.0991Z" fill="#5D6066"/>
</svg>
