<svg width="24" height="24" viewBox="0 0 24 24" fill="none" xmlns="http://www.w3.org/2000/svg">
<path fill-rule="evenodd" clip-rule="evenodd" d="M12.8123 2.63031C13.6459 1.7899 15.0996 1.79147 15.9347 2.63031C16.3527 3.04855 16.5823 3.60751 16.5823 4.20106C16.5823 4.79461 16.3519 5.352 15.9347 5.77182C15.8339 5.87302 15.6973 5.97168 15.5352 6.06689H20.54C21.3399 6.06689 21.9984 6.72963 21.9992 7.53466V10.4694C21.9992 11.2744 21.3407 11.9372 20.5407 11.9372H20.3322H19.7072H19.0823H12.6242H11.3743H4.91696H4.29201H3.66706H3.45848C2.65854 11.9372 2 11.2744 2 10.4694V7.53466C2 6.72963 2.65854 6.06689 3.45848 6.06689H8.46144C8.29932 5.97168 8.1627 5.87302 8.06191 5.77182C7.64398 5.35358 7.41431 4.79461 7.41431 4.20106C7.41431 3.60751 7.64476 3.04933 8.06191 2.63031C8.897 1.7899 10.3508 1.7899 11.1843 2.63031C11.4882 2.93612 11.7655 3.57292 11.9983 4.24823C12.2311 3.57134 12.5084 2.93612 12.8123 2.63031ZM8.66577 4.20106C8.66577 4.45735 8.76576 4.70027 8.947 4.88267C9.16651 5.10436 10.1258 5.44792 11.1429 5.72779C10.864 4.70421 10.5219 3.73958 10.3016 3.51789C10.1203 3.33707 9.87896 3.23644 9.62429 3.23644C9.36806 3.23644 9.12824 3.33707 8.947 3.51946C8.7642 3.70185 8.66577 3.94477 8.66577 4.20106ZM12.8553 5.72779C13.8724 5.44713 14.8309 5.10436 15.0512 4.88267C15.2324 4.70027 15.3324 4.45892 15.3324 4.20106C15.3324 3.9432 15.2324 3.70185 15.0512 3.51946C14.87 3.33707 14.6301 3.23644 14.3739 3.23644C14.1177 3.23644 13.8779 3.3355 13.6966 3.51789C13.4756 3.74037 13.1342 4.70499 12.8553 5.72779ZM3.66626 13.1946H4.29121V13.1938H4.91616H11.3743V20.741V21.3699V21.9989H5.95749C4.69118 21.9989 3.66626 20.9674 3.66626 19.6931V13.1946ZM19.0824 13.1948H12.6243V20.742V21.3709V21.9999H18.0403C19.3066 21.9999 20.3315 20.9684 20.3315 19.694V13.1948H19.7065H19.0824Z" fill="#5D6066"/>
</svg>
