<svg width="24" height="24" viewBox="0 0 24 24" fill="none" xmlns="http://www.w3.org/2000/svg">
<path d="M7 2H10C10.5523 2 11 2.44772 11 3V10C11 10.5523 10.5523 11 10 11H3C2.44772 11 2 10.5523 2 10V7C2 4.23858 4.23858 2 7 2Z" fill="#5D6066"/>
<path d="M3 13C2.44772 13 2 13.4477 2 14V17C2 19.7614 4.23858 22 7 22H10C10.5523 22 11 21.5523 11 21V14C11 13.4477 10.5523 13 10 13H3Z" fill="#5D6066"/>
<path d="M14 13C13.4477 13 13 13.4477 13 14V21C13 21.5523 13.4477 22 14 22H17C19.7614 22 22 19.7614 22 17V14C22 13.4477 21.5523 13 21 13H14Z" fill="#5D6066"/>
<path d="M21 11C21.5523 11 22 10.5523 22 10V7C22 4.23858 19.7614 2 17 2H14C13.4477 2 13 2.44772 13 3V10C13 10.5523 13.4477 11 14 11H21Z" fill="#5D6066"/>
</svg>
