<svg width="24" height="24" viewBox="0 0 24 24" fill="none" xmlns="http://www.w3.org/2000/svg">
<g clip-path="url(#clip0_1_239614)">
<path d="M14.7157 20.0891V15.4639C14.2639 15.4577 13.8272 15.3594 13.4266 15.1779V19.08L8.75431 15.965L8.3596 16.5291C8.24251 16.6959 8.11283 16.8505 7.97327 16.9936L13.6064 20.7491L14.9156 22.7129C15.0398 22.8993 15.2442 23.0001 15.4525 23.0001C15.5753 23.0001 15.6996 22.965 15.8094 22.8917C16.1056 22.6943 16.1857 22.2941 15.9882 21.9979L14.7157 20.0891Z" fill="#5D6066"/>
<path d="M15.406 1.36158V3.02529C15.406 3.38124 15.1174 3.66982 14.7615 3.66982C14.4055 3.66982 14.1169 3.38124 14.1169 3.02529V1.09853C13.6506 1.03407 13.1745 1 12.6904 1H12.6445V3.02529C12.6445 3.38124 12.356 3.66982 12 3.66982C11.644 3.66982 11.3555 3.38124 11.3555 3.02529V1H9.92822C9.91314 1 9.89814 1.00047 9.8831 1.00056V3.02525C9.8831 3.3812 9.59452 3.66978 9.23857 3.66978C8.88262 3.66978 8.59404 3.3812 8.59404 3.02525V1.09947C4.29686 1.74452 1 5.45629 1 9.92822V12.778C1 13.8037 1.50952 14.7557 2.36297 15.3247L3.99496 16.4127C4.17152 16.5304 4.83904 16.9519 5.77606 16.7755C6.03534 16.7267 6.77161 16.5474 7.30339 15.7899L8.53526 14.0295C9.0752 13.2583 9.9228 12.7689 10.8609 12.6869C11.7983 12.6047 12.7182 12.9393 13.3841 13.6051L13.3875 13.6086C13.755 13.9745 14.2427 14.1759 14.7615 14.1759C15.2817 14.1759 15.7707 13.9733 16.1385 13.6055L17.5741 12.1699C17.7133 12.0308 17.8982 11.9542 18.0949 11.9542H22.3555C22.7114 11.9542 23 11.6656 23 11.3096C23 6.54894 19.7827 2.55169 15.406 1.36158Z" fill="#5D6066"/>
</g>
<defs>
<clipPath id="clip0_1_239614">
<rect width="22" height="22" fill="white" transform="translate(1 1)"/>
</clipPath>
</defs>
</svg>
