<svg width="24" height="24" viewBox="0 0 24 24" fill="none" xmlns="http://www.w3.org/2000/svg">
<path fill-rule="evenodd" clip-rule="evenodd" d="M2.0999 4.8C2.09992 2.92225 3.62214 1.40002 5.4999 1.40002H16.3002C18.1779 1.40002 19.7002 2.92226 19.7002 4.80002V11.4C19.7002 11.9523 19.2525 12.4 18.7002 12.4C18.1479 12.4 17.7002 11.9523 17.7002 11.4V4.80002C17.7002 4.02683 17.0734 3.40002 16.3002 3.40002H5.4999C4.72671 3.40002 4.09991 4.02682 4.0999 4.80002L4.09981 19.2C4.09981 19.9732 4.72661 20.6 5.49981 20.6H10.2998C10.8521 20.6 11.2998 21.0477 11.2998 21.6C11.2998 22.1523 10.8521 22.6 10.2998 22.6H5.4998C3.62203 22.6 2.0998 21.0777 2.09981 19.1999L2.0999 4.8ZM6.30019 7.20002C6.30019 6.64774 6.7479 6.20002 7.30019 6.20002H14.5002C15.0525 6.20002 15.5002 6.64774 15.5002 7.20002C15.5002 7.75231 15.0525 8.20002 14.5002 8.20002H7.30019C6.7479 8.20002 6.30019 7.75231 6.30019 7.20002ZM6.30019 10.8C6.30019 10.2477 6.7479 9.80002 7.30019 9.80002H14.5002C15.0525 9.80002 15.5002 10.2477 15.5002 10.8C15.5002 11.3523 15.0525 11.8 14.5002 11.8H7.30019C6.7479 11.8 6.30019 11.3523 6.30019 10.8ZM6.30019 14.4C6.30019 13.8477 6.7479 13.4 7.30019 13.4H10.9002C11.4525 13.4 11.9002 13.8477 11.9002 14.4C11.9002 14.9523 11.4525 15.4 10.9002 15.4H7.30019C6.7479 15.4 6.30019 14.9523 6.30019 14.4ZM21.6073 14.8927C21.9978 15.2832 21.9978 15.9164 21.6073 16.3069L16.8073 21.1071C16.6198 21.2947 16.3654 21.4 16.1002 21.4C15.835 21.4 15.5806 21.2947 15.3931 21.1071L13.1931 18.9071C12.8026 18.5166 12.8026 17.8834 13.1931 17.4929C13.5836 17.1024 14.2168 17.1024 14.6073 17.4929L16.1002 18.9858L20.1931 14.8927C20.5836 14.5022 21.2167 14.5022 21.6073 14.8927Z" fill="#5D6066"/>
</svg>
