<svg width="24" height="24" viewBox="0 0 24 24" fill="none" xmlns="http://www.w3.org/2000/svg">
<path fill-rule="evenodd" clip-rule="evenodd" d="M16.2978 22.5L16.2802 22.4999H13V17.5C13 16.9477 12.5523 16.5 12 16.5C11.4477 16.5 11 16.9477 11 17.5V22.4999H7.67288L7.65504 22.5H5.63808C3.62882 22.5 2 20.887 2 18.8974V9.7602C2.01848 8.97667 2.39236 8.24305 3.01791 7.7629L9.87936 2.28433C11.0643 1.26743 12.8144 1.23599 14.0358 2.20966L21.0575 7.7629C21.6548 8.25763 22 8.98908 22 9.7602V18.9067C22 19.8613 21.6164 20.7767 20.9339 21.4508C20.2513 22.125 19.3259 22.5025 18.3619 22.5H16.2978ZM11 22.4999V22.5H13V22.4999H11Z" fill="#5D6066"/>
</svg>
