<svg width="24" height="24" viewBox="0 0 24 24" fill="none" xmlns="http://www.w3.org/2000/svg">
<g clip-path="url(#clip0_1_239630)">
<path d="M20.8276 12.6435L16.8413 13.7151L15.3048 12.8254V11.1557L16.8238 10.2802L20.8275 11.357C20.908 11.3786 20.9889 11.3892 21.069 11.3892C21.4803 11.3892 21.8566 11.1135 21.9678 10.6959C22.1009 10.1969 21.8062 9.68399 21.3091 9.55044L19.1141 8.96011L21.1375 7.79403C21.5835 7.5369 21.7379 6.96533 21.4817 6.51748C21.2246 6.06962 20.6563 5.91447 20.2101 6.17221L18.1826 7.34104L18.7705 5.13706C18.9036 4.63816 18.6092 4.12519 18.1119 3.99164C17.6178 3.86156 17.1048 4.15416 16.9716 4.65274L15.9032 8.65426L14.3747 9.53538L12.9257 8.69443V6.9299L15.8559 3.9887C16.2196 3.62339 16.2196 3.03168 15.8559 2.66632C15.492 2.30105 14.9027 2.30105 14.5386 2.66632L12.9257 4.28524V1.93503C12.9257 1.41869 12.5085 1 11.9941 1C11.4797 1 11.0626 1.41865 11.0626 1.93503V4.27365L9.46142 2.66632C9.09753 2.30105 8.50804 2.30105 8.14406 2.66632C7.78016 3.03163 7.78016 3.62334 8.14406 3.9887L11.0626 6.91817V8.70123L9.62455 9.53396L8.09603 8.65364L7.02844 4.65278C6.89544 4.15421 6.38483 3.8608 5.88818 3.99169C5.3911 4.12524 5.0961 4.6382 5.22928 5.13711L5.81721 7.34071L3.78971 6.17221C3.34274 5.91442 2.77379 6.06924 2.51801 6.51771C2.26199 6.96566 2.41638 7.53685 2.8625 7.79398L4.88574 8.96006L2.69075 9.55039C2.19363 9.68394 1.89872 10.1968 2.03186 10.6959C2.14328 11.1135 2.51952 11.3892 2.93082 11.3892C3.01093 11.3892 3.09183 11.3785 3.17255 11.357L7.17682 10.2797L8.69413 11.1542L8.69569 12.8253L7.15865 13.7167L3.17255 12.6434C2.67892 12.5134 2.16519 12.8063 2.03186 13.3047C1.89872 13.8036 2.19363 14.3166 2.69075 14.4494L4.87769 15.0382L2.86018 16.2073C2.41482 16.4657 2.26199 17.037 2.51957 17.4841C2.69212 17.785 3.00515 17.9517 3.32675 17.9517C3.48463 17.9517 3.64488 17.9122 3.7917 17.826L5.81943 16.6514L5.22928 18.8635C5.0961 19.3632 5.3911 19.8746 5.88818 20.0089C5.96866 20.0308 6.04952 20.0412 6.12967 20.0412C6.54078 20.0412 6.91702 19.7651 7.02844 19.3472L8.10133 15.3291L9.6273 14.4453L11.0626 15.2766V17.0825L8.14406 20.0121C7.78016 20.3773 7.78016 20.9689 8.14406 21.3343C8.32603 21.517 8.56397 21.6075 8.80271 21.6075C9.04065 21.6075 9.27945 21.517 9.46142 21.3343L11.0626 19.7271V22.0649C11.0626 22.5822 11.4797 23 11.9941 23C12.5085 23 12.9257 22.5821 12.9257 22.0649V19.7154L14.5386 21.3343C14.7205 21.517 14.9585 21.6075 15.1973 21.6075C15.4361 21.6075 15.674 21.517 15.8559 21.3343C16.2197 20.969 16.2197 20.3774 15.8559 20.0121L12.9257 17.0708V15.2838L14.3733 14.4452L15.8989 15.329L16.9717 19.3471C17.083 19.765 17.4593 20.0411 17.8703 20.0411C17.9502 20.0411 18.0313 20.0307 18.112 20.0088C18.6093 19.8745 18.9036 19.3631 18.7706 18.8634L18.1798 16.6513L20.2083 17.8259C20.3552 17.912 20.5154 17.9516 20.6733 17.9516C20.9949 17.9516 21.3078 17.785 21.4804 17.484C21.738 17.037 21.5852 16.4657 21.1398 16.2072L19.1223 15.0383L21.3092 14.4495C21.8063 14.3166 22.1011 13.8036 21.9679 13.3048C21.8355 12.8063 21.3239 12.5128 20.8276 12.6435ZM13.4417 12.8254L11.9999 13.6612L10.5592 12.8253L10.5576 11.1527L11.9999 10.3174L13.4417 11.1539V12.8254Z" fill="#5D6066"/>
</g>
<defs>
<clipPath id="clip0_1_239630">
<rect width="24" height="24" fill="white"/>
</clipPath>
</defs>
</svg>
