<svg width="24" height="24" viewBox="0 0 24 24" fill="none" xmlns="http://www.w3.org/2000/svg">
<path d="M12 3C10.22 3 8.47991 3.52784 6.99987 4.51677C5.51983 5.50571 4.36628 6.91131 3.68509 8.55585C3.0039 10.2004 2.82567 12.01 3.17294 13.7558C3.5202 15.5016 4.37737 17.1053 5.63604 18.364C6.89471 19.6226 8.49836 20.4798 10.2442 20.8271C11.99 21.1743 13.7996 20.9961 15.4442 20.3149C17.0887 19.6337 18.4943 18.4802 19.4832 17.0001C20.4722 15.5201 21 13.78 21 12C20.9972 9.6139 20.0481 7.32631 18.3609 5.63908C16.6737 3.95185 14.3861 3.00276 12 3ZM11.9999 7.15385C12.2053 7.15385 12.4061 7.21475 12.5769 7.32886C12.7476 7.44297 12.8807 7.60515 12.9593 7.7949C13.0379 7.98466 13.0585 8.19346 13.0184 8.3949C12.9784 8.59634 12.8795 8.78138 12.7342 8.92661C12.589 9.07184 12.404 9.17074 12.2025 9.21081C12.0011 9.25088 11.7923 9.23032 11.6025 9.15172C11.4128 9.07312 11.2506 8.94002 11.1365 8.76924C11.0224 8.59847 10.9615 8.39769 10.9615 8.19231C10.9615 8.05593 10.9883 7.9209 11.0405 7.7949C11.0927 7.66891 11.1692 7.55443 11.2656 7.458C11.362 7.36157 11.4765 7.28508 11.6025 7.23289C11.7285 7.18071 11.8635 7.15384 11.9999 7.15385H11.9999ZM12.6923 16.8462H12C11.9091 16.8462 11.819 16.8283 11.735 16.7936C11.651 16.7588 11.5746 16.7078 11.5104 16.6435C11.4461 16.5792 11.3951 16.5029 11.3603 16.4188C11.3255 16.3348 11.3076 16.2448 11.3077 16.1538V12C11.1241 12 10.948 11.9271 10.8182 11.7972C10.6883 11.6674 10.6154 11.4913 10.6154 11.3077C10.6154 11.1241 10.6883 10.948 10.8182 10.8182C10.948 10.6883 11.1241 10.6154 11.3077 10.6154H12C12.0909 10.6153 12.181 10.6332 12.265 10.668C12.349 10.7027 12.4254 10.7537 12.4897 10.818C12.554 10.8823 12.6049 10.9587 12.6397 11.0427C12.6745 11.1267 12.6924 11.2168 12.6923 11.3077V15.4615C12.8759 15.4615 13.052 15.5345 13.1818 15.6643C13.3117 15.7941 13.3846 15.9702 13.3846 16.1538C13.3846 16.3375 13.3117 16.5135 13.1818 16.6434C13.052 16.7732 12.8759 16.8462 12.6923 16.8462Z" fill="#5D6066"/>
</svg>
