<svg width="24" height="24" viewBox="0 0 24 24" fill="none" xmlns="http://www.w3.org/2000/svg">
<path d="M2.46401 7.24795C1.84533 7.59372 1.84533 8.48554 2.46401 8.83121L11.5541 13.9632C11.8272 14.1179 12.1637 14.1179 12.4459 13.9632L21.536 8.83121C22.1547 8.48554 22.1547 7.59372 21.536 7.24795L12.4459 2.11596C12.1728 1.96135 11.8363 1.96135 11.5541 2.11596L2.46401 7.24795Z" fill="#5D6066"/>
<path d="M18.5787 14.8824L21.536 16.5567C22.1547 16.9116 22.1547 17.7942 21.536 18.1399L12.4459 23.2719C12.1728 23.4266 11.8363 23.4266 11.5541 23.2719L2.46401 18.1399C1.84533 17.7942 1.84533 16.9024 2.46401 16.5567L5.42127 14.8824L11.4995 18.3129C11.809 18.4857 12.191 18.4857 12.5005 18.3129L18.5787 14.8824Z" fill="#5D6066"/>
</svg>
