<svg width="24" height="24" viewBox="0 0 24 24" fill="none" xmlns="http://www.w3.org/2000/svg">
<path d="M2.46406 7.24795C1.84531 7.59372 1.84531 8.48545 2.46406 8.83122L11.5541 13.9632C11.8271 14.1178 12.1638 14.1178 12.4459 13.9632L21.5359 8.83122C22.1547 8.48545 22.1547 7.59372 21.5359 7.24795L12.4459 2.11601C12.1729 1.96133 11.8362 1.96133 11.5541 2.11601L2.46406 7.24795Z" fill="#5D6066"/>
<path d="M19.6979 11.8794L21.5359 12.9167C22.1547 13.2715 22.1547 14.1542 21.5359 14.4999L12.4459 19.6319C12.1729 19.7866 11.8362 19.7866 11.5541 19.6319L2.46406 14.4999C1.84531 14.1542 1.84531 13.2624 2.46406 12.9167L4.30208 11.8794L11.4085 15.8921C11.7725 16.1014 12.2275 16.1014 12.5914 15.8921L19.6979 11.8794Z" fill="#5D6066"/>
</svg>
