<svg width="24" height="24" viewBox="0 0 24 24" fill="none" xmlns="http://www.w3.org/2000/svg">
<path fill-rule="evenodd" clip-rule="evenodd" d="M14.3654 2.60394C14.3654 1.68913 13.1993 1.30292 12.6532 2.03684L9.11733 6.78896L16.8694 14.5411L19.0076 11.6674C19.6212 10.8428 19.0326 9.67122 18.0047 9.67122H14.3654V2.60394ZM14.8095 17.3096L16.2833 18.7833C16.6738 19.1738 17.307 19.1738 17.6975 18.7833C18.088 18.3928 18.088 17.7596 17.6975 17.3691L6.13093 5.80257C5.74041 5.41204 5.10725 5.41204 4.71672 5.80257C4.3262 6.19309 4.3262 6.82626 4.71672 7.21678L7.05741 9.55746L4.99239 12.3328C4.37881 13.1574 4.96738 14.329 5.99524 14.329H9.63461V21.3963C9.63461 22.3111 10.8007 22.6973 11.3468 21.9634L14.8095 17.3096Z" fill="#5D6066"/>
</svg>
