<svg width="24" height="24" viewBox="0 0 24 24" fill="none" xmlns="http://www.w3.org/2000/svg">
<path fill-rule="evenodd" clip-rule="evenodd" d="M16.2423 2.10693C14.7438 2.10693 13.3067 2.70217 12.2471 3.76171L9.59528 6.41357C9.37987 6.6293 9.25892 6.92173 9.25903 7.2266C9.25914 7.53147 9.3803 7.82381 9.59588 8.03939C9.81145 8.25496 10.1038 8.37612 10.4087 8.37623C10.7135 8.37634 11.0062 8.25519 11.2219 8.03978L13.8735 5.38813C14.5018 4.76029 15.3538 4.40766 16.242 4.4078C17.1303 4.40795 17.9821 4.76087 18.6102 5.38897C19.2383 6.01708 19.5912 6.86893 19.5914 7.7572C19.5915 8.64543 19.2388 9.49744 18.611 10.1257L15.9592 12.7775C15.7438 12.9932 15.6228 13.2857 15.623 13.5905C15.6231 13.8954 15.7442 14.1877 15.9598 14.4033C16.1754 14.6189 16.4677 14.74 16.7726 14.7402C17.0775 14.7403 17.3701 14.6191 17.5858 14.4037L20.2378 11.7517C21.2957 10.6914 21.8898 9.25472 21.8898 7.75689C21.8898 6.25906 21.2954 4.82205 20.2375 3.76171C19.1779 2.70217 17.7408 2.10693 16.2423 2.10693ZM9.63065 15.9943L15.9944 9.6306C16.1012 9.52388 16.1862 9.39696 16.244 9.25749C16.3019 9.11792 16.3318 8.96832 16.3318 8.81722C16.3319 8.66612 16.3021 8.51649 16.2443 8.37689C16.1865 8.23728 16.1018 8.11043 15.995 8.00359C15.8881 7.89675 15.7613 7.81201 15.6217 7.75421C15.4821 7.69641 15.3324 7.66669 15.1813 7.66675C15.0302 7.6668 14.8806 7.69663 14.7411 7.75453C14.6015 7.81243 14.4747 7.89726 14.368 8.00419L8.00403 14.3681C7.78862 14.5838 7.66767 14.8763 7.66779 15.1811C7.6679 15.486 7.78905 15.7784 8.00463 15.9939C8.2202 16.2095 8.51255 16.3307 8.81741 16.3308C9.12228 16.3309 9.41492 16.2097 9.63065 15.9943ZM3.91259 12.096C2.85305 13.1556 2.25781 14.5927 2.25781 16.0912C2.25781 17.5896 2.85305 19.0267 3.91259 20.0863C4.97293 21.1442 6.40993 21.7387 7.90777 21.7387C9.4056 21.7387 10.8423 21.1446 11.9026 20.0867L14.5546 17.4347C14.77 17.219 14.8911 16.9263 14.891 16.6215C14.8909 16.3166 14.7698 16.0242 14.5542 15.8087C14.3386 15.5931 14.0463 15.4719 13.7414 15.4718C13.4365 15.4717 13.1441 15.5927 12.9284 15.8081L10.2766 18.4598C9.64832 19.0877 8.7963 19.4404 7.90808 19.4403C7.0198 19.4401 6.16796 19.0872 5.53985 18.4591C4.91175 17.831 4.55882 16.9791 4.55868 16.0909C4.55854 15.2026 4.91117 14.3507 5.53901 13.7224L8.19065 11.0708C8.40607 10.855 8.52722 10.5624 8.52711 10.2575C8.527 9.95267 8.40584 9.66033 8.19027 9.44475C7.97469 9.22918 7.68234 9.10802 7.37748 9.10791C7.07261 9.1078 6.78018 9.22874 6.56445 9.44416L3.91259 12.096Z" fill="#5D6066"/>
</svg>
