<svg width="24" height="24" viewBox="0 0 24 24" fill="none" xmlns="http://www.w3.org/2000/svg">
<path d="M7 5C7 4.44772 7.32335 4 7.72222 4H19.2778C19.6767 4 20 4.44772 20 5C20 5.55228 19.6767 6 19.2778 6H7.72222C7.32335 6 7 5.55228 7 5ZM7 12C7 11.4477 7.32335 11 7.72222 11H19.2778C19.6767 11 20 11.4477 20 12C20 12.5523 19.6767 13 19.2778 13H7.72222C7.32335 13 7 12.5523 7 12ZM7 19C7 18.4477 7.32335 18 7.72222 18H19.2778C19.6767 18 20 18.4477 20 19C20 19.5523 19.6767 20 19.2778 20H7.72222C7.32335 20 7 19.5523 7 19Z" fill="#5D6066"/>
<circle cx="4" cy="5" r="1" fill="#5D6066"/>
<circle cx="4" cy="12" r="1" fill="#5D6066"/>
<circle cx="4" cy="19" r="1" fill="#5D6066"/>
</svg>
