<svg width="24" height="24" viewBox="0 0 24 24" fill="none" xmlns="http://www.w3.org/2000/svg">
<path d="M4.35463 12.0003L5.45463 11.1003C5.85463 10.7003 5.95463 10.1003 5.55463 9.70034C5.15463 9.30034 4.55463 9.20034 4.15463 9.60034L2.15463 11.3003L2.05463 11.4003C1.65463 11.8003 1.75463 12.5003 2.15463 12.8003L4.15463 14.5003C4.35463 14.6003 4.55463 14.7003 4.75463 14.7003C5.05463 14.7003 5.35463 14.6003 5.55463 14.3003C5.95463 13.9003 5.85463 13.2003 5.45463 12.9003L4.35463 12.0003Z" fill="#5D6066"/>
<path d="M13.4 17H21.4C22 17 22.4 17.4 22.4 18C22.4 18.6 22 19 21.4 19H13.4C12.8 19 12.4 18.6 12.4 18C12.4 17.4 12.8 17 13.4 17Z" fill="#5D6066"/>
<path d="M13.4 13H21.4C22 13 22.4 13.4 22.4 14C22.4 14.6 22 15 21.4 15H13.4C12.8 15 12.4 14.6 12.4 14C12.4 13.4 12.8 13 13.4 13Z" fill="#5D6066"/>
<path d="M21.4 7H13.4C12.8 7 12.4 6.6 12.4 6C12.4 5.4 12.8 5 13.4 5H21.4C22 5 22.4 5.4 22.4 6C22.4 6.6 22 7 21.4 7Z" fill="#5D6066"/>
<path d="M13.4 9H21.4C22 9 22.4 9.4 22.4 10C22.4 10.6 22 11 21.4 11H13.4C12.8 11 12.4 10.6 12.4 10C12.4 9.4 12.8 9 13.4 9Z" fill="#5D6066"/>
<path d="M8.39999 6C8.39999 5.4 8.79999 5 9.39999 5C9.99999 5 10.4 5.4 10.4 6V18C10.4 18.6 9.99999 19 9.39999 19C8.79999 19 8.39999 18.6 8.39999 18V6Z" fill="#5D6066"/>
</svg>
