<svg width="24" height="24" viewBox="0 0 24 24" fill="none" xmlns="http://www.w3.org/2000/svg">
<path d="M3.00002 5C3.00002 4.44772 3.44773 4 4.00002 4H20C20.5523 4 21 4.44772 21 5C21 5.55228 20.5523 6 20 6H4.00002C3.44773 6 3.00002 5.55228 3.00002 5ZM3.00002 12C3.00002 11.4477 3.44773 11 4.00002 11H20C20.5523 11 21 11.4477 21 12C21 12.5523 20.5523 13 20 13H4.00002C3.44773 13 3.00002 12.5523 3.00002 12ZM3.00002 19C3.00002 18.4477 3.44773 18 4.00002 18H20C20.5523 18 21 18.4477 21 19C21 19.5523 20.5523 20 20 20H4.00002C3.44773 20 3.00002 19.5523 3.00002 19Z" fill="#5D6066"/>
</svg>
