<svg width="24" height="24" viewBox="0 0 24 24" fill="none" xmlns="http://www.w3.org/2000/svg">
<path d="M3.25542 12.0457L2.15542 12.9457C1.75542 13.3457 1.65542 13.9457 2.05542 14.3457C2.45542 14.7457 3.05542 14.8457 3.45542 14.4457L5.45542 12.7457L5.55542 12.6457C5.95542 12.2457 5.85542 11.5457 5.45542 11.2457L3.45542 9.54568C3.25542 9.44568 3.05542 9.34568 2.85542 9.34568C2.55542 9.34568 2.25542 9.44568 2.05542 9.74568C1.65542 10.1457 1.75542 10.8457 2.15542 11.1457L3.25542 12.0457Z" fill="#5D6066"/>
<path d="M13.4 17H21.4C22 17 22.4 17.4 22.4 18C22.4 18.6 22 19 21.4 19H13.4C12.8 19 12.4 18.6 12.4 18C12.4 17.4 12.8 17 13.4 17Z" fill="#5D6066"/>
<path d="M13.4 13H21.4C22 13 22.4 13.4 22.4 14C22.4 14.6 22 15 21.4 15H13.4C12.8 15 12.4 14.6 12.4 14C12.4 13.4 12.8 13 13.4 13Z" fill="#5D6066"/>
<path d="M21.4 7H13.4C12.8 7 12.4 6.6 12.4 6C12.4 5.4 12.8 5 13.4 5H21.4C22 5 22.4 5.4 22.4 6C22.4 6.6 22 7 21.4 7Z" fill="#5D6066"/>
<path d="M13.4 9H21.4C22 9 22.4 9.4 22.4 10C22.4 10.6 22 11 21.4 11H13.4C12.8 11 12.4 10.6 12.4 10C12.4 9.4 12.8 9 13.4 9Z" fill="#5D6066"/>
<path d="M8.39999 6C8.39999 5.4 8.79999 5 9.39999 5C9.99999 5 10.4 5.4 10.4 6V18C10.4 18.6 9.99999 19 9.39999 19C8.79999 19 8.39999 18.6 8.39999 18V6Z" fill="#5D6066"/>
</svg>
