<svg width="24" height="24" viewBox="0 0 24 24" fill="none" xmlns="http://www.w3.org/2000/svg">
<path fill-rule="evenodd" clip-rule="evenodd" d="M21.98 10.79V6.79C21.98 3.6 20.38 2 17.19 2H10.79C8.8 2 7.44 2.62 6.69 3.86C6.51 4.16 6.75 4.51 7.1 4.51L13.19 4.5C17.19 4.5 19.48 6.79 19.48 10.79L19.47 14.49C19.47 14.84 19.82 15.08 20.12 14.9C21.36 14.15 21.98 12.79 21.98 10.79ZM6.79 6H13.19C16.38 6 17.98 7.6 17.98 10.79V14.79C17.98 15.05 17.97 15.3 17.94 15.54C17.71 18.24 16.12 19.58 13.19 19.58H12.79C12.54 19.58 12.3 19.7 12.15 19.9L10.95 21.5C10.42 22.21 9.56 22.21 9.03 21.5L7.83 19.9C7.7 19.73 7.41 19.58 7.19 19.58H6.79C3.6 19.58 2 18.79 2 14.79V10.79C2 7.86 3.35 6.27 6.04 6.04C6.28 6.01 6.53 6 6.79 6ZM5.5 13C5.5 13.55 5.94 14 6.5 14C7.05 14 7.5 13.55 7.5 13C7.5 12.45 7.05 12 6.5 12C5.95 12 5.5 12.45 5.5 13ZM8.99 13C8.99 13.55 9.43 14 9.99 14C10.55 14 10.99 13.55 10.99 13C10.99 12.45 10.54 12 9.99 12C9.44 12 8.99 12.45 8.99 13ZM12.49 13C12.49 13.55 12.93 14 13.49 14C14.04 14 14.49 13.55 14.49 13C14.49 12.45 14.04 12 13.49 12C12.94 12 12.49 12.45 12.49 13Z" fill="#5D6066"/>
</svg>
