<svg width="24" height="24" viewBox="0 0 24 24" fill="none" xmlns="http://www.w3.org/2000/svg">
<g clip-path="url(#clip0_1_239516)">
<path d="M22.9714 13.3125C23.0477 13.9563 22.9777 14.5766 22.7613 15.1734C22.5449 15.7703 22.2297 16.2812 21.816 16.7063C21.4022 17.1313 20.8977 17.4625 20.3025 17.7C19.7073 17.9375 19.0819 18.0344 18.4262 17.9906C17.4013 17.9219 16.5117 17.5312 15.7574 16.8188C15.003 16.1063 14.5749 15.25 14.4731 14.25C14.3967 13.5563 14.4842 12.8984 14.7357 12.2766C14.9871 11.6547 15.3643 11.1219 15.8672 10.6781L15.1892 9.675C14.5781 10.175 14.0975 10.7812 13.7474 11.4938C13.3973 12.2063 13.2222 12.9688 13.2222 13.7813C13.2222 13.95 13.1633 14.0953 13.0456 14.2172C12.9278 14.3391 12.783 14.4 12.6111 14.4H9.50781C9.3614 15.425 8.88715 16.2812 8.08507 16.9688C7.28299 17.6562 6.34722 18 5.27778 18C4.10012 18 3.09274 17.5891 2.25564 16.7672C1.41855 15.9453 1 14.9563 1 13.8C1 12.6438 1.41855 11.6547 2.25564 10.8328C3.09274 10.0109 4.10012 9.6 5.27778 9.6C5.76157 9.6 6.24537 9.68438 6.72917 9.85313L6.95833 9.43125C6.17535 8.74375 5.20776 8.4 4.05556 8.4H3.44444C3.27894 8.4 3.13571 8.34063 3.01476 8.22188C2.89381 8.10313 2.83333 7.9625 2.83333 7.8C2.83333 7.6375 2.89381 7.49688 3.01476 7.37813C3.13571 7.25938 3.27894 7.2 3.44444 7.2H4.66667C5.16319 7.2 5.62471 7.24219 6.05122 7.32656C6.47772 7.41094 6.84853 7.53125 7.16363 7.6875C7.47873 7.84375 7.70631 7.96719 7.84635 8.05781C7.9864 8.14844 8.14873 8.2625 8.33333 8.4H14.3203L13.5087 7.2H11.3889C11.1979 7.2 11.042 7.12969 10.921 6.98906C10.8001 6.84844 10.7555 6.68438 10.7873 6.49688C10.8128 6.35313 10.886 6.23438 11.0069 6.14062C11.1279 6.04688 11.2648 6 11.4175 6H13.8333C14.0434 6 14.2121 6.0875 14.3394 6.2625L15.0078 7.24688L16.0964 6.17813C16.2173 6.05938 16.3637 6 16.5356 6H17.5C17.6655 6 17.8087 6.05938 17.9297 6.17813C18.0506 6.29688 18.1111 6.4375 18.1111 6.6V7.8C18.1111 7.9625 18.0506 8.10313 17.9297 8.22188C17.8087 8.34063 17.6655 8.4 17.5 8.4H15.7908L16.8889 10.0125C17.7228 9.61875 18.5981 9.50625 19.5148 9.675C20.4251 9.8375 21.2017 10.2578 21.8446 10.9359C22.4876 11.6141 22.8631 12.4063 22.9714 13.3125ZM5.27778 16.8C6.00984 16.8 6.65596 16.5734 7.21615 16.1203C7.77633 15.6672 8.12963 15.0938 8.27604 14.4H5.27778C5.05498 14.4 4.87992 14.3031 4.7526 14.1094C4.63802 13.9094 4.63484 13.7125 4.74306 13.5188L6.1467 10.9219C5.84751 10.8406 5.55787 10.8 5.27778 10.8C4.4375 10.8 3.71817 11.0938 3.11979 11.6813C2.52141 12.2688 2.22222 12.975 2.22222 13.8C2.22222 14.625 2.52141 15.3313 3.11979 15.9188C3.71817 16.5063 4.4375 16.8 5.27778 16.8ZM18.7222 16.8C19.5625 16.8 20.2818 16.5063 20.8802 15.9188C21.4786 15.3313 21.7778 14.625 21.7778 13.8C21.7778 12.975 21.4786 12.2688 20.8802 11.6813C20.2818 11.0938 19.5625 10.8 18.7222 10.8C18.3403 10.8 17.9552 10.875 17.5668 11.025L19.2283 13.4625C19.3238 13.6063 19.3556 13.7594 19.3238 13.9219C19.292 14.0844 19.206 14.2094 19.066 14.2969C18.9705 14.3656 18.8559 14.4 18.7222 14.4C18.4994 14.4 18.3307 14.3094 18.2161 14.1281L16.5547 11.6906C15.9627 12.2844 15.6667 12.9875 15.6667 13.8C15.6667 14.625 15.9659 15.3313 16.5642 15.9188C17.1626 16.5063 17.8819 16.8 18.7222 16.8Z" fill="#5D6066"/>
</g>
<defs>
<clipPath id="clip0_1_239516">
<rect width="22" height="12" fill="white" transform="translate(1 6)"/>
</clipPath>
</defs>
</svg>
