<svg width="24" height="24" viewBox="0 0 24 24" fill="none" xmlns="http://www.w3.org/2000/svg">
<path d="M3.72344 8.29062L19.5956 2.79635C19.8616 2.70425 20.1481 2.68887 20.4225 2.75197C20.6968 2.81506 20.9479 2.95408 21.1469 3.15313C21.346 3.35219 21.485 3.60324 21.5481 3.87758C21.6112 4.15192 21.5958 4.43848 21.5037 4.70449L16.0095 20.5767C15.9106 20.873 15.7203 21.1303 15.4659 21.3117C15.2116 21.493 14.9063 21.5891 14.594 21.586C14.5847 21.586 14.5753 21.5859 14.566 21.5857C14.2489 21.5837 13.9408 21.4796 13.6873 21.289C13.4338 21.0984 13.2484 20.8312 13.1584 20.5271L10.9501 13.3501L3.77287 11.1418C3.47055 11.0487 3.20538 10.8625 3.01527 10.6096C2.82515 10.3568 2.71983 10.0504 2.71434 9.73411C2.70886 9.41784 2.8035 9.10792 2.98473 8.84867C3.16597 8.58942 3.42452 8.39409 3.72343 8.29062H3.72344Z" fill="#5D6066"/>
</svg>
