<svg width="24" height="24" viewBox="0 0 24 24" fill="none" xmlns="http://www.w3.org/2000/svg">
<path d="M3.09616 20.0764V5.71569C3.09616 3.90824 3.99544 3 5.78491 3H11.3871C13.1766 3 14.0668 3.90824 14.0668 5.71569V20.0764" fill="#D2D2D2"/>
<path d="M10.8751 8.38681H6.42387C6.05519 8.38681 5.74945 8.08107 5.74945 7.71239C5.74945 7.3437 6.05519 7.03796 6.42387 7.03796H10.8751C11.2438 7.03796 11.5495 7.3437 11.5495 7.71239C11.5495 8.08107 11.2438 8.38681 10.8751 8.38681Z" fill="white"/>
<path d="M10.8751 11.7583H6.42387C6.05519 11.7583 5.74945 11.4525 5.74945 11.0838C5.74945 10.7152 6.05519 10.4094 6.42387 10.4094H10.8751C11.2438 10.4094 11.5495 10.7152 11.5495 11.0838C11.5495 11.4525 11.2438 11.7583 10.8751 11.7583Z" fill="white"/>
<path d="M8.62703 20.7515C8.25834 20.7515 7.95261 20.4457 7.95261 20.0771V16.7049C7.95261 16.3363 8.25834 16.0305 8.62703 16.0305C8.99571 16.0305 9.30145 16.3363 9.30145 16.7049V20.0771C9.30145 20.4457 8.99571 20.7515 8.62703 20.7515Z" fill="#BCBEC2"/>
<path d="M21.8907 19.4021H19.8494V16.7045C20.7037 16.4257 21.3241 15.6254 21.3241 14.6812V12.8827C21.3241 11.7047 20.362 10.7426 19.184 10.7426C18.006 10.7426 17.0438 11.7047 17.0438 12.8827V14.6812C17.0438 15.6164 17.6553 16.4077 18.4915 16.6955V19.4021H2.10759C1.7389 19.4021 1.43317 19.7079 1.43317 20.0766C1.43317 20.4453 1.7389 20.751 2.10759 20.751H19.13C19.148 20.751 19.157 20.76 19.175 20.76C19.193 20.76 19.202 20.751 19.22 20.751H21.8907C22.2593 20.751 22.5651 20.4453 22.5651 20.0766C22.5651 19.7079 22.2593 19.4021 21.8907 19.4021Z" fill="#BCBEC2"/>
</svg>
