<svg width="24" height="24" viewBox="0 0 24 24" fill="none" xmlns="http://www.w3.org/2000/svg">
<path fill-rule="evenodd" clip-rule="evenodd" d="M18.48 7.3175L10.78 11.7775C10.47 11.9575 10.08 11.9575 9.75999 11.7775L6.29661 9.77144L15.9021 3.93703L17.8 4.9875C18.15 5.1775 18.48 5.4575 18.77 5.7775C19.17 6.2475 19.03 6.9975 18.48 7.3175ZM4.00991 9.82735L4.0099 9.72733L2.01 8.56744C1.33 8.17744 0.5 8.67744 0.5 9.46744V14.6274C0.5 16.0574 1.5 17.7974 2.72 18.4874C2.72 18.4874 6.19 20.3774 8.25 21.3874C8.93 21.7174 9.7 21.2174 9.7 20.4574V13.6374C9.7 13.2674 9.5 12.9274 9.2 12.7374L5.50993 10.5973L5.51004 14L5.51007 14.75H5.5V16L4 15V14H4.01005L4.00991 9.82735ZM14.3904 3.10026L4.8176 8.91477L2.05999 7.3175C1.50999 6.9975 1.36999 6.2475 1.78999 5.7775C2.07999 5.4475 2.40999 5.1775 2.75999 4.9875L8.17999 1.9875C9.33999 1.3375 11.22 1.3375 12.38 1.9875L14.3904 3.10026ZM10.84 20.4574V13.6374C10.84 13.2674 11.04 12.9274 11.34 12.7374L18.53 8.56744C19.21 8.17744 20.04 8.67744 20.04 9.46744V11.5803C19.7014 11.5259 19.354 11.4976 19 11.4976C15.4101 11.4976 12.5 14.4077 12.5 17.9976C12.5 19.0536 12.7518 20.0508 13.1987 20.9323C12.8778 21.0957 12.5708 21.2498 12.29 21.3874C11.61 21.7174 10.84 21.2174 10.84 20.4574ZM23.5 17.7988C23.5 20.4491 21.3515 22.5977 18.7012 22.5977C16.0509 22.5977 13.9023 20.4491 13.9023 17.7988C13.9023 15.1485 16.0509 13 18.7012 13C21.3515 13 23.5 15.1485 23.5 17.7988ZM18.6573 14.9195C18.1754 14.9195 17.7847 15.3102 17.7847 15.792V16.9263H16.6942C16.2123 16.9263 15.8217 17.3169 15.8217 17.7988C15.8217 18.2807 16.2123 18.6713 16.6942 18.6713H17.7847V19.8056C17.7847 20.2875 18.1754 20.6781 18.6573 20.6781C19.1391 20.6781 19.5298 20.2875 19.5298 19.8056V18.6713H20.7077C21.1896 18.6713 21.5803 18.2807 21.5803 17.7988C21.5803 17.3169 21.1896 16.9263 20.7077 16.9263H19.5298V15.792C19.5298 15.3102 19.1391 14.9195 18.6573 14.9195Z" fill="#5D6066"/>
</svg>
