<svg xmlns="http://www.w3.org/2000/svg" xmlns:xlink="http://www.w3.org/1999/xlink" version="1.1" width="940" height="788" viewBox="0 0 940 788" xml:space="preserve">
<desc>Created with Fabric.js 3.5.0</desc>
<defs>
</defs>
<rect x="0" y="0" width="100%" height="100%" fill="#ffffff"/>
<g transform="matrix(0.0338 0 0 0.0338 10.2344 8.0712)" id="7901">
<path style="stroke: none; stroke-width: 1; stroke-dasharray: none; stroke-linecap: butt; stroke-dashoffset: 0; stroke-linejoin: miter; stroke-miterlimit: 4; is-custom-font: none; font-file-url: none; fill: rgb(0,0,0); fill-rule: nonzero; opacity: 1;" vector-effect="non-scaling-stroke" transform=" translate(-288, -256)" d="M 0 96 l 576 0 c 0 -35.3 -28.7 -64 -64 -64 H 64 C 28.7 32 0 60.7 0 96 z m 0 32 V 416 c 0 35.3 28.7 64 64 64 H 512 c 35.3 0 64 -28.7 64 -64 V 128 H 0 z M 64 405.3 c 0 -29.5 23.9 -53.3 53.3 -53.3 H 234.7 c 29.5 0 53.3 23.9 53.3 53.3 c 0 5.9 -4.8 10.7 -10.7 10.7 H 74.7 c -5.9 0 -10.7 -4.8 -10.7 -10.7 z M 176 192 a 64 64 0 1 1 0 128 a 64 64 0 1 1 0 -128 z m 176 16 c 0 -8.8 7.2 -16 16 -16 H 496 c 8.8 0 16 7.2 16 16 s -7.2 16 -16 16 H 368 c -8.8 0 -16 -7.2 -16 -16 z m 0 64 c 0 -8.8 7.2 -16 16 -16 H 496 c 8.8 0 16 7.2 16 16 s -7.2 16 -16 16 H 368 c -8.8 0 -16 -7.2 -16 -16 z m 0 64 c 0 -8.8 7.2 -16 16 -16 H 496 c 8.8 0 16 7.2 16 16 s -7.2 16 -16 16 H 368 c -8.8 0 -16 -7.2 -16 -16 z" stroke-linecap="round"/>
</g>
</svg>