<svg width="24" height="24" viewBox="0 0 24 24" fill="none" xmlns="http://www.w3.org/2000/svg">
<path fill-rule="evenodd" clip-rule="evenodd" d="M9.42574 16.39H14.8119C15.2178 16.39 15.5545 16.05 15.5545 15.64C15.5545 15.23 15.2178 14.9 14.8119 14.9H9.42574C9.0198 14.9 8.68317 15.23 8.68317 15.64C8.68317 16.05 9.0198 16.39 9.42574 16.39ZM12.7723 9.89999H9.42574C9.0198 9.89999 8.68317 10.24 8.68317 10.65C8.68317 11.06 9.0198 11.39 9.42574 11.39H12.7723C13.1782 11.39 13.5149 11.06 13.5149 10.65C13.5149 10.24 13.1782 9.89999 12.7723 9.89999ZM19.8381 9.02561C20.0708 9.02293 20.3242 9.02 20.5545 9.02C20.802 9.02 21 9.22 21 9.47V17.51C21 19.99 19.0099 22 16.5545 22H8.67327C6.09901 22 4 19.89 4 17.29V6.51C4 4.03 6 2 8.46535 2H13.7525C14.0099 2 14.2079 2.21 14.2079 2.46V5.68C14.2079 7.51 15.703 9.01 17.5149 9.02C17.9381 9.02 18.3112 9.02316 18.6377 9.02593C18.8917 9.02809 19.1175 9.03 19.3168 9.03C19.4578 9.03 19.6405 9.02789 19.8381 9.02561ZM20.111 7.56575C19.2972 7.56875 18.3378 7.56575 17.6477 7.55875C16.5526 7.55875 15.6506 6.64775 15.6506 5.54175V2.90575C15.6506 2.47475 16.1685 2.26075 16.4645 2.57175C17.0006 3.1347 17.7373 3.90862 18.4706 4.67892C19.2014 5.4466 19.9287 6.21068 20.4506 6.75875C20.7397 7.06175 20.5279 7.56475 20.111 7.56575Z" fill="#5D6066"/>
</svg>
