<svg width="24" height="24" viewBox="0 0 24 24" fill="none" xmlns="http://www.w3.org/2000/svg">
<path fill-rule="evenodd" clip-rule="evenodd" d="M14.5545 15.26C14.8416 14.97 14.8416 14.5 14.5545 14.21L13.3465 12.99L14.5545 11.77C14.8416 11.48 14.8416 11.01 14.5545 10.72C14.2673 10.42 13.7921 10.42 13.505 10.72L12.297 11.94L11.0891 10.72C10.802 10.42 10.3366 10.42 10.0495 10.72C9.76238 11.01 9.76238 11.48 10.0495 11.77L11.2574 12.99L10.0495 14.21C9.76238 14.5 9.76238 14.97 10.0495 15.26C10.1881 15.41 10.3762 15.48 10.5644 15.48C10.7525 15.48 10.9505 15.41 11.0891 15.26L12.297 14.04L13.505 15.26C13.6535 15.41 13.8416 15.48 14.0297 15.48C14.2178 15.48 14.4059 15.41 14.5545 15.26ZM19.8354 9.02557C20.0686 9.02289 20.3209 9.02 20.5446 9.02C20.802 9.02 21 9.22 21 9.47V17.51C21 19.99 19.0099 22 16.5446 22H8.67327C6.08911 22 4 19.89 4 17.29V6.51C4 4.03 6 2 8.46535 2H13.7525C14 2 14.2079 2.21 14.2079 2.46V5.68C14.2079 7.51 15.703 9.01 17.5149 9.02C17.9333 9.02 18.3077 9.02318 18.6346 9.02595C18.8878 9.0281 19.1125 9.03 19.3069 9.03C19.4488 9.03 19.635 9.02787 19.8354 9.02557ZM20.1056 7.56619C19.2918 7.56919 18.3334 7.56619 17.6433 7.55919C16.5482 7.55919 15.6462 6.64819 15.6462 5.54219V2.90619C15.6462 2.47519 16.1641 2.26119 16.4591 2.57219C17.2215 3.37214 18.3887 4.59809 19.3752 5.63429C19.7748 6.05403 20.1448 6.44264 20.4462 6.75919C20.7344 7.06219 20.5235 7.56519 20.1056 7.56619Z" fill="#5D6066"/>
</svg>
