<svg width="24" height="24" viewBox="0 0 24 24" fill="none" xmlns="http://www.w3.org/2000/svg">
<path fill-rule="evenodd" clip-rule="evenodd" d="M9.12871 12.99C9.12871 13.4 9.46535 13.73 9.87129 13.73H14.7624C15.1683 13.73 15.5049 13.4 15.5049 12.99C15.5049 12.57 15.1683 12.24 14.7624 12.24H9.87129C9.46535 12.24 9.12871 12.57 9.12871 12.99ZM19.8381 9.02561C20.0708 9.02293 20.3242 9.02 20.5545 9.02C20.802 9.02 21 9.22 21 9.47V17.51C21 19.99 19.0099 22 16.5446 22H8.67327C6.09901 22 4 19.89 4 17.29V6.51C4 4.03 6 2 8.46535 2H13.7525C14.0099 2 14.2079 2.21 14.2079 2.46V5.68C14.2079 7.51 15.703 9.01 17.5149 9.02C17.9381 9.02 18.3112 9.02316 18.6377 9.02593C18.8917 9.02809 19.1175 9.03 19.3168 9.03C19.4578 9.03 19.6405 9.02789 19.8381 9.02561ZM20.11 7.56619C19.2961 7.56919 18.3367 7.56619 17.6466 7.55919C16.5516 7.55919 15.6496 6.64819 15.6496 5.54219V2.90619C15.6496 2.47519 16.1674 2.26119 16.4635 2.57219C16.9991 3.13469 17.7351 3.90781 18.4678 4.67748C19.1992 5.44579 19.9273 6.21067 20.4496 6.75919C20.7387 7.06219 20.5268 7.56519 20.11 7.56619Z" fill="#5D6066"/>
</svg>
