<svg width="24" height="24" viewBox="0 0 24 24" fill="none" xmlns="http://www.w3.org/2000/svg">
<path fill-rule="evenodd" clip-rule="evenodd" d="M14.4455 12.89C14.7327 13.18 15.198 13.18 15.4851 12.89C15.7822 12.6 15.7822 12.13 15.495 11.84L12.6535 8.96C12.5842 8.89 12.505 8.84 12.4158 8.8C12.3267 8.76 12.2376 8.74 12.1386 8.74C12.0396 8.74 11.9406 8.76 11.8515 8.8C11.7624 8.84 11.6832 8.89 11.6139 8.96L8.78218 11.84C8.49505 12.13 8.49505 12.6 8.78218 12.89C9.06931 13.18 9.53465 13.18 9.82178 12.89L11.396 11.29V16.12C11.396 16.53 11.7228 16.86 12.1386 16.86C12.5446 16.86 12.8713 16.53 12.8713 16.12V11.29L14.4455 12.89ZM19.8282 9.02561C20.0609 9.02293 20.3143 9.02 20.5446 9.02C20.7921 9.02 21 9.22 21 9.47V17.51C21 19.99 19 22 16.5446 22H8.67327C6.08911 22 4 19.89 4 17.29V6.51C4 4.03 5.9901 2 8.46535 2H13.7525C14 2 14.2079 2.21 14.2079 2.46V5.68C14.2079 7.51 15.6931 9.01 17.5149 9.02C17.9313 9.02 18.301 9.02315 18.6258 9.02591C18.8801 9.02807 19.1069 9.03 19.3069 9.03C19.4479 9.03 19.6306 9.02789 19.8282 9.02561ZM20.1047 7.566C19.2908 7.569 18.3324 7.566 17.6423 7.559C16.5472 7.559 15.6452 6.648 15.6452 5.542V2.906C15.6452 2.475 16.1621 2.261 16.4581 2.572C17.2204 3.37179 18.3872 4.59739 19.3736 5.63346C19.7735 6.05345 20.1437 6.44229 20.4452 6.759C20.7334 7.062 20.5215 7.565 20.1047 7.566Z" fill="#5D6066"/>
</svg>
