<svg width="24" height="24" viewBox="0 0 24 24" fill="none" xmlns="http://www.w3.org/2000/svg">
<path fill-rule="evenodd" clip-rule="evenodd" d="M2.45159 4H19.8644C20.2491 4.00043 20.6179 4.15163 20.8899 4.42041C21.162 4.6892 21.315 5.05363 21.3154 5.43375V11.7649C20.9118 11.6512 20.4859 11.5904 20.0457 11.5904C18.2697 11.5904 16.7267 12.58 15.9417 14.0362H14.7851C14.5927 14.0362 14.4081 14.1117 14.2721 14.2462C14.136 14.3806 14.0596 14.563 14.0596 14.7531C14.0596 14.9432 14.136 15.1256 14.2721 15.26C14.4081 15.3944 14.5927 15.47 14.7851 15.47H15.452C15.4113 15.7169 15.3901 15.9705 15.3901 16.229C15.3901 16.9846 15.5745 17.7051 15.9053 18.3375H2.45159C2.06688 18.337 1.69806 18.1858 1.42602 17.917C1.15399 17.6483 1.00097 17.2838 1.00053 16.9037V8.38805L1.00027 8.38308C1.00013 8.38127 1 8.37946 1 8.37763C1 8.3758 1.00013 8.37399 1.00027 8.37218L1.00053 8.36722V5.43375C1.00097 5.05363 1.15399 4.6892 1.42602 4.42041C1.69806 4.15163 2.06688 4.00043 2.45159 4ZM2.45159 5.43375V7.66076H19.8645L19.8644 5.43375H2.45159ZM6.92533 14.7951C6.92533 14.3293 7.30431 13.9517 7.77181 13.9517H12.0042C12.4717 13.9517 12.8507 14.3293 12.8507 14.7951C12.8507 15.2609 12.4717 15.6385 12.0042 15.6385H7.77181C7.30431 15.6385 6.92533 15.2609 6.92533 14.7951ZM16.7445 16.3855C16.7445 14.3885 18.3679 12.7711 20.3723 12.7711C22.3766 12.7711 24 14.3885 24 16.3855C24 17.0632 23.8095 17.7048 23.474 18.247C22.8482 19.2952 21.6964 20 20.3723 20C19.0481 20 17.8963 19.2952 17.2706 18.247C16.935 17.7048 16.7445 17.0632 16.7445 16.3855ZM20.3179 17.7771L22.2496 15.997C22.5217 15.7349 22.5398 15.3102 22.2859 15.0391C22.032 14.7681 21.5966 14.75 21.3245 15.003L19.8735 16.3404L19.4381 15.9066C19.1751 15.6446 18.7398 15.6446 18.4768 15.9066C18.2138 16.1687 18.2138 16.6024 18.4768 16.8645L19.3746 17.759C19.5107 17.8946 19.683 17.9578 19.8553 17.9578C20.0186 17.9578 20.1909 17.8946 20.3179 17.7771Z" fill="#5D6066"/>
</svg>
