<svg width="24" height="24" viewBox="0 0 24 24" fill="none" xmlns="http://www.w3.org/2000/svg">
<g clip-path="url(#clip0_1_239636)">
<path d="M15.113 3.20995L15.207 3.29295L20.707 8.79295C20.8756 8.96242 20.9779 9.18668 20.9953 9.42508C21.0128 9.66348 20.9443 9.90025 20.8022 10.0925C20.6602 10.2847 20.4539 10.4197 20.2209 10.473C19.9879 10.5263 19.7435 10.4943 19.532 10.3829L16.36 13.554L14.936 17.351C14.8985 17.4511 14.8451 17.5447 14.778 17.628L14.708 17.708L13.208 19.208C13.0357 19.38 12.8065 19.4832 12.5635 19.4983C12.3205 19.5134 12.0803 19.4393 11.888 19.29L11.793 19.207L9 16.415L5.207 20.207C5.02704 20.3863 4.78556 20.4904 4.53162 20.4982C4.27767 20.5059 4.03029 20.4167 3.83972 20.2487C3.64915 20.0807 3.52969 19.8464 3.5056 19.5935C3.48151 19.3406 3.55459 19.0879 3.71 18.887L3.793 18.793L7.585 15L4.793 12.2069C4.62082 12.0348 4.51739 11.8057 4.50211 11.5626C4.48683 11.3196 4.56075 11.0794 4.71 10.8869L4.793 10.7929L6.293 9.29295C6.36845 9.21723 6.45556 9.15409 6.551 9.10595L6.649 9.06395L10.445 7.63895L13.616 4.46895C13.5079 4.26678 13.4725 4.03359 13.5158 3.80845C13.5591 3.58331 13.6784 3.37988 13.8538 3.23224C14.0293 3.08461 14.2501 3.00173 14.4793 2.99749C14.7085 2.99324 14.9323 3.0689 15.113 3.20995Z" fill="#5D6066"/>
</g>
<defs>
<clipPath id="clip0_1_239636">
<rect width="24" height="24" fill="white"/>
</clipPath>
</defs>
</svg>
