<svg width="24" height="24" viewBox="0 0 24 24" fill="none" xmlns="http://www.w3.org/2000/svg">
<path fill-rule="evenodd" clip-rule="evenodd" d="M12 6C11.5959 6 11.2683 6.3276 11.2683 6.73171V11.2683H6.73171C6.3276 11.2683 6 11.5959 6 12C6 12.4041 6.3276 12.7317 6.73171 12.7317H11.2683V17.2683C11.2683 17.6724 11.5959 18 12 18C12.4041 18 12.7317 17.6724 12.7317 17.2683V12.7317H17.2683C17.6724 12.7317 18 12.4041 18 12C18 11.5959 17.6724 11.2683 17.2683 11.2683H12.7317V6.73171C12.7317 6.3276 12.4041 6 12 6Z" fill="#5D6066"/>
</svg>
