<svg width="24" height="24" viewBox="0 0 24 24" fill="none" xmlns="http://www.w3.org/2000/svg">
<path fill-rule="evenodd" clip-rule="evenodd" d="M12 22C17.5228 22 22 17.5228 22 12C22 6.47715 17.5228 2 12 2C6.47715 2 2 6.47715 2 12C2 17.5228 6.47715 22 12 22ZM12.8206 7.36593C12.8206 6.91352 12.4532 6.54676 12 6.54676C11.5468 6.54676 11.1795 6.91352 11.1795 7.36593V11.1807H7.35838C6.90521 11.1807 6.53784 11.5474 6.53784 11.9999C6.53784 12.4523 6.90521 12.819 7.35838 12.819H11.1795V16.6338C11.1795 17.0862 11.5468 17.4529 12 17.4529C12.4532 17.4529 12.8206 17.0862 12.8206 16.6338V12.819H16.6417C17.0949 12.819 17.4623 12.4523 17.4623 11.9999C17.4623 11.5474 17.0949 11.1807 16.6417 11.1807H12.8206V7.36593Z" fill="#5D6066"/>
</svg>
