<svg width="24" height="24" viewBox="0 0 24 24" fill="none" xmlns="http://www.w3.org/2000/svg">
<path fill-rule="evenodd" clip-rule="evenodd" d="M12 20C16.4183 20 20 16.4183 20 12C20 7.58172 16.4183 4 12 4C7.58172 4 4 7.58172 4 12C4 16.4183 7.58172 20 12 20ZM12.6564 8.29274C12.6564 7.93081 12.3626 7.63741 12 7.63741C11.6375 7.63741 11.3436 7.93081 11.3436 8.29274V11.3445H8.2867C7.92417 11.3445 7.63027 11.638 7.63027 11.9999C7.63027 12.3618 7.92417 12.6552 8.2867 12.6552H11.3436V15.707C11.3436 16.069 11.6375 16.3624 12 16.3624C12.3626 16.3624 12.6564 16.069 12.6564 15.707V12.6552H15.7134C16.0759 12.6552 16.3698 12.3618 16.3698 11.9999C16.3698 11.638 16.0759 11.3445 15.7134 11.3445H12.6564V8.29274Z" fill="#5D6066"/>
</svg>
