<svg width="24" height="24" viewBox="0 0 24 24" fill="none" xmlns="http://www.w3.org/2000/svg">
<path fill-rule="evenodd" clip-rule="evenodd" d="M1.80371 15.1239C3.52935 20.7548 9.49285 23.9211 15.1238 22.1954C20.7548 20.4698 23.921 14.5063 22.1954 8.87529C20.4701 3.24398 14.5066 0.0780952 8.87528 1.80341C3.24429 3.52904 0.0784022 9.49254 1.80371 15.1239ZM14.581 20.4229C9.92939 21.8482 5.00276 19.2326 3.57746 14.5809C2.15184 9.92896 4.76743 5.00266 9.41908 3.57703C14.0707 2.15174 18.9973 4.76701 20.423 9.41897C21.8483 14.0709 19.2327 18.9976 14.581 20.4229ZM14.4928 20.1364C9.99945 21.5133 5.24055 18.9867 3.86368 14.4934C2.48681 9.99971 5.01334 5.2408 9.50669 3.86394C14.0004 2.48707 18.7589 5.0136 20.1358 9.50728C21.5127 14.0006 18.9862 18.7595 14.4928 20.1364ZM9.03547 8.1531C8.50742 8.3149 8.21051 8.87414 8.37232 9.40219L10.3274 15.7826C10.4972 16.3367 11.084 16.6483 11.6381 16.4784C12.1922 16.3086 12.5037 15.7218 12.3339 15.1678L11.7929 13.4023L12.768 13.1036C14.5278 12.5643 15.7955 11.2193 15.1876 9.23526C14.5558 7.17288 12.8435 6.98631 11.005 7.54961L9.03547 8.1531ZM13.2374 9.83268C13.488 10.6511 13.1581 11.2551 12.183 11.5538L11.3089 11.8213L10.5705 9.41143L11.3886 9.16083C12.3523 8.86537 12.9796 8.99213 13.2374 9.83268Z" fill="#5D6066"/>
</svg>
