<svg width="24" height="24" viewBox="0 0 24 24" fill="none" xmlns="http://www.w3.org/2000/svg">
<path fill-rule="evenodd" clip-rule="evenodd" d="M1 12C1 18.061 5.928 23 12 23C18.061 23 23 18.061 23 12C23 5.928 18.061 1 12 1C5.928 1 1 5.928 1 12ZM12 12.3207C13.6328 12.3207 14.9411 11.0254 14.9411 9.41008C14.9411 7.79471 13.6328 6.5 12 6.5C10.3677 6.5 9.0589 7.79471 9.0589 9.41008C9.0589 11.0254 10.3677 12.3207 12 12.3207ZM7 15.2923C7 17.0456 9.28898 17.5 12 17.5C14.6966 17.5 17 17.0617 17 15.3077C17 13.5544 14.7116 13.1 12 13.1C9.30336 13.1 7 13.5383 7 15.2923Z" fill="#5D6066"/>
</svg>
