<svg width="37" height="37" viewBox="0 0 37 37" fill="none" xmlns="http://www.w3.org/2000/svg">
<ellipse cx="18.5" cy="18.666" rx="18" ry="18" fill="#F3971A"/>
<path d="M18.4999 7.66602C15.68 7.67406 12.9708 8.76482 10.9319 10.713V8.76602C10.9319 8.47428 10.816 8.19449 10.6098 7.9882C10.4035 7.78191 10.1237 7.66602 9.83193 7.66602C9.5402 7.66602 9.26041 7.78191 9.05412 7.9882C8.84783 8.19449 8.73193 8.47428 8.73193 8.76602V13.716C8.73193 14.0078 8.84783 14.2875 9.05412 14.4938C9.26041 14.7001 9.5402 14.816 9.83193 14.816H14.7819C15.0737 14.816 15.3535 14.7001 15.5598 14.4938C15.766 14.2875 15.8819 14.0078 15.8819 13.716C15.8819 13.4243 15.766 13.1445 15.5598 12.9382C15.3535 12.7319 15.0737 12.616 14.7819 12.616H12.1419C13.3546 11.3487 14.9184 10.4727 16.6326 10.1004C18.3467 9.7282 20.133 9.87673 21.7621 10.527C23.3912 11.1772 24.7889 12.2994 25.7756 13.7497C26.7623 15.1999 27.2932 16.9119 27.2999 18.666C27.2999 18.9578 27.4158 19.2375 27.6221 19.4438C27.8284 19.6501 28.1082 19.766 28.3999 19.766C28.6917 19.766 28.9715 19.6501 29.1778 19.4438C29.384 19.2375 29.4999 18.9578 29.4999 18.666C29.4999 17.2215 29.2154 15.7911 28.6626 14.4565C28.1098 13.1219 27.2996 11.9093 26.2781 10.8878C25.2567 9.8664 24.044 9.05614 22.7095 8.50334C21.3749 7.95054 19.9445 7.66602 18.4999 7.66602Z" fill="#FFEFDA"/>
<path d="M27.201 22.5274H22.218C21.9263 22.5274 21.6465 22.6433 21.4402 22.8496C21.2339 23.0559 21.118 23.3357 21.118 23.6274C21.118 23.9191 21.2339 24.1989 21.4402 24.4052C21.6465 24.6115 21.9263 24.7274 22.218 24.7274H24.858C23.6446 25.9954 22.0798 26.8717 20.3647 27.2435C18.6495 27.6154 16.8623 27.466 15.2328 26.8144C13.6032 26.1628 12.2057 25.0388 11.2198 23.5869C10.2338 22.135 9.70459 20.4214 9.7 18.6664C9.7 18.3747 9.58411 18.0949 9.37782 17.8886C9.17153 17.6823 8.89174 17.5664 8.6 17.5664C8.30826 17.5664 8.02847 17.6823 7.82218 17.8886C7.61589 18.0949 7.5 18.3747 7.5 18.6664C7.50582 20.8145 8.14044 22.9139 9.32556 24.7054C10.5107 26.497 12.1944 27.9024 14.169 28.7482C16.1436 29.5939 18.3226 29.843 20.4371 29.4647C22.5516 29.0864 24.5091 28.0973 26.068 26.6194V28.5664C26.068 28.8582 26.1839 29.1379 26.3902 29.3442C26.5965 29.5505 26.8763 29.6664 27.168 29.6664C27.4597 29.6664 27.7395 29.5505 27.9458 29.3442C28.1521 29.1379 28.268 28.8582 28.268 28.5664V23.6164C28.2653 23.3322 28.1527 23.0601 27.9538 22.8571C27.7549 22.6541 27.4851 22.5359 27.201 22.5274Z" fill="#FFCE8B"/>
</svg>
