<svg width="24" height="24" viewBox="0 0 24 24" fill="none" xmlns="http://www.w3.org/2000/svg">
<path d="M2.90911 10.1129H5.63638V21H2.90911C2.66801 21 2 21 2 21C2 21 2.00002 20.3334 2.00002 20.0927V11.0201C2.00002 10.7795 2.00016 10.1129 2.00016 10.1129C2.00016 10.1129 2.66801 10.1129 2.90911 10.1129ZM7.45456 9.20563L13.5391 3.13333C13.6164 3.05593 13.7192 3.009 13.8284 3.00117C13.9376 2.99333 14.046 3.02512 14.1336 3.09069L14.9091 3.67133C15.1245 3.83268 15.2871 4.05406 15.3766 4.30755C15.4661 4.56104 15.4783 4.8353 15.4118 5.09573L14.3636 9.20562H20.1818C20.664 9.20562 21.1265 9.39679 21.4675 9.73708C21.8084 10.0774 22 10.5389 22 11.0201V12.929C22.0002 13.1661 21.9539 13.401 21.8636 13.6203L19.05 20.4384C18.9814 20.6046 18.8648 20.7467 18.7151 20.8467C18.5654 20.9467 18.3892 21.0001 18.2091 21H8.36365C8.12255 21 7.45456 21 7.45456 21C7.45456 21 7.45456 20.3334 7.45456 20.0927V9.20563Z" fill="#5D6066"/>
</svg>
