<svg width="24" height="24" viewBox="0 0 24 24" fill="none" xmlns="http://www.w3.org/2000/svg">
<path fill-rule="evenodd" clip-rule="evenodd" d="M12.4286 2.5C9.91454 2.5 7.64144 3.57238 6.00337 5.29354C5.74389 5.56618 5.47721 5.86699 5.21429 6.17694V4.8C5.21429 4.05007 4.62938 3.4 3.85714 3.4C3.08491 3.4 2.5 4.05007 2.5 4.8V10.2C2.5 10.9499 3.08491 11.6 3.85714 11.6H9C9.77224 11.6 10.3571 10.9499 10.3571 10.2C10.3571 9.45007 9.77224 8.8 9 8.8H6.6187C7.05603 8.24995 7.51927 7.69774 7.94035 7.2553C9.09454 6.04256 10.6801 5.3 12.4286 5.3C15.9168 5.3 18.7857 8.27642 18.7857 12C18.7857 15.7236 15.9168 18.7 12.4286 18.7C10.2298 18.7 8.28229 17.5231 7.1362 15.7132C6.72676 15.0666 5.87484 14.8758 5.2392 15.3196C4.61896 15.7526 4.46311 16.6121 4.8638 17.2448C6.48171 19.7998 9.2607 21.5 12.4286 21.5C17.4613 21.5 21.5 17.2234 21.5 12C21.5 6.77656 17.4613 2.5 12.4286 2.5Z" fill="#5D6066"/>
</svg>
