<svg width="24" height="24" viewBox="0 0 24 24" fill="none" xmlns="http://www.w3.org/2000/svg">
<path fill-rule="evenodd" clip-rule="evenodd" d="M19 2.25C19.4142 2.25 19.75 2.58579 19.75 3V8C19.75 8.41421 19.4142 8.75 19 8.75H14C13.5858 8.75 13.25 8.41421 13.25 8C13.25 7.58579 13.5858 7.25 14 7.25H17.4772C16.8917 6.5749 16.1838 6.01084 15.3868 5.58974C14.1875 4.95609 12.8345 4.67158 11.4816 4.76856C10.1286 4.86554 8.83005 5.34012 7.73339 6.13835C6.63672 6.93659 5.78598 8.02646 5.27786 9.28411C5.12269 9.66816 4.68557 9.85371 4.30152 9.69854C3.91747 9.54337 3.73192 9.10625 3.88709 8.7222C4.50034 7.20435 5.52709 5.88898 6.85065 4.9256C8.17421 3.96221 9.74148 3.38944 11.3743 3.2724C13.0072 3.15535 14.6401 3.49872 16.0876 4.26348C16.8913 4.68813 17.6199 5.23324 18.25 5.87634V3C18.25 2.58579 18.5858 2.25 19 2.25ZM20.113 15.2778C20.2682 14.8937 20.0826 14.4566 19.6986 14.3015C19.3145 14.1463 18.8774 14.3318 18.7222 14.7159C18.2141 15.9735 17.3634 17.0634 16.2667 17.8616C15.17 18.6599 13.8714 19.1345 12.5185 19.2314C11.1656 19.3284 9.81254 19.0439 8.61324 18.4102C7.81625 17.9892 7.10839 17.4251 6.52292 16.75H10C10.4142 16.75 10.75 16.4142 10.75 16C10.75 15.5858 10.4142 15.25 10 15.25H5C4.58579 15.25 4.25 15.5858 4.25 16V21C4.25 21.4142 4.58579 21.75 5 21.75C5.41421 21.75 5.75 21.4142 5.75 21V18.1236C6.38011 18.7667 7.10875 19.3118 7.9125 19.7365C9.35993 20.5013 10.9929 20.8446 12.6257 20.7276C14.2586 20.6105 15.8259 20.0378 17.1494 19.0744C18.473 18.111 19.4997 16.7956 20.113 15.2778Z" fill="#5D6066"/>
</svg>
