<svg width="24" height="24" viewBox="0 0 24 24" fill="none" xmlns="http://www.w3.org/2000/svg">
<path fill-rule="evenodd" clip-rule="evenodd" d="M12 2C6.47715 2 2 6.47715 2 12C2 17.5228 6.47715 22 12 22C17.5228 22 22 17.5228 22 12C22 6.47715 17.5228 2 12 2ZM13.8778 13.95H16.3944C16.5379 13.9543 16.6742 14.014 16.7746 14.1165C16.8751 14.219 16.932 14.3565 16.9333 14.5V17C16.9333 17.1473 16.8748 17.2887 16.7706 17.3928C16.6664 17.497 16.5251 17.5556 16.3778 17.5556C16.2304 17.5556 16.0891 17.497 15.9849 17.3928C15.8808 17.2887 15.8222 17.1473 15.8222 17V16.0167C15.0349 16.7631 14.0463 17.2626 12.9783 17.4537C11.9104 17.6447 10.8099 17.5189 9.81263 17.0918C8.81537 16.6646 7.96499 15.9549 7.36645 15.05C6.7679 14.1452 6.44738 13.0849 6.44444 12C6.44444 11.8527 6.50298 11.7114 6.60716 11.6072C6.71135 11.503 6.85266 11.4444 7 11.4444C7.14734 11.4444 7.28865 11.503 7.39284 11.6072C7.49702 11.7114 7.55556 11.8527 7.55556 12C7.55788 12.8864 7.82517 13.7518 8.32311 14.4851C8.82104 15.2184 9.52686 15.786 10.3499 16.1151C11.1729 16.4442 12.0755 16.5197 12.9418 16.3319C13.808 16.1441 14.5983 15.7015 15.2111 15.0611H13.8778C13.7304 15.0611 13.5891 15.0026 13.4849 14.8984C13.3808 14.7942 13.3222 14.6529 13.3222 14.5056C13.3222 14.3582 13.3808 14.2169 13.4849 14.1127C13.5891 14.0085 13.7304 13.95 13.8778 13.95ZM8.17778 7.98333C9.20749 6.9994 10.5758 6.44851 12 6.44444C12.7296 6.44444 13.452 6.58814 14.126 6.86734C14.8001 7.14653 15.4125 7.55575 15.9284 8.07163C16.4443 8.58751 16.8535 9.19995 17.1327 9.87398C17.4119 10.548 17.5556 11.2704 17.5556 12C17.5556 12.1473 17.497 12.2887 17.3928 12.3928C17.2887 12.497 17.1473 12.5556 17 12.5556C16.8527 12.5556 16.7114 12.497 16.6072 12.3928C16.503 12.2887 16.4444 12.1473 16.4444 12C16.441 11.1141 16.1729 10.2494 15.6746 9.517C15.1762 8.78456 14.4703 8.21777 13.6476 7.88937C12.8248 7.56097 11.9226 7.48595 11.0569 7.67395C10.1912 7.86194 9.40137 8.30437 8.78889 8.94444H10.1222C10.2696 8.94444 10.4109 9.00298 10.5151 9.10716C10.6192 9.21135 10.6778 9.35266 10.6778 9.5C10.6778 9.64734 10.6192 9.78865 10.5151 9.89284C10.4109 9.99702 10.2696 10.0556 10.1222 10.0556H7.62222C7.47488 10.0556 7.33357 9.99702 7.22939 9.89284C7.1252 9.78865 7.06667 9.64734 7.06667 9.5V7C7.06667 6.85266 7.1252 6.71135 7.22939 6.60716C7.33357 6.50298 7.47488 6.44444 7.62222 6.44444C7.76957 6.44444 7.91087 6.50298 8.01506 6.60716C8.11925 6.71135 8.17778 6.85266 8.17778 7V7.98333Z" fill="#5D6066"/>
</svg>
