<svg width="24" height="24" viewBox="0 0 24 24" fill="none" xmlns="http://www.w3.org/2000/svg">
<g clip-path="url(#clip0_1_239240)">
<path d="M10.586 3.99996L9.46449 2.87906C9.07379 2.48857 9.07396 1.855 9.46455 1.4644C9.85511 1.07385 10.4886 1.07363 10.8791 1.46423L13.7071 4.29293C14.0976 4.68344 14.0976 5.31648 13.7071 5.70698L10.8791 8.53569C10.4886 8.92629 9.85511 8.92607 9.46455 8.53551C9.07396 8.14491 9.07379 7.51134 9.46449 7.12085L10.586 5.99996H8C7.20435 5.99996 6.44129 6.31603 5.87868 6.87864C5.31607 7.44125 5 8.20431 5 8.99996V12C5 12.5522 4.55228 13 4 13C3.44772 13 3 12.5522 3 12V8.99996C3 7.67388 3.52678 6.40211 4.46447 5.46442C5.40215 4.52674 6.67392 3.99996 8 3.99996H10.586ZM9 11C9 10.7347 9.10536 10.4804 9.29289 10.2929C9.48043 10.1053 9.73478 9.99996 10 9.99996H20C20.2652 9.99996 20.5196 10.1053 20.7071 10.2929C20.8946 10.4804 21 10.7347 21 11V21C21 21.2652 20.8946 21.5195 20.7071 21.7071C20.5196 21.8946 20.2652 22 20 22H10C9.73478 22 9.48043 21.8946 9.29289 21.7071C9.10536 21.5195 9 21.2652 9 21V11ZM11 12V20H19V12H11Z" fill="#5D6066"/>
</g>
<defs>
<clipPath id="clip0_1_239240">
<rect width="24" height="24" fill="white"/>
</clipPath>
</defs>
</svg>
