<svg width="24" height="24" viewBox="0 0 24 24" fill="none" xmlns="http://www.w3.org/2000/svg">
<path fill-rule="evenodd" clip-rule="evenodd" d="M20.1931 4.21291C20.1565 4.12445 20.1022 4.04158 20.0303 3.96967C19.8839 3.82322 19.6919 3.75 19.5 3.75H15C14.5858 3.75 14.25 4.08579 14.25 4.5C14.25 4.91421 14.5858 5.25 15 5.25H17.6893L13.7197 9.21967C13.4268 9.51256 13.4268 9.98744 13.7197 10.2803C14.0126 10.5732 14.4874 10.5732 14.7803 10.2803L18.75 6.31066V9C18.75 9.41421 19.0858 9.75 19.5 9.75C19.9142 9.75 20.25 9.41421 20.25 9V4.5C20.25 4.39831 20.2298 4.30134 20.1931 4.21291ZM4.5 14.25C4.91421 14.25 5.25 14.5858 5.25 15V17.6893L9.21967 13.7197C9.51256 13.4268 9.98744 13.4268 10.2803 13.7197C10.5732 14.0126 10.5732 14.4874 10.2803 14.7803L6.31066 18.75H9C9.41421 18.75 9.75 19.0858 9.75 19.5C9.75 19.9142 9.41421 20.25 9 20.25H4.5C4.30806 20.25 4.11612 20.1768 3.96967 20.0303C3.89776 19.9584 3.84351 19.8755 3.80691 19.7871C3.77024 19.6987 3.75 19.6017 3.75 19.5V15C3.75 14.5858 4.08579 14.25 4.5 14.25Z" fill="#5D6066"/>
</svg>
