<svg width="24" height="24" viewBox="0 0 24 24" fill="none" xmlns="http://www.w3.org/2000/svg">
<path fill-rule="evenodd" clip-rule="evenodd" d="M9.6887 3.74722C9.6887 3.04948 9.11399 2.5 8.4267 2.5L6.79725 2.50098C4.33941 2.50318 2.3237 4.46831 2.3237 6.90279V8.76201C2.3237 9.45835 2.89697 10.0092 3.5847 10.0092C4.27156 10.0092 4.8467 9.45919 4.8467 8.76201V6.90279C4.8467 5.86114 5.71405 4.99607 6.79943 4.99443L8.428 4.99345C9.11616 4.99329 9.6887 4.44388 9.6887 3.74722ZM15.6006 2.50029C14.9133 2.50029 14.3396 3.04977 14.3396 3.74751C14.3396 4.44554 14.9146 4.99277 15.6006 4.99277H17.1936C18.2837 4.99277 19.1546 5.86068 19.1546 6.90603V8.7623C19.1546 9.45864 19.7279 10.0095 20.4156 10.0095C21.1048 10.0095 21.6766 9.45822 21.6766 8.7623V6.90603C21.6766 4.46632 19.6575 2.50029 17.1936 2.50029H15.6006ZM1.762 11.5412C1.07557 11.5412 0.5 12.0899 0.5 12.7885C0.5 13.4873 1.07687 14.0337 1.762 14.0337H2.323V17.0972C2.323 19.5319 4.34002 21.4968 6.7977 21.499L8.427 21.5C9.11598 21.5 9.68731 20.9501 9.689 20.254L9.689 20.2528C9.689 19.5557 9.11473 19.0067 8.428 19.0065L6.80073 19.0056C5.71389 19.004 4.846 18.1385 4.846 17.0972V14.0337H19.155V17.0933C19.155 18.1395 18.2843 19.0065 17.194 19.0065H15.601C14.9136 19.0065 14.339 19.5552 14.339 20.2528C14.339 20.9509 14.9131 21.5 15.601 21.5H17.194C19.6569 21.5 21.677 19.534 21.677 17.0933V14.0337H22.239C22.925 14.0337 23.5 13.4865 23.5 12.7885C23.5 12.0907 22.9263 11.5412 22.239 11.5412H1.762Z" fill="#5D6066"/>
</svg>
