<svg width="24" height="24" viewBox="0 0 24 24" fill="none" xmlns="http://www.w3.org/2000/svg">
<path fill-rule="evenodd" clip-rule="evenodd" d="M3 5C3 3.89543 3.89543 3 5 3H19C20.1046 3 21 3.89543 21 5V7C21 7.55228 20.5523 8 20 8H4C3.44772 8 3 7.55228 3 7V5ZM3 10.5C3 9.94772 3.44772 9.5 4 9.5H20C20.5523 9.5 21 9.94772 21 10.5V13.5C21 14.0523 20.5523 14.5 20 14.5H4C3.44772 14.5 3 14.0523 3 13.5V10.5ZM4 16C3.44772 16 3 16.4477 3 17V19C3 20.1046 3.89543 21 5 21H19C20.1046 21 21 20.1046 21 19V17C21 16.4477 20.5523 16 20 16H4Z" fill="#5D6066"/>
</svg>
