<svg width="24" height="24" viewBox="0 0 24 24" fill="none" xmlns="http://www.w3.org/2000/svg">
<path d="M19.6567 4.34331C19.5093 4.196 19.3253 4.09062 19.1236 4.038C18.922 3.98539 18.7099 3.98744 18.5093 4.04395L4.85426 7.8953C4.62451 7.9601 4.42 8.09348 4.26809 8.27761C4.11617 8.46174 4.02407 8.68786 4.00411 8.92573C3.98414 9.16361 4.03726 9.40191 4.15637 9.60879C4.27547 9.81567 4.45488 9.98127 4.67062 10.0834L10.382 12.7888L14.2868 8.88406C14.3967 8.77411 14.5459 8.71234 14.7014 8.71234C14.8569 8.71234 15.006 8.77411 15.1159 8.88406C15.2259 8.99402 15.2877 9.14315 15.2877 9.29865C15.2877 9.45415 15.2259 9.60328 15.1159 9.71323L11.2112 13.618L13.9165 19.3293C14.0103 19.5302 14.1595 19.7002 14.3467 19.819C14.5339 19.9379 14.7512 20.0007 14.9729 20C15.0064 20 15.0402 19.9986 15.0743 19.9958C15.3126 19.9771 15.5394 19.8855 15.7237 19.7334C15.9081 19.5813 16.0411 19.376 16.1047 19.1456L19.9561 5.49074C20.0126 5.29012 20.0146 5.0781 19.962 4.87644C19.9094 4.67479 19.804 4.49078 19.6567 4.34331Z" fill="#5D6066"/>
</svg>
