<svg width="24" height="24" viewBox="0 0 24 24" fill="none" xmlns="http://www.w3.org/2000/svg">
<path d="M17 11C17 10.4477 17.4477 10 18 10H19C19.5304 10 20.0391 10.2107 20.4142 10.5858C20.7893 10.9609 21 11.4696 21 12V20C21 20.5304 20.7893 21.0391 20.4142 21.4142C20.0391 21.7893 19.5304 22 19 22H5C4.46957 22 3.96086 21.7893 3.58579 21.4142C3.21071 21.0391 3 20.5304 3 20V12C3 11.4696 3.21071 10.9609 3.58579 10.5858C3.96086 10.2107 4.46957 10 5 10H6C6.55228 10 7 10.4477 7 11C7 11.5523 6.55228 12 6 12H5V20H19V12H18C17.4477 12 17 11.5523 17 11ZM7.207 6.793C6.81654 7.18346 6.81653 7.81653 7.207 8.207C7.59747 8.59747 8.23053 8.59747 8.621 8.207L11 5.828V13C11 13.5523 11.4477 14 12 14C12.5523 14 13 13.5523 13 13V5.828L15.379 8.207C15.7695 8.59747 16.4025 8.59747 16.793 8.207C17.1835 7.81653 17.1835 7.18347 16.793 6.793L12.825 2.825C12.3694 2.36937 11.6306 2.36936 11.175 2.825L7.207 6.793Z" fill="#505361"/>
</svg>
