<svg width="24" height="24" viewBox="0 0 24 24" fill="none" xmlns="http://www.w3.org/2000/svg">
<path d="M16.5 15C15.9997 14.9998 15.5045 15.1001 15.0436 15.2948C14.5828 15.4896 14.1657 15.7748 13.8171 16.1337L9.49545 13.3555C9.83487 12.4837 9.83487 11.5163 9.49545 10.6445L13.8171 7.8663C14.4658 8.52994 15.3379 8.92907 16.2642 8.98634C17.1904 9.04361 18.105 8.75493 18.8306 8.17627C19.5561 7.5976 20.041 6.77017 20.1912 5.85435C20.3414 4.93853 20.1462 3.99957 19.6435 3.21946C19.1408 2.43935 18.3663 1.87368 17.4703 1.63207C16.5742 1.39047 15.6204 1.49016 14.7937 1.91181C13.9669 2.33346 13.3262 3.04703 12.9956 3.91422C12.6651 4.78141 12.6683 5.74044 13.0046 6.60542L8.68287 9.38365C8.16246 8.84929 7.49451 8.48226 6.76442 8.32949C6.03433 8.17673 5.27526 8.24516 4.58426 8.52604C3.89327 8.80692 3.30173 9.28749 2.88528 9.90631C2.46883 10.5251 2.24638 11.2541 2.24638 12C2.24638 12.7459 2.46883 13.4749 2.88528 14.0937C3.30173 14.7125 3.89327 15.1931 4.58426 15.474C5.27526 15.7548 6.03433 15.8233 6.76442 15.6705C7.49451 15.5177 8.16246 15.1507 8.68287 14.6163L13.0046 17.3946C12.7152 18.1412 12.6725 18.9608 12.8827 19.7335C13.0929 20.5061 13.5449 21.1912 14.1725 21.6884C14.8002 22.1856 15.5705 22.4688 16.3707 22.4965C17.171 22.5243 17.9591 22.2951 18.6196 21.8426C19.2802 21.39 19.7786 20.7379 20.0417 19.9817C20.3049 19.2254 20.319 18.4048 20.0821 17.6399C19.8452 16.8751 19.3696 16.2062 18.725 15.7311C18.0805 15.2561 17.3007 14.9999 16.5 15Z" fill="#5D6066"/>
</svg>
