<svg width="24" height="24" viewBox="0 0 24 24" fill="none" xmlns="http://www.w3.org/2000/svg">
<path fill-rule="evenodd" clip-rule="evenodd" d="M3.12575 5.40013C2.72921 5.55265 2.72921 6.11368 3.12575 6.26619L11.8857 9.6354C11.9929 9.67663 12.1116 9.67663 12.2188 9.6354L16.1976 8.10511L12.8255 6.60643L14.7587 5.83317L18.1666 7.3478L20.9788 6.26619C21.3754 6.11368 21.3754 5.55265 20.9788 5.40013L12.2188 2.03092C12.1116 1.98969 11.9929 1.98969 11.8857 2.03092L3.12575 5.40013ZM2.62686 8.00139C2.32355 7.88764 2 8.11186 2 8.4358V19.0559C2 19.2432 2.11262 19.4121 2.28551 19.4842L10.6368 22.9638C10.9424 23.0912 11.2792 22.8666 11.2792 22.5356V11.5675C11.2792 11.3741 11.1592 11.201 10.9781 11.1331L2.62686 8.00139ZM22.1047 8.4358C22.1047 8.11186 21.7812 7.88764 21.4779 8.00139L19.0118 8.92616V14.339L17.0786 15.1123V9.65109L13.1266 11.1331C12.9455 11.201 12.8256 11.3741 12.8256 11.5675V22.5356C12.8256 22.8666 13.1624 23.0912 13.468 22.9638L21.8192 19.4842C21.9921 19.4121 22.1047 19.2432 22.1047 19.0559V8.4358ZM3.54639 16.6588L6.25281 17.8187V19.3652L3.54639 18.2053V16.6588Z" fill="#5D6066"/>
</svg>
