<svg width="24" height="24" viewBox="0 0 24 24" fill="none" xmlns="http://www.w3.org/2000/svg">
<g clip-path="url(#clip0_1_239609)">
<path d="M19.7773 13.9336H17.4659C15.8277 13.9336 14.3511 13.2881 13.2555 12.2458L10.2168 13.9997L9.57231 12.8831L12.3986 11.2517C12.2769 11.0717 12.1888 10.8698 12.0865 10.6766L8.85035 11.5437L8.51674 10.2987L11.6058 9.47103C11.5424 9.24355 11.4879 9.015 11.4509 8.77734H8.17578V7.48828H11.3555V6.19922H8.17578V4.91016H11.3555V2.33203H10.7109C5.48237 2.33203 2.24863 4.65522 1 5.15628V16.5117H10.1829L12.761 17.8008H23V17.1562C23 15.3794 21.5542 13.9336 19.7773 13.9336Z" fill="#5D6066"/>
<path d="M10.0893 17.9064C9.95049 17.8369 9.79738 17.8008 9.64213 17.8008H2C1.44772 17.8008 1 18.2485 1 18.8008V20.668C1 21.2203 1.44772 21.668 2 21.668H8.13281C8.48878 21.668 8.77734 21.3794 8.77734 21.0234V20.7771C8.77734 20.5572 8.95563 20.3789 9.17555 20.3789C9.23737 20.3789 9.29834 20.3933 9.35363 20.4209L11.6365 21.5624C11.7754 21.6318 11.9285 21.668 12.0837 21.668H22C22.5523 21.668 23 21.2203 23 20.668V20.0898C23 19.5376 22.5523 19.0898 22 19.0898H12.6924C12.5372 19.0898 12.384 19.0537 12.2452 18.9843L10.0893 17.9064Z" fill="#5D6066"/>
</g>
<defs>
<clipPath id="clip0_1_239609">
<rect width="22" height="22" fill="white" transform="translate(1 1)"/>
</clipPath>
</defs>
</svg>
