<svg width="24" height="24" viewBox="0 0 24 24" fill="none" xmlns="http://www.w3.org/2000/svg">
<path fill-rule="evenodd" clip-rule="evenodd" d="M18.84 5.58006H19.24C20.13 5.58006 22 5.58006 22 8.14006C22 9.82006 21.36 10.4201 20.52 10.6201C20.24 10.6801 19.95 10.7001 19.64 10.7001H4.36C4.06 10.7001 3.75 10.6901 3.46 10.6201C3.15 10.5501 2.86 10.4201 2.62 10.1701C2.2 9.75006 2 9.11006 2 8.14006C2 5.58006 3.87 5.58006 4.77 5.58006H5.17L8.54 2.20006C8.82 1.93006 9.26 1.93006 9.53 2.20006C9.8 2.48006 9.8 2.92006 9.53 3.19006L7.14 5.58006H16.86L14.47 3.19006C14.2 2.91006 14.2 2.47006 14.47 2.20006C14.75 1.93006 15.19 1.93006 15.46 2.20006L18.84 5.58006ZM4.87003 12H19.05C19.68 12 20.15 12.57 20.03 13.19L19.02 18.42C18.66 20.31 18.06 22 14.69 22H9.08003C5.75003 22 5.00003 20.02 4.72003 18.3L3.88003 13.16C3.78003 12.55 4.25003 12 4.87003 12ZM7.75003 15.25C7.75003 17.59 9.66003 19.5 12 19.5C14.34 19.5 16.25 17.59 16.25 15.25C16.25 14.84 15.91 14.5 15.5 14.5C15.09 14.5 14.75 14.84 14.75 15.25C14.75 16.77 13.52 18 12 18C10.48 18 9.25003 16.77 9.25003 15.25C9.25003 14.84 8.91003 14.5 8.50003 14.5C8.09003 14.5 7.75003 14.84 7.75003 15.25Z" fill="#5D6066"/>
</svg>
