<svg width="24" height="24" viewBox="0 0 24 24" fill="none" xmlns="http://www.w3.org/2000/svg">
<path fill-rule="evenodd" clip-rule="evenodd" d="M20.5 5.99309H12.8234L14.4213 4.82833C14.996 4.40941 15.1222 3.60394 14.7033 3.02925C14.2844 2.45457 13.4789 2.32829 12.9043 2.7472L10.0406 4.83468C9.66089 5.11143 9.47694 5.55691 9.5166 5.99309H3.5C2.67157 5.99309 2 6.66466 2 7.49309C2 8.32152 2.67157 8.99309 3.5 8.99309H20.5C21.3284 8.99309 22 8.32152 22 7.49309C22 6.66466 21.3284 5.99309 20.5 5.99309ZM2.54887 11.9069C2.27374 10.9483 2.99335 9.99309 3.99066 9.99309H20.1204C21.083 9.99309 21.7965 10.8869 21.5831 11.8255L19.7649 19.8255C19.6097 20.5085 19.0026 20.9931 18.3022 20.9931H6.28677C5.61771 20.9931 5.02955 20.55 4.84498 19.9069L2.54887 11.9069ZM8.24997 14.2431C8.24997 13.8289 8.58575 13.4931 8.99997 13.4931C9.41418 13.4931 9.74997 13.8289 9.74997 14.2431V16.7431C9.74997 17.1573 9.41418 17.4931 8.99997 17.4931C8.58575 17.4931 8.24997 17.1573 8.24997 16.7431V14.2431ZM11.25 14.2431C11.25 13.8289 11.5858 13.4931 12 13.4931C12.4142 13.4931 12.75 13.8289 12.75 14.2431V16.7431C12.75 17.1573 12.4142 17.4931 12 17.4931C11.5858 17.4931 11.25 17.1573 11.25 16.7431V14.2431ZM15 13.4931C14.5858 13.4931 14.25 13.8289 14.25 14.2431V16.7431C14.25 17.1573 14.5858 17.4931 15 17.4931C15.4142 17.4931 15.75 17.1573 15.75 16.7431V14.2431C15.75 13.8289 15.4142 13.4931 15 13.4931Z" fill="#5D6066"/>
</svg>
