<svg width="24" height="24" viewBox="0 0 24 24" fill="none" xmlns="http://www.w3.org/2000/svg">
<path d="M12.25 20.25C12.25 19.5596 11.6904 19 11 19H5.5V5.5H11C11.6904 5.5 12.25 4.94036 12.25 4.25C12.25 3.55964 11.6904 3 11 3H5.25C4.00736 3 3 4.00736 3 5.25V19.25C3 20.4926 4.00736 21.5 5.25 21.5H11C11.6904 21.5 12.25 20.9404 12.25 20.25Z" fill="#5D6066"/>
<path d="M15.2501 15.4823L17.2323 13.5001H9.50005C8.8097 13.5001 8.25005 12.9404 8.25005 12.2501C8.25005 11.5597 8.80969 11.0001 9.50005 11.0001H17.2323L15.25 9.01782C14.7619 8.52967 14.7619 7.73821 15.25 7.25006C15.7382 6.7619 16.5296 6.7619 17.0178 7.25006L21.1339 11.3662C21.3684 11.6006 21.5 11.9186 21.5 12.2501C21.5 12.5816 21.3684 12.8995 21.1339 13.134L17.0178 17.2501C16.5297 17.7382 15.7382 17.7382 15.2501 17.2501C14.7619 16.7619 14.7619 15.9704 15.2501 15.4823Z" fill="#5D6066"/>
</svg>
