<svg width="24" height="24" viewBox="0 0 24 24" fill="none" xmlns="http://www.w3.org/2000/svg">
<path d="M4.12968 10.9828H2.97186C2.55936 10.9828 2.22186 11.3203 2.22186 11.7328C2.22186 12.1453 2.55936 12.4828 2.97186 12.4828H4.13436C4.54686 12.4828 4.88436 12.1453 4.88436 11.7328C4.87968 11.3203 4.54686 10.9828 4.12968 10.9828Z" fill="#5D6066"/>
<path d="M21.0281 10.9828H19.8656C19.4531 10.9828 19.1156 11.3203 19.1156 11.7328C19.1156 12.1453 19.4531 12.4828 19.8656 12.4828H21.0281C21.4406 12.4828 21.7781 12.1453 21.7781 11.7328C21.7781 11.3203 21.4406 10.9828 21.0281 10.9828Z" fill="#5D6066"/>
<path d="M17.8266 4.84685L17.0297 5.64373C16.7391 5.93435 16.7391 6.41248 17.0297 6.7031C17.175 6.84841 17.3672 6.92341 17.5594 6.92341C17.7516 6.92341 17.9437 6.84841 18.0891 6.7031L18.8859 5.90623C19.1766 5.6156 19.1766 5.13748 18.8859 4.84685C18.5953 4.55154 18.1219 4.55154 17.8266 4.84685Z" fill="#5D6066"/>
<path d="M5.90626 6.69849C6.05157 6.8438 6.24376 6.9188 6.43595 6.9188C6.62814 6.9188 6.82033 6.8438 6.96564 6.69849C7.25626 6.40786 7.25626 5.92974 6.96564 5.63911L6.16876 4.84224C5.87814 4.55161 5.40001 4.55161 5.10939 4.84224C4.81876 5.13286 4.81876 5.61099 5.10939 5.90161L5.90626 6.69849Z" fill="#5D6066"/>
<path d="M12 4.61252C12.4125 4.61252 12.75 4.27502 12.75 3.86252V2.70471C12.75 2.29221 12.4125 1.95471 12 1.95471C11.5875 1.95471 11.25 2.29221 11.25 2.70471V3.86721C11.25 4.27971 11.5875 4.61252 12 4.61252Z" fill="#5D6066"/>
<path d="M17.7 18.764H6.29999C5.60155 18.764 5.03436 19.3312 5.03436 20.0297V21.2953H18.9656V20.0297C18.9656 19.3312 18.3984 18.764 17.7 18.764Z" fill="#5D6066"/>
<path d="M6.29999 17.4985H17.7V11.3578C17.7 8.21721 15.1453 5.65784 12 5.65784C8.85468 5.65784 6.29999 8.21252 6.29999 11.3578V17.4985ZM11.3672 9.45471C11.3672 9.10315 11.6484 8.8219 12 8.8219C12.3516 8.8219 12.6328 9.10315 12.6328 9.45471V12.6188H11.3672V9.45471ZM11.3672 14.5219C11.3672 14.1703 11.6484 13.8891 12 13.8891C12.3516 13.8891 12.6328 14.1703 12.6328 14.5219C12.6328 14.8735 12.3516 15.1547 12 15.1547C11.6484 15.1547 11.3672 14.8735 11.3672 14.5219Z" fill="#5D6066"/>
</svg>
