<svg width="24" height="24" viewBox="0 0 24 24" fill="none" xmlns="http://www.w3.org/2000/svg">
<path fill-rule="evenodd" clip-rule="evenodd" d="M20.7498 2.375C20.7498 1.89175 20.3581 1.5 19.8748 1.5C19.3916 1.5 18.9999 1.89174 18.9998 2.37498L18.9998 13.6679C17.8573 14.0369 17.031 15.1092 17.031 16.3745C17.031 17.6397 17.8573 18.712 18.9998 19.081L18.9998 21.6251C18.9999 22.1083 19.3916 22.5001 19.8749 22.5001C20.3581 22.5 20.7498 22.1083 20.7498 21.625L20.7497 19.081C21.8921 18.712 22.7184 17.6397 22.7184 16.3745C22.7184 15.1092 21.8921 14.037 20.7497 13.6679L20.7498 2.375ZM12.8747 2.37499C12.8748 1.89175 12.483 1.5 11.9998 1.5C11.5165 1.5 11.1248 1.89174 11.1248 2.37499L11.1248 4.9184C9.98233 5.28744 9.15601 6.3597 9.15601 7.62496C9.15601 8.89023 9.98233 9.96249 11.1248 10.3315L11.1248 21.6244C11.1248 22.1076 11.5165 22.4993 11.9998 22.4993C12.483 22.4993 12.8747 22.1076 12.8747 21.6244L12.8747 10.3315C14.0171 9.96246 14.8434 8.89021 14.8434 7.62496C14.8434 6.35972 14.0171 5.28747 12.8747 4.91841L12.8747 2.37499ZM3.24982 15.5815C2.10745 15.2124 1.28119 14.1402 1.28119 12.875C1.28119 11.6097 2.10745 10.5375 3.24982 10.1684L3.24976 2.375C3.24975 1.89175 3.64149 1.5 4.12474 1.5C4.60798 1.5 4.99973 1.89174 4.99973 2.37498L4.99979 10.1684C6.14226 10.5374 6.96862 11.6097 6.96862 12.875C6.96862 14.1403 6.14226 15.2125 4.99979 15.5816L4.99973 21.6244C4.99973 22.1077 4.60798 22.4994 4.12474 22.4994C3.64149 22.4994 3.24975 22.1077 3.24976 21.6244L3.24982 15.5815Z" fill="#5D6066"/>
</svg>
