<svg width="24" height="24" viewBox="0 0 24 24" fill="none" xmlns="http://www.w3.org/2000/svg">
<path fill-rule="evenodd" clip-rule="evenodd" d="M3.75 6.74939H20.25C20.4489 6.74939 20.6397 6.67037 20.7803 6.52972C20.921 6.38907 21 6.1983 21 5.99939C21 5.80048 20.921 5.60971 20.7803 5.46906C20.6397 5.32841 20.4489 5.24939 20.25 5.24939H3.75C3.55109 5.24939 3.36032 5.32841 3.21967 5.46906C3.07902 5.60971 3 5.80048 3 5.99939C3 6.1983 3.07902 6.38907 3.21967 6.52972C3.36032 6.67037 3.55109 6.74939 3.75 6.74939ZM20.25 11.2494H3.75C3.55109 11.2494 3.36032 11.3284 3.21967 11.4691C3.07902 11.6097 3 11.8005 3 11.9994C3 12.1983 3.07902 12.3891 3.21967 12.5297C3.36032 12.6704 3.55109 12.7494 3.75 12.7494H20.25C20.4489 12.7494 20.6397 12.6704 20.7803 12.5297C20.921 12.3891 21 12.1983 21 11.9994C21 11.8005 20.921 11.6097 20.7803 11.4691C20.6397 11.3284 20.4489 11.2494 20.25 11.2494ZM3.75 17.2494H20.25C20.4489 17.2494 20.6397 17.3284 20.7803 17.4691C20.921 17.6097 21 17.8005 21 17.9994C21 18.1983 20.921 18.3891 20.7803 18.5297C20.6397 18.6704 20.4489 18.7494 20.25 18.7494H3.75C3.55109 18.7494 3.36032 18.6704 3.21967 18.5297C3.07902 18.3891 3 18.1983 3 17.9994C3 17.8005 3.07902 17.6097 3.21967 17.4691C3.36032 17.3284 3.55109 17.2494 3.75 17.2494Z" fill="#5D6066"/>
</svg>
