<svg width="24" height="24" viewBox="0 0 24 24" fill="none" xmlns="http://www.w3.org/2000/svg">
<g clip-path="url(#clip0_1_239619)">
<path d="M10.293 16.293L8 18.5859V3C8 2.73478 7.89464 2.48043 7.7071 2.29289C7.51957 2.10536 7.26521 2 7 2C6.73478 2 6.48042 2.10536 6.29289 2.29289C6.10535 2.48043 6 2.73478 6 3V18.5859L3.707 16.293C3.51839 16.1108 3.26579 16.01 3.00359 16.0123C2.7414 16.0146 2.49058 16.1198 2.30518 16.3052C2.11977 16.4906 2.0146 16.7414 2.01232 17.0036C2.01004 17.2658 2.11084 17.5184 2.293 17.707L6.293 21.707C6.4807 21.8942 6.73496 21.9993 7.00005 21.9993C7.26513 21.9993 7.51939 21.8942 7.7071 21.707L11.7071 17.707C11.8899 17.5185 11.9913 17.2657 11.9893 17.0031C11.9873 16.7405 11.8821 16.4893 11.6964 16.3036C11.5107 16.118 11.2594 16.0128 10.9969 16.0108C10.7343 16.0088 10.4815 16.1102 10.293 16.293Z" fill="#5D6066"/>
<path d="M9.5 5C9.5 4.44772 9.94772 4 10.5 4H20C20.5523 4 21 4.44772 21 5C21 5.55228 20.5523 6 20 6H10.5C9.94772 6 9.5 5.55228 9.5 5ZM9.5 12C9.5 11.4477 9.94772 11 10.5 11H20C20.5523 11 21 11.4477 21 12C21 12.5523 20.5523 13 20 13H10.5C9.94772 13 9.5 12.5523 9.5 12ZM13 19C13 18.4477 13.4477 18 14 18H20C20.5523 18 21 18.4477 21 19C21 19.5523 20.5523 20 20 20H14C13.4477 20 13 19.5523 13 19Z" fill="#5D6066"/>
</g>
<defs>
<clipPath id="clip0_1_239619">
<rect width="24" height="24" fill="white"/>
</clipPath>
</defs>
</svg>
