<svg width="24" height="24" viewBox="0 0 24 24" fill="none" xmlns="http://www.w3.org/2000/svg">
<path d="M21.5302 7.71838L17.7803 3.96902C17.7794 3.96816 17.7785 3.96747 17.7776 3.9666C17.7609 3.95007 17.7435 3.93426 17.7253 3.91936C17.7169 3.91247 17.7081 3.90649 17.6995 3.90004C17.6885 3.89178 17.6777 3.88329 17.6663 3.87564C17.6561 3.86882 17.6455 3.86292 17.635 3.85664C17.6245 3.8503 17.6141 3.84369 17.6032 3.83788C17.5928 3.83227 17.582 3.82758 17.5714 3.82249C17.5598 3.81702 17.5484 3.81128 17.5366 3.80638C17.5265 3.80219 17.5161 3.79885 17.5059 3.79514C17.4931 3.79047 17.4803 3.7856 17.4672 3.78162C17.4573 3.77862 17.4472 3.77644 17.4371 3.77388C17.4235 3.77038 17.41 3.7666 17.396 3.76386C17.3849 3.76166 17.3736 3.76042 17.3624 3.75873C17.3494 3.75676 17.3366 3.75438 17.3235 3.7531C17.3047 3.75127 17.2859 3.75067 17.2671 3.75026C17.2614 3.75012 17.2558 3.74939 17.25 3.74939C17.2446 3.74939 17.2393 3.75008 17.2339 3.75021C17.2147 3.7506 17.1956 3.75122 17.1764 3.7531C17.1636 3.75436 17.1512 3.75669 17.1385 3.75857C17.127 3.76031 17.1153 3.76161 17.1038 3.76388C17.0903 3.76656 17.0771 3.77022 17.0638 3.77363C17.0534 3.77628 17.0429 3.77855 17.0326 3.78166C17.0199 3.78551 17.0076 3.79024 16.9952 3.79473C16.9845 3.7986 16.9737 3.8021 16.9632 3.80647C16.9518 3.81116 16.941 3.81666 16.9299 3.8219C16.9188 3.82716 16.9075 3.83213 16.8965 3.83799C16.8862 3.84351 16.8765 3.84978 16.8665 3.85573C16.8554 3.86232 16.8442 3.86857 16.8335 3.87578C16.8228 3.88294 16.8128 3.89091 16.8025 3.8986C16.7931 3.90555 16.7836 3.91203 16.7745 3.91947C16.7581 3.933 16.7424 3.94742 16.7272 3.96229C16.7247 3.96463 16.7221 3.96662 16.7197 3.96902L12.9697 7.71902C12.829 7.85968 12.75 8.05045 12.75 8.24937C12.75 8.44829 12.829 8.63907 12.9697 8.77973C13.1103 8.92039 13.3011 8.99942 13.5 8.99942C13.6989 8.99943 13.8897 8.92041 14.0304 8.77975L16.5 6.31007V13.4994C16.5 13.6983 16.579 13.8891 16.7197 14.0297C16.8603 14.1704 17.0511 14.2494 17.25 14.2494C17.4489 14.2494 17.6397 14.1704 17.7803 14.0297C17.921 13.8891 18 13.6983 18 13.4994V6.30987L20.4696 8.77911C20.5393 8.84875 20.622 8.90399 20.713 8.94167C20.804 8.97935 20.9015 8.99874 21 8.99873C21.0985 8.99872 21.196 8.97932 21.287 8.94162C21.378 8.90392 21.4606 8.84867 21.5303 8.77902C21.5999 8.70937 21.6551 8.62669 21.6928 8.5357C21.7305 8.4447 21.7499 8.34717 21.7499 8.24868C21.7499 8.1502 21.7305 8.05267 21.6928 7.96168C21.6551 7.87069 21.5998 7.78802 21.5302 7.71838Z" fill="#5D6066"/>
<path d="M3.75 12.7494H11.2499C11.4488 12.7494 11.6396 12.6704 11.7802 12.5297C11.9209 12.3891 11.9999 12.1983 11.9999 11.9994C11.9999 11.8005 11.9209 11.6097 11.7802 11.4691C11.6396 11.3284 11.4488 11.2494 11.2499 11.2494H3.75C3.55109 11.2494 3.36032 11.3284 3.21967 11.4691C3.07902 11.6097 3 11.8005 3 11.9994C3 12.1983 3.07902 12.3891 3.21967 12.5297C3.36032 12.6704 3.55109 12.7494 3.75 12.7494Z" fill="#5D6066"/>
<path d="M3.75006 6.74939H9.74989C9.9488 6.74939 10.1396 6.67037 10.2802 6.52972C10.4209 6.38907 10.4999 6.1983 10.4999 5.99939C10.4999 5.80048 10.4209 5.60971 10.2802 5.46906C10.1396 5.32841 9.9488 5.24939 9.74989 5.24939H3.75006C3.55115 5.24939 3.36038 5.32841 3.21973 5.46906C3.07908 5.60971 3.00006 5.80048 3.00006 5.99939C3.00006 6.1983 3.07908 6.38907 3.21973 6.52972C3.36038 6.67037 3.55115 6.74939 3.75006 6.74939Z" fill="#5D6066"/>
<path d="M17.2499 17.2494H3.75C3.55109 17.2494 3.36032 17.3284 3.21967 17.4691C3.07902 17.6097 3 17.8005 3 17.9994C3 18.1983 3.07902 18.3891 3.21967 18.5297C3.36032 18.6704 3.55109 18.7494 3.75 18.7494H17.2499C17.4488 18.7494 17.6396 18.6704 17.7802 18.5297C17.9209 18.3891 17.9999 18.1983 17.9999 17.9994C17.9999 17.8005 17.9209 17.6097 17.7802 17.4691C17.6396 17.3284 17.4488 17.2494 17.2499 17.2494Z" fill="#5D6066"/>
</svg>
