<svg width="24" height="24" viewBox="0 0 24 24" fill="none" xmlns="http://www.w3.org/2000/svg">
<path d="M17.9189 13.82C17.6599 14.071 17.5409 14.434 17.5999 14.79L18.4889 19.71C18.5639 20.127 18.3879 20.549 18.0389 20.79C17.6969 21.04 17.2419 21.07 16.8689 20.87L12.4399 18.56C12.2859 18.478 12.1149 18.434 11.9399 18.429H11.6689C11.5749 18.443 11.4829 18.473 11.3989 18.519L6.96888 20.84C6.74988 20.95 6.50188 20.989 6.25888 20.95C5.66688 20.838 5.27188 20.274 5.36888 19.679L6.25888 14.759C6.31788 14.4 6.19888 14.035 5.93988 13.78L2.32888 10.28C2.02688 9.987 1.92188 9.547 2.05988 9.15C2.19388 8.754 2.53588 8.465 2.94888 8.4L7.91888 7.679C8.29688 7.64 8.62888 7.41 8.79888 7.07L10.9889 2.58C11.0409 2.48 11.1079 2.388 11.1889 2.31L11.2789 2.24C11.3259 2.188 11.3799 2.145 11.4399 2.11L11.5489 2.07L11.7189 2H12.1399C12.5159 2.039 12.8469 2.264 13.0199 2.6L15.2389 7.07C15.3989 7.397 15.7099 7.624 16.0689 7.679L21.0389 8.4C21.4589 8.46 21.8099 8.75 21.9489 9.15C22.0799 9.551 21.9669 9.991 21.6589 10.28L17.9189 13.82Z" fill="#5D6066"/>
</svg>
