<svg width="24" height="24" viewBox="0 0 24 24" fill="none" xmlns="http://www.w3.org/2000/svg">
<path fill-rule="evenodd" clip-rule="evenodd" d="M22 2.9C22 2.40294 21.5971 2 21.1 2H17.9747C17.4776 2 17.0747 2.40294 17.0747 2.9V5.68333C17.0747 6.18039 16.6717 6.58333 16.1747 6.58333H12.7508C12.2538 6.58333 11.8508 6.98628 11.8508 7.48333V11.1C11.8508 11.5971 11.4479 12 10.9508 12H7.82504C7.32799 12 6.92505 12.4029 6.92505 12.9V15.7528C6.92505 16.2498 6.5221 16.6528 6.02505 16.6528H2.9C2.40294 16.6528 2 17.0557 2 17.5528V21.1C2 21.5971 2.40294 22 2.9 22H6.92505H11.8508H13.3429H17.0747H21.1C21.5971 22 22 21.5971 22 21.1V2.9Z" fill="#5D6066"/>
</svg>
