<svg width="24" height="24" viewBox="0 0 24 24" fill="none" xmlns="http://www.w3.org/2000/svg">
<path fill-rule="evenodd" clip-rule="evenodd" d="M7.35854 3.23039C7.06443 3.01132 6.64618 3.03566 6.37966 3.30342L2.30188 7.40008L2.22946 7.48437C2.01228 7.77848 2.03745 8.19509 2.30433 8.46074L2.38862 8.53316C2.68273 8.75034 3.09934 8.72517 3.36499 8.45829L6.16113 5.64866V17.4508L6.16798 17.5526C6.21764 17.9186 6.53144 18.2008 6.91113 18.2008C7.32535 18.2008 7.66113 17.865 7.66113 17.4508V5.64885L10.4574 8.45829L10.5414 8.5311C10.8345 8.74963 11.2512 8.72639 11.5181 8.46074C11.8117 8.16852 11.8128 7.69365 11.5205 7.40008L7.44277 3.30342L7.43838 3.29962C7.41501 3.27651 7.39012 3.25492 7.36388 3.23503L7.35854 3.23039ZM17.5827 6.44462C17.533 6.07854 17.2192 5.79639 16.8395 5.79639C16.4253 5.79639 16.0895 6.13217 16.0895 6.54639V18.3484L13.2932 15.5393L13.2093 15.4664C12.9162 15.2479 12.4994 15.2712 12.2326 15.5368C11.939 15.829 11.9379 16.3039 12.2301 16.5975L16.3079 20.6941L16.3157 20.7009C16.3369 20.7216 16.3594 20.7411 16.383 20.7592L16.3921 20.7672C16.6862 20.9862 17.1045 20.9619 17.371 20.6941L21.4488 16.5975L21.5212 16.5132C21.7384 16.2191 21.7132 15.8025 21.4463 15.5368C21.1527 15.2446 20.6779 15.2457 20.3857 15.5393L17.5895 18.3475V6.54639L17.5827 6.44462Z" fill="#5D6066"/>
</svg>
