<svg width="24" height="24" viewBox="0 0 24 24" fill="none" xmlns="http://www.w3.org/2000/svg">
<path fill-rule="evenodd" clip-rule="evenodd" d="M12 4C7.58172 4 4 7.58172 4 12C4 12.5523 3.55228 13 3 13C2.44772 13 2 12.5523 2 12C2 6.47715 6.47715 2 12 2C14.7258 2 17.1972 3.09144 19 4.85862V3C19 2.44772 19.4477 2 20 2C20.5523 2 21 2.44772 21 3V7C21 7.55228 20.5523 8 20 8H16C15.4477 8 15 7.55228 15 7C15 6.44772 15.4477 6 16 6H17.2918C15.8808 4.7544 14.0287 4 12 4ZM21 11C21.5523 11 22 11.4477 22 12C22 17.5228 17.5228 22 12 22C9.27424 22 6.80285 20.9086 5 19.1414V21C5 21.5523 4.55228 22 4 22C3.44772 22 3 21.5523 3 21V17C3 16.4477 3.44772 16 4 16H8C8.55228 16 9 16.4477 9 17C9 17.5523 8.55228 18 8 18H6.70824C8.1192 19.2456 9.97126 20 12 20C16.4183 20 20 16.4183 20 12C20 11.4477 20.4477 11 21 11Z" fill="#5D6066"/>
</svg>
