<svg width="24" height="24" viewBox="0 0 24 24" fill="none" xmlns="http://www.w3.org/2000/svg">
<path fill-rule="evenodd" clip-rule="evenodd" d="M19.8381 9.02561H19.8381C19.6405 9.02789 19.4578 9.03 19.3168 9.03C19.1176 9.03 18.8918 9.02809 18.6378 9.02593L18.6377 9.02593L18.6376 9.02593C18.3111 9.02316 17.938 9.02 17.5149 9.02C15.703 9.01 14.2079 7.51 14.2079 5.68V2.46C14.2079 2.21 14.0099 2 13.7525 2H8.46535C6 2 4 4.03 4 6.51V17.29C4 19.89 6.09901 22 8.67327 22H16.5446C19.0099 22 21 19.99 21 17.51V9.47C21 9.22 20.802 9.02 20.5545 9.02C20.3242 9.02 20.0708 9.02293 19.8381 9.02561ZM17.6466 7.55919C18.3367 7.56619 19.2961 7.56919 20.11 7.56619C20.5268 7.56519 20.7387 7.06219 20.4496 6.75919L18.4678 4.67748L16.4635 2.57219C16.1674 2.26119 15.6496 2.47519 15.6496 2.90619V5.54219C15.6496 6.64819 16.5516 7.55919 17.6466 7.55919ZM16.8093 12.0838C17.0591 11.8403 17.0641 11.4404 16.8206 11.1907C16.5771 10.9409 16.1773 10.9359 15.9275 11.1794L12.0654 14.9449L10.0878 12.8791C9.84661 12.6271 9.44681 12.6183 9.19484 12.8596C8.94287 13.1008 8.93414 13.5006 9.17534 13.7525L11.5937 16.2788C11.7102 16.4006 11.8706 16.4707 12.039 16.4736C12.2075 16.4765 12.3702 16.412 12.4908 16.2943L16.8093 12.0838Z" fill="#5D6066"/>
</svg>
