<svg width="24" height="24" viewBox="0 0 24 24" fill="none" xmlns="http://www.w3.org/2000/svg">
<path fill-rule="evenodd" clip-rule="evenodd" d="M4.29289 3.79289C4.68342 3.40237 5.31658 3.40237 5.70711 3.79289C6.09763 4.18342 6.09763 4.81658 5.70711 5.20711L3.70711 7.20711C3.31658 7.59763 2.68342 7.59763 2.29289 7.20711C1.90237 6.81658 1.90237 6.18342 2.29289 5.79289L4.29289 3.79289ZM19.7071 3.79289C19.3166 3.40237 18.6834 3.40237 18.2929 3.79289C17.9024 4.18342 17.9024 4.81658 18.2929 5.20711L20.2929 7.20711C20.6834 7.59763 21.3166 7.59763 21.7071 7.20711C22.0976 6.81658 22.0976 6.18342 21.7071 5.79289L19.7071 3.79289ZM20 12.5C20 16.9183 16.4183 20.5 12 20.5C7.58172 20.5 4 16.9183 4 12.5C4 8.08172 7.58172 4.5 12 4.5C16.4183 4.5 20 8.08172 20 12.5ZM14.6247 9.21913C15.056 9.56414 15.1259 10.1934 14.7809 10.6247L12.9241 12.9457C12.519 13.452 11.7941 13.5646 11.2546 13.2049L8.4453 11.3321C7.98577 11.0257 7.8616 10.4048 8.16795 9.9453C8.4743 9.48577 9.09517 9.3616 9.5547 9.66795L11.7919 11.1594L13.2191 9.37531C13.5641 8.94404 14.1934 8.87412 14.6247 9.21913Z" fill="#5D6066"/>
</svg>
