<svg width="24" height="24" viewBox="0 0 24 24" fill="none" xmlns="http://www.w3.org/2000/svg">
<path fill-rule="evenodd" clip-rule="evenodd" d="M16.75 3.56V2C16.75 1.59 16.41 1.25 16 1.25C15.59 1.25 15.25 1.59 15.25 2V3.5H8.74998V2C8.74998 1.59 8.40999 1.25 7.99999 1.25C7.58999 1.25 7.24999 1.59 7.24999 2V3.56C4.54998 3.81 3.23998 5.42 3.03998 7.81C3.01998 8.1 3.25998 8.34 3.53999 8.34H20.46C20.75 8.34 20.99 8.09 20.96 7.81C20.76 5.42 19.45 3.81 16.75 3.56ZM20 9.84003H4C3.45 9.84003 3 10.29 3 10.84V17C3 20 4.5 22 8 22H16C19.5 22 21 20 21 17V10.84C21 10.29 20.55 9.84003 20 9.84003ZM16.5236 13.537C16.8202 13.2478 16.8262 12.773 16.537 12.4764C16.2478 12.1798 15.773 12.1738 15.4764 12.463L10.8902 16.9346L8.54178 14.4814C8.25535 14.1822 7.78059 14.1718 7.48137 14.4582C7.18216 14.7446 7.17179 15.2194 7.45822 15.5186L10.33 18.5186C10.4684 18.6632 10.6588 18.7464 10.8589 18.7499C11.0589 18.7533 11.2521 18.6767 11.3954 18.537L16.5236 13.537Z" fill="#5D6066"/>
</svg>
