<svg width="207" height="22" viewBox="0 0 207 22" fill="none" xmlns="http://www.w3.org/2000/svg">
<path d="M0.113636 3.72869V0.636363H16.3608V3.72869H10.0668V21H6.40767V3.72869H0.113636ZM20.5678 21L16.2525 5.72727H19.9215L22.6061 16.4659H22.7454L25.4897 5.72727H29.1189L31.8633 16.4062H32.0124L34.6573 5.72727H38.3363L34.011 21H30.2624L27.3988 10.679H27.19L24.3263 21H20.5678ZM46.9058 21.2983C45.4144 21.2983 44.1217 20.9702 43.028 20.3139C41.9342 19.6577 41.0858 18.7396 40.4825 17.5597C39.8859 16.3797 39.5877 15.0009 39.5877 13.4233C39.5877 11.8456 39.8859 10.4635 40.4825 9.27699C41.0858 8.09043 41.9342 7.16903 43.028 6.51278C44.1217 5.85653 45.4144 5.52841 46.9058 5.52841C48.3973 5.52841 49.6899 5.85653 50.7837 6.51278C51.8774 7.16903 52.7226 8.09043 53.3192 9.27699C53.9224 10.4635 54.224 11.8456 54.224 13.4233C54.224 15.0009 53.9224 16.3797 53.3192 17.5597C52.7226 18.7396 51.8774 19.6577 50.7837 20.3139C49.6899 20.9702 48.3973 21.2983 46.9058 21.2983ZM46.9257 18.4148C47.7344 18.4148 48.4106 18.1927 48.9541 17.7486C49.4977 17.2978 49.902 16.6946 50.1672 15.9389C50.439 15.1832 50.5749 14.3414 50.5749 13.4134C50.5749 12.4787 50.439 11.6335 50.1672 10.8778C49.902 10.1155 49.4977 9.509 48.9541 9.05824C48.4106 8.60748 47.7344 8.3821 46.9257 8.3821C46.0971 8.3821 45.4077 8.60748 44.8575 9.05824C44.314 9.509 43.9063 10.1155 43.6345 10.8778C43.3694 11.6335 43.2368 12.4787 43.2368 13.4134C43.2368 14.3414 43.3694 15.1832 43.6345 15.9389C43.9063 16.6946 44.314 17.2978 44.8575 17.7486C45.4077 18.1927 46.0971 18.4148 46.9257 18.4148ZM66.3682 11.0369V14H57.2005V11.0369H66.3682ZM77.6124 5.72727V8.51136H68.8326V5.72727H77.6124ZM71.0002 2.06818H74.5997V16.4062C74.5997 16.8902 74.6726 17.2614 74.8184 17.5199C74.9709 17.7718 75.1697 17.9441 75.415 18.0369C75.6603 18.1297 75.9321 18.1761 76.2303 18.1761C76.4557 18.1761 76.6612 18.1596 76.8468 18.1264C77.0391 18.0933 77.1849 18.0634 77.2843 18.0369L77.8909 20.8509C77.6986 20.9171 77.4235 20.9901 77.0656 21.0696C76.7142 21.1491 76.2834 21.1955 75.773 21.2088C74.8714 21.2353 74.0594 21.0994 73.3369 20.8011C72.6143 20.4962 72.041 20.0256 71.6167 19.3892C71.1991 18.7528 70.9936 17.9574 71.0002 17.0028V2.06818ZM86.9526 21.2983C85.4611 21.2983 84.1685 20.9702 83.0748 20.3139C81.981 19.6577 81.1325 18.7396 80.5293 17.5597C79.9327 16.3797 79.6344 15.0009 79.6344 13.4233C79.6344 11.8456 79.9327 10.4635 80.5293 9.27699C81.1325 8.09043 81.981 7.16903 83.0748 6.51278C84.1685 5.85653 85.4611 5.52841 86.9526 5.52841C88.4441 5.52841 89.7367 5.85653 90.8305 6.51278C91.9242 7.16903 92.7694 8.09043 93.366 9.27699C93.9692 10.4635 94.2708 11.8456 94.2708 13.4233C94.2708 15.0009 93.9692 16.3797 93.366 17.5597C92.7694 18.7396 91.9242 19.6577 90.8305 20.3139C89.7367 20.9702 88.4441 21.2983 86.9526 21.2983ZM86.9725 18.4148C87.7812 18.4148 88.4574 18.1927 89.0009 17.7486C89.5445 17.2978 89.9488 16.6946 90.214 15.9389C90.4858 15.1832 90.6217 14.3414 90.6217 13.4134C90.6217 12.4787 90.4858 11.6335 90.214 10.8778C89.9488 10.1155 89.5445 9.509 89.0009 9.05824C88.4574 8.60748 87.7812 8.3821 86.9725 8.3821C86.1439 8.3821 85.4545 8.60748 84.9043 9.05824C84.3608 9.509 83.9531 10.1155 83.6813 10.8778C83.4162 11.6335 83.2836 12.4787 83.2836 13.4134C83.2836 14.3414 83.4162 15.1832 83.6813 15.9389C83.9531 16.6946 84.3608 17.2978 84.9043 17.7486C85.4545 18.1927 86.1439 18.4148 86.9725 18.4148ZM100.757 12.0511V21H97.1578V5.72727H100.598V8.32244H100.777C101.128 7.46733 101.689 6.78788 102.458 6.28409C103.233 5.7803 104.191 5.52841 105.331 5.52841C106.385 5.52841 107.303 5.75379 108.085 6.20454C108.874 6.6553 109.484 7.30824 109.915 8.16335C110.352 9.01847 110.568 10.0559 110.561 11.2756V21H106.962V11.8324C106.962 10.8116 106.697 10.0128 106.166 9.43608C105.643 8.85937 104.917 8.57102 103.989 8.57102C103.359 8.57102 102.799 8.71023 102.308 8.98864C101.825 9.26042 101.443 9.65483 101.165 10.1719C100.893 10.6889 100.757 11.3153 100.757 12.0511ZM120.814 21.2983C119.282 21.2983 117.96 20.9801 116.846 20.3438C115.739 19.7008 114.888 18.7926 114.291 17.6193C113.694 16.4394 113.396 15.0507 113.396 13.4531C113.396 11.8821 113.694 10.5033 114.291 9.31676C114.894 8.12358 115.736 7.19555 116.817 6.53267C117.897 5.86316 119.166 5.52841 120.625 5.52841C121.566 5.52841 122.454 5.68087 123.29 5.98579C124.131 6.28409 124.874 6.74811 125.517 7.37784C126.166 8.00758 126.677 8.80966 127.048 9.78409C127.419 10.7519 127.605 11.9053 127.605 13.2443V14.348H115.086V11.9219H124.155C124.148 11.2325 123.999 10.6193 123.707 10.0824C123.415 9.53883 123.008 9.11127 122.484 8.79972C121.967 8.48816 121.364 8.33239 120.674 8.33239C119.939 8.33239 119.292 8.51136 118.736 8.86932C118.179 9.22064 117.745 9.68466 117.433 10.2614C117.128 10.8314 116.972 11.4579 116.966 12.1406V14.2585C116.966 15.1468 117.128 15.9091 117.453 16.5455C117.778 17.1752 118.232 17.6591 118.815 17.9972C119.398 18.3286 120.081 18.4943 120.863 18.4943C121.387 18.4943 121.861 18.4214 122.285 18.2756C122.71 18.1231 123.077 17.901 123.389 17.6094C123.701 17.3177 123.936 16.9564 124.095 16.5256L127.456 16.9034C127.244 17.7917 126.839 18.5672 126.243 19.2301C125.653 19.8864 124.897 20.3968 123.976 20.7614C123.054 21.1193 122 21.2983 120.814 21.2983ZM141.107 0.636363V21H137.418V0.636363H141.107ZM151.437 21.2983C149.912 21.2983 148.603 20.9635 147.509 20.294C146.422 19.6245 145.584 18.6998 144.994 17.5199C144.41 16.3333 144.119 14.9678 144.119 13.4233C144.119 11.8722 144.417 10.5033 145.014 9.31676C145.61 8.12358 146.452 7.19555 147.539 6.53267C148.633 5.86316 149.925 5.52841 151.417 5.52841C152.657 5.52841 153.754 5.7571 154.708 6.21449C155.669 6.66525 156.435 7.30492 157.005 8.13352C157.575 8.95549 157.9 9.91667 157.979 11.017H154.539C154.4 10.2812 154.068 9.66809 153.545 9.17756C153.028 8.6804 152.335 8.43182 151.467 8.43182C150.731 8.43182 150.085 8.63068 149.528 9.02841C148.971 9.41951 148.537 9.98295 148.225 10.7188C147.92 11.4545 147.768 12.3362 147.768 13.3636C147.768 14.4044 147.92 15.2992 148.225 16.0483C148.53 16.7907 148.958 17.3641 149.508 17.7685C150.065 18.1662 150.718 18.3651 151.467 18.3651C151.997 18.3651 152.471 18.2656 152.889 18.0668C153.313 17.8613 153.667 17.5663 153.952 17.1818C154.238 16.7973 154.433 16.33 154.539 15.7798H157.979C157.893 16.8603 157.575 17.8182 157.025 18.6534C156.475 19.482 155.726 20.1316 154.778 20.6023C153.83 21.0663 152.716 21.2983 151.437 21.2983ZM167.429 21.2983C165.938 21.2983 164.645 20.9702 163.551 20.3139C162.457 19.6577 161.609 18.7396 161.006 17.5597C160.409 16.3797 160.111 15.0009 160.111 13.4233C160.111 11.8456 160.409 10.4635 161.006 9.27699C161.609 8.09043 162.457 7.16903 163.551 6.51278C164.645 5.85653 165.938 5.52841 167.429 5.52841C168.92 5.52841 170.213 5.85653 171.307 6.51278C172.401 7.16903 173.246 8.09043 173.842 9.27699C174.446 10.4635 174.747 11.8456 174.747 13.4233C174.747 15.0009 174.446 16.3797 173.842 17.5597C173.246 18.7396 172.401 19.6577 171.307 20.3139C170.213 20.9702 168.92 21.2983 167.429 21.2983ZM167.449 18.4148C168.258 18.4148 168.934 18.1927 169.477 17.7486C170.021 17.2978 170.425 16.6946 170.69 15.9389C170.962 15.1832 171.098 14.3414 171.098 13.4134C171.098 12.4787 170.962 11.6335 170.69 10.8778C170.425 10.1155 170.021 9.509 169.477 9.05824C168.934 8.60748 168.258 8.3821 167.449 8.3821C166.62 8.3821 165.931 8.60748 165.381 9.05824C164.837 9.509 164.429 10.1155 164.158 10.8778C163.893 11.6335 163.76 12.4787 163.76 13.4134C163.76 14.3414 163.893 15.1832 164.158 15.9389C164.429 16.6946 164.837 17.2978 165.381 17.7486C165.931 18.1927 166.62 18.4148 167.449 18.4148ZM181.234 12.0511V21H177.634V5.72727H181.075V8.32244H181.254C181.605 7.46733 182.165 6.78788 182.934 6.28409C183.709 5.7803 184.667 5.52841 185.808 5.52841C186.861 5.52841 187.78 5.75379 188.562 6.20454C189.351 6.6553 189.96 7.30824 190.391 8.16335C190.829 9.01847 191.044 10.0559 191.038 11.2756V21H187.438V11.8324C187.438 10.8116 187.173 10.0128 186.643 9.43608C186.119 8.85937 185.393 8.57102 184.465 8.57102C183.835 8.57102 183.275 8.71023 182.785 8.98864C182.301 9.26042 181.92 9.65483 181.641 10.1719C181.37 10.6889 181.234 11.3153 181.234 12.0511ZM206.6 9.7642L203.318 10.1222C203.226 9.79072 203.063 9.47917 202.831 9.1875C202.606 8.89583 202.301 8.66051 201.916 8.48153C201.532 8.30256 201.061 8.21307 200.505 8.21307C199.756 8.21307 199.126 8.37547 198.615 8.70028C198.112 9.02509 197.863 9.44602 197.87 9.96307C197.863 10.4072 198.025 10.7685 198.357 11.0469C198.695 11.3253 199.252 11.554 200.027 11.733L202.632 12.2898C204.077 12.6013 205.151 13.0952 205.854 13.7713C206.563 14.4474 206.921 15.3324 206.928 16.4261C206.921 17.3873 206.64 18.2358 206.083 18.9716C205.532 19.7008 204.767 20.2708 203.786 20.6818C202.805 21.0928 201.678 21.2983 200.405 21.2983C198.536 21.2983 197.031 20.9072 195.891 20.125C194.751 19.3362 194.071 18.2391 193.853 16.8338L197.363 16.4957C197.522 17.1851 197.86 17.7055 198.377 18.0568C198.894 18.4081 199.567 18.5838 200.395 18.5838C201.25 18.5838 201.936 18.4081 202.453 18.0568C202.977 17.7055 203.239 17.2713 203.239 16.7543C203.239 16.3168 203.07 15.9555 202.732 15.6705C202.4 15.3854 201.883 15.1667 201.181 15.0142L198.576 14.4673C197.111 14.1624 196.027 13.6487 195.324 12.9261C194.622 12.197 194.273 11.2756 194.28 10.1619C194.273 9.22064 194.529 8.4053 195.046 7.71591C195.569 7.01989 196.295 6.48295 197.223 6.10511C198.158 5.72064 199.235 5.52841 200.455 5.52841C202.245 5.52841 203.653 5.90956 204.681 6.67188C205.715 7.43419 206.354 8.46496 206.6 9.7642Z" fill="black"/>
</svg>
