<svg width="24" height="24" viewBox="0 0 24 24" fill="none" xmlns="http://www.w3.org/2000/svg">
<path fill-rule="evenodd" clip-rule="evenodd" d="M12.0001 2.5C9.48048 2.5 7.06411 3.5009 5.2825 5.2825C3.5009 7.06411 2.5 9.48048 2.5 12.0001C2.5 14.5196 3.5009 16.936 5.2825 18.7176C6.16466 19.5998 7.21194 20.2995 8.36454 20.777C9.51714 21.2544 10.7525 21.5001 12.0001 21.5001C13.2476 21.5001 14.483 21.2544 15.6356 20.777C16.7882 20.2995 17.8354 19.5998 18.7176 18.7176C19.5998 17.8354 20.2995 16.7882 20.777 15.6356C21.2544 14.483 21.5001 13.2476 21.5001 12.0001C21.5001 10.7525 21.2544 9.51714 20.777 8.36454C20.2995 7.21194 19.5998 6.16466 18.7176 5.2825C16.936 3.5009 14.5196 2.5 12.0001 2.5ZM17.5336 15.4116L8.58749 6.46634C9.74415 5.75319 11.1001 5.41778 12.4652 5.51587C14.0245 5.62792 15.4911 6.29808 16.5965 7.40356C17.7015 8.50895 18.3714 9.97544 18.4835 11.5345C18.5816 12.8992 18.2464 14.255 17.5336 15.4116ZM5.51362 12.4672C5.41588 11.1015 5.75203 9.74498 6.46614 8.58821L15.4135 17.5346C14.2566 18.249 12.8999 18.5852 11.534 18.4875C9.97417 18.3759 8.50689 17.7057 7.40114 16.6C6.29538 15.4942 5.62525 14.0269 5.51362 12.4672Z" fill="#5D6066"/>
</svg>
