<svg width="24" height="24" viewBox="0 0 24 24" fill="none" xmlns="http://www.w3.org/2000/svg">
<path d="M6.85715 3C7.42521 3 7.88572 3.46051 7.88572 4.02857V12C7.88572 13.0609 8.31918 14.0783 9.09076 14.8284C9.86234 15.5786 10.9088 16 12 16C13.0912 16 14.1377 15.5786 14.9092 14.8284C15.6808 14.0783 16.1143 13.0609 16.1143 12V4.02857C16.1143 3.46051 16.5748 3 17.1429 3C17.7109 3 18.1714 3.46051 18.1714 4.02857V12C18.1714 13.5913 17.5212 15.1174 16.3639 16.2426C15.2065 17.3679 13.6368 18 12 18C10.3632 18 8.79351 17.3679 7.63614 16.2426C6.47878 15.1174 5.82857 13.5913 5.82857 12V4.02857C5.82857 3.46051 6.28908 3 6.85715 3ZM4 21C4 20.4477 4.44772 20 5 20H19C19.5523 20 20 20.4477 20 21C20 21.5523 19.5523 22 19 22H5C4.44772 22 4 21.5523 4 21Z" fill="#5D6066"/>
</svg>
