<svg width="24" height="24" viewBox="0 0 24 24" fill="none" xmlns="http://www.w3.org/2000/svg">
<g clip-path="url(#clip0_1_239591)">
<path d="M8.45309 2.39688C8.37222 2.15961 8.14929 2 7.89844 2H5.35938C5.03589 2 4.77344 2.2623 4.77344 2.58594V8.05469C4.77344 9.02393 3.98486 9.8125 3.01563 9.8125C2.69214 9.8125 2.42969 10.0748 2.42969 10.3984V16.1394H11.4141V11.1797C11.4141 11.1154 11.4035 11.0515 11.3828 10.9906L8.45309 2.39688ZM7.50781 14.3816C7.50781 14.7052 7.24551 14.9675 6.92188 14.9675C6.59824 14.9675 6.33594 14.7052 6.33594 14.3816V12.1941C6.33594 11.8705 6.59824 11.6082 6.92188 11.6082C7.24551 11.6082 7.50781 11.8705 7.50781 12.1941V14.3816Z" fill="#5D6066"/>
<path d="M2.42969 17.3113H11.4141V18.4832H2.42969V17.3113Z" fill="#5D6066"/>
<path d="M2.42969 21.4141C2.42969 21.7377 2.69199 22 3.01563 22H9.65625C10.6255 22 11.4141 21.2114 11.4141 20.2422V19.655H2.42969V21.4141Z" fill="#5D6066"/>
<path d="M10.228 3.97144L12.0098 9.19833L13.7917 3.97144H10.228Z" fill="#5D6066"/>
<path d="M21.004 9.8125C20.0346 9.8125 19.2462 9.02393 19.2462 8.05469V2.58594C19.2462 2.2623 18.9838 2 18.6603 2H16.1212C15.8704 2 15.6474 2.15961 15.5666 2.39688L12.6369 10.9906C12.6161 11.0515 12.6056 11.1154 12.6056 11.1797V16.1394H21.59V10.3984C21.59 10.0748 21.3275 9.8125 21.004 9.8125ZM17.6837 14.3816C17.6837 14.7052 17.4213 14.9675 17.0978 14.9675C16.7741 14.9675 16.5118 14.7052 16.5118 14.3816V12.1941C16.5118 11.8705 16.7741 11.6082 17.0978 11.6082C17.4213 11.6082 17.6837 11.8705 17.6837 12.1941V14.3816Z" fill="#5D6066"/>
<path d="M12.6056 17.3113H21.59V18.4832H12.6056V17.3113Z" fill="#5D6066"/>
<path d="M12.6056 20.2422C12.6056 21.2114 13.394 22 14.3634 22H21.004C21.3275 22 21.59 21.7377 21.59 21.4141V19.655H12.6056V20.2422Z" fill="#5D6066"/>
</g>
<defs>
<clipPath id="clip0_1_239591">
<rect width="20" height="20" fill="white" transform="translate(2 2)"/>
</clipPath>
</defs>
</svg>
