<svg width="24" height="24" viewBox="0 0 24 24" fill="none" xmlns="http://www.w3.org/2000/svg">
<path fill-rule="evenodd" clip-rule="evenodd" d="M15 3H9C7.75736 3 6.75 4.00736 6.75 5.25V18.75C6.75 19.9926 7.75736 21 9 21H15C16.2426 21 17.25 19.9926 17.25 18.75V5.25C17.25 4.00736 16.2426 3 15 3ZM19.5002 7.5C19.3013 7.50001 19.1106 7.57903 18.9699 7.71968C18.8293 7.86033 18.7503 8.05109 18.7502 8.25V15.75C18.7502 15.9489 18.8293 16.1397 18.9699 16.2803C19.1106 16.421 19.3013 16.5 19.5002 16.5C19.6992 16.5 19.8899 16.421 20.0306 16.2803C20.1712 16.1397 20.2502 15.9489 20.2502 15.75V8.25C20.2502 8.05109 20.1712 7.86033 20.0306 7.71968C19.8899 7.57903 19.6992 7.50001 19.5002 7.5ZM21.9699 9.21968C22.1106 9.07903 22.3013 9.00001 22.5002 9C22.6992 9.00001 22.8899 9.07903 23.0306 9.21968C23.1712 9.36033 23.2502 9.55109 23.2502 9.75V14.25C23.2502 14.4489 23.1712 14.6397 23.0306 14.7803C22.8899 14.921 22.6992 15 22.5002 15C22.3013 15 22.1106 14.921 21.9699 14.7803C21.8293 14.6397 21.7502 14.4489 21.7502 14.25V9.75C21.7503 9.55109 21.8293 9.36033 21.9699 9.21968ZM4.5 7.5C4.30109 7.50001 4.11033 7.57903 3.96968 7.71968C3.82903 7.86033 3.75001 8.05109 3.75 8.25V15.75C3.75 15.9489 3.82902 16.1397 3.96967 16.2803C4.11032 16.421 4.30109 16.5 4.5 16.5C4.69891 16.5 4.88968 16.421 5.03033 16.2803C5.17098 16.1397 5.25 15.9489 5.25 15.75V8.25C5.24999 8.05109 5.17097 7.86033 5.03032 7.71968C4.88967 7.57903 4.69891 7.50001 4.5 7.5ZM0.969681 9.21968C1.11033 9.07903 1.30109 9.00001 1.5 9C1.69891 9.00001 1.88967 9.07903 2.03032 9.21968C2.17097 9.36033 2.24999 9.55109 2.25 9.75V14.25C2.25 14.4489 2.17098 14.6397 2.03033 14.7803C1.88968 14.921 1.69891 15 1.5 15C1.30109 15 1.11032 14.921 0.96967 14.7803C0.829018 14.6397 0.75 14.4489 0.75 14.25V9.75C0.75001 9.55109 0.82903 9.36033 0.969681 9.21968Z" fill="#5D6066"/>
</svg>
