<svg width="24" height="24" viewBox="0 0 24 24" fill="none" xmlns="http://www.w3.org/2000/svg">
<path fill-rule="evenodd" clip-rule="evenodd" d="M6.11304 5H11.9051C14.3271 5 16.0181 6.66904 16.0181 9.06091V15.9391C16.0181 18.331 14.3271 20 11.9051 20H6.11304C3.69102 20 2 18.331 2 15.9391V9.06091C2 6.66904 3.69102 5 6.11304 5ZM19.958 7.37898C20.397 7.15563 20.912 7.17898 21.331 7.44294C21.75 7.70589 22 8.16274 22 8.66223V16.3384C22 16.8389 21.75 17.2947 21.331 17.5577C21.102 17.7008 20.846 17.7739 20.588 17.7739C20.373 17.7739 20.158 17.7231 19.957 17.6206L18.476 16.8734C17.928 16.5952 17.588 16.0369 17.588 15.4165V9.58305C17.588 8.96173 17.928 8.40335 18.476 8.12721L19.958 7.37898Z" fill="#5D6066"/>
</svg>
