<svg width="24" height="24" viewBox="0 0 24 24" fill="none" xmlns="http://www.w3.org/2000/svg">
<path fill-rule="evenodd" clip-rule="evenodd" d="M6.11292 5H11.905C14.327 5 16.018 6.66904 16.018 9.06091V15.9391C16.018 18.331 14.327 20 11.905 20H6.11292C3.69089 20 1.99988 18.331 1.99988 15.9391V9.06091C1.99988 6.66904 3.69089 5 6.11292 5ZM19.9579 7.37898C20.3969 7.15563 20.9119 7.17898 21.3309 7.44294C21.7499 7.70589 21.9999 8.16274 21.9999 8.66223V16.3384C21.9999 16.8389 21.7499 17.2947 21.3309 17.5577C21.1019 17.7008 20.8459 17.7739 20.5879 17.7739C20.3729 17.7739 20.1579 17.7231 19.9569 17.6206L18.4758 16.8734C17.9278 16.5952 17.5878 16.0369 17.5878 15.4165V9.58305C17.5878 8.96173 17.9278 8.40335 18.4758 8.12721L19.9579 7.37898ZM7.53032 9.96991C7.23743 9.67702 6.76255 9.67702 6.46966 9.96991C6.17677 10.2628 6.17677 10.7377 6.46966 11.0306L7.93934 12.5003L6.46955 13.97C6.17665 14.2629 6.17665 14.7378 6.46955 15.0307C6.76244 15.3236 7.23731 15.3236 7.53021 15.0307L9 13.5609L10.4697 15.0306C10.7626 15.3235 11.2374 15.3235 11.5303 15.0306C11.8232 14.7377 11.8232 14.2628 11.5303 13.9699L10.0607 12.5003L11.5302 11.0307C11.8231 10.7378 11.8231 10.2629 11.5302 9.97004C11.2373 9.67715 10.7624 9.67715 10.4695 9.97004L9 11.4396L7.53032 9.96991Z" fill="#5D6066"/>
</svg>
