<svg width="24" height="24" viewBox="0 0 24 24" fill="none" xmlns="http://www.w3.org/2000/svg">
<path d="M4.15083 18.8095H19.8501C20.2864 18.8095 20.5337 18.2007 20.2768 17.8519C19.6821 17.0442 19.1043 15.8537 19.1043 14.4179L19.1299 12.4541C19.1299 8.55868 15.9377 5.40082 12 5.40082C8.11939 5.40082 4.97355 8.51284 4.97355 12.3517L4.94798 14.4179C4.94798 15.8439 4.34959 17.028 3.72962 17.8354C3.46244 18.1833 3.70914 18.8095 4.15083 18.8095Z" fill="white" fill-opacity="0.7"/>
<path d="M14.2349 3.20041C14.2349 4.41566 13.2343 5.40082 12 5.40082C10.7657 5.40082 9.76505 4.41566 9.76505 3.20041C9.76505 1.98516 10.7657 1 12 1C13.2343 1 14.2349 1.98516 14.2349 3.20041Z" fill="white" fill-opacity="0.7"/>
<path fill-rule="evenodd" clip-rule="evenodd" d="M10.9524 19.8572C10.9524 20.4358 11.4214 20.9048 12 20.9048C12.5786 20.9048 13.0476 20.4358 13.0476 19.8572H15.1428C15.1428 21.5929 13.7357 23 12 23C10.2642 23 8.85712 21.5929 8.85712 19.8572H10.9524Z" fill="white"/>
</svg>
