<svg width="24" height="24" viewBox="0 0 24 24" fill="none" xmlns="http://www.w3.org/2000/svg">
<path fill-rule="evenodd" clip-rule="evenodd" d="M11.7666 1C6.11203 1 1.52808 5.58396 1.52808 11.2386C1.52808 16.8932 6.11203 21.4771 11.7666 21.4771C14.0242 21.4771 16.1112 20.7464 17.8039 19.5086L20.6596 22.3569C21.1484 22.8445 21.9398 22.8434 22.4274 22.3546C22.9149 21.8659 22.9139 21.0744 22.4251 20.5869L19.6286 17.7977C21.1123 16.0212 22.0052 13.7341 22.0052 11.2386C22.0052 5.58396 17.4212 1 11.7666 1ZM4.02808 11.2386C4.02808 6.96467 7.49275 3.5 11.7666 3.5C16.0405 3.5 19.5052 6.96467 19.5052 11.2386C19.5052 15.5124 16.0405 18.9771 11.7666 18.9771C7.49275 18.9771 4.02808 15.5124 4.02808 11.2386ZM11.8739 7.1499C11.2588 7.1499 10.7508 7.65791 10.7508 8.27298V10.2268H8.72305C8.10798 10.2268 7.59998 10.7348 7.59998 11.3499C7.59998 11.965 8.10798 12.473 8.72305 12.473H10.7508V14.4268C10.7508 15.0419 11.2588 15.5499 11.8739 15.5499C12.489 15.5499 12.997 15.0419 12.997 14.4268V12.473H14.8769C15.492 12.473 16 11.965 16 11.3499C16 10.7348 15.492 10.2268 14.8769 10.2268H12.997V8.27298C12.997 7.65791 12.489 7.1499 11.8739 7.1499Z" fill="#5D6066"/>
</svg>
